<svg width="169" height="446" viewBox="0 0 169 446" fill="none" xmlns="http://www.w3.org/2000/svg">
<path d="M165.384 216.573C165.445 214.416 165.505 212.189 165.316 209.906C165.282 209.182 165.259 208.446 165.235 207.702C165.066 202.628 164.872 196.877 161.785 192.103C161.755 192.06 161.726 192.014 161.694 191.967C161.225 191.3 160.74 190.598 160.239 189.873C156.752 184.817 152.406 178.529 147.415 174.534C143.692 171.562 139.176 169.527 134.201 168.571C134.004 168.158 133.785 167.711 133.538 167.249C135.789 152.716 134.082 142.507 128.317 136.046C123.609 130.854 116.24 127.756 108.597 127.756C107.399 127.756 106.218 127.829 105.062 127.98C105.105 113.777 98.688 103.545 87.2318 100.076C82.0106 98.4904 77.9811 97.7522 74.5605 97.7522C66.9801 97.7522 62.8448 101.617 60.09 104.983C57.4356 108.232 55.402 112.462 53.7898 117.159C52.7032 109.662 51.8354 101.673 51.6447 95.1874C51.3942 89.6358 50.0922 84.966 48.8317 80.4507C48.0033 77.489 47.146 74.4231 46.5517 71.0069C42.944 50.5461 40.328 32.7166 38.0748 13.1969C38.0454 12.958 38.0012 12.7209 37.9353 12.491L37.1952 9.90287C35.9009 4.27039 30.5764 0.909978 22.9161 0.909978C21.5931 0.909978 20.2875 1.01412 18.9358 1.23863C9.33434 3.07242 4.15316 8.41215 2.64843 17.9601C1.22792 25.913 1.19918 34.3672 1.17027 42.5375C1.15913 45.9536 1.14782 49.1829 1.03989 52.1465C0.385307 62.9211 2.27938 74.0441 4.11599 84.799C4.54322 87.3117 4.96273 89.7813 5.34291 92.1952C5.36176 92.3245 5.38852 92.4574 5.41941 92.5849L6.0731 95.2C6.47447 113.444 9.38552 124.023 12.75 136.255C13.1162 137.589 13.4901 138.942 13.8674 140.333L14.2147 143.442C15.3364 154.671 14.9751 165.53 14.59 177.027L14.5823 177.311C14.4363 181.521 14.8257 185.785 15.2073 189.909C15.8737 197.181 16.5051 204.051 14.3171 210.175C14.1691 210.59 14.087 211.02 14.0667 211.452C8.30461 220.285 7.66134 228.783 11.7447 240.123C11.8927 240.536 12.1012 240.924 12.3655 241.273L12.6245 241.616C12.5528 257.674 16.8643 275.714 24.8341 292.671L25.116 294.079C25.1896 294.445 25.3096 294.799 25.4718 295.131C31.2192 307.021 33.1608 315.136 33.1608 327.284C33.1608 331.812 34.1794 338.12 35.4653 346.104C38.5281 365.092 43.1572 393.782 39.3775 429.411C39.2189 430.889 39.8216 432.351 40.9771 433.294C41.5943 433.795 56.5678 445.637 94.5989 445.637C132.653 445.637 147.386 433.771 147.993 433.267C149.351 432.141 149.906 430.314 149.403 428.624C142.902 406.682 140.428 385.402 141.835 363.574C142.177 358.277 142.794 352.087 143.446 345.532C145.468 325.259 146.596 311.763 144.538 304.663L144.693 304.368C150.096 294.174 155.683 283.631 158.379 272.508C161.665 257.96 163.599 246.772 164.63 236.288C164.639 236.265 164.652 236.24 164.662 236.218C165.018 235.45 165.462 234.638 165.93 233.774C168.001 229.973 171.749 223.089 165.366 217.2C165.374 216.99 165.379 216.781 165.384 216.573" fill="#72352E"/>
<path d="M161.435 219.659L161.385 220.603L160.92 219.788C160.92 216.433 161.178 213.335 160.92 210.24C160.661 204.82 160.92 198.884 158.082 194.496C154.467 189.334 149.823 182.108 144.662 177.977C140.657 174.775 135.616 172.963 130.433 172.483C130.613 171.899 130.727 171.526 130.727 171.526C130.21 170.493 129.695 169.203 128.921 168.169C130.469 159.138 131.501 146.232 125.048 139.006C119.292 132.653 108.661 130.295 100.298 133.763L100.276 133.713C101.78 121.674 98.9307 108.227 85.953 104.292C73.1787 100.419 68.2541 101.966 63.5021 107.778C58.203 114.251 55.4546 126.073 53.4973 137.835L53.0512 137.587C50.7278 127.906 47.6307 108.548 47.2442 95.3868C46.857 86.8717 43.7612 80.6752 42.2123 71.7739C38.7287 52.0261 36.0195 33.8319 33.6962 13.6998L32.9224 10.9895C31.7614 5.57076 24.4047 4.79667 19.7623 5.57078C11.6318 7.12078 8.14892 11.3775 6.98791 18.7342C5.05181 29.5717 5.8269 41.9627 5.43828 52.4176C4.66445 65.1913 7.76102 79.1288 9.69711 91.5163L10.4708 94.6127C10.8574 114.747 14.341 125.196 18.2126 139.523L18.6005 143.006C19.7623 154.621 19.3736 165.848 18.987 177.462C18.6005 188.689 22.3416 200.818 18.4693 211.659L19.1562 211.86C13.3364 219.691 11.6501 226.85 15.8899 238.629L17.0516 240.177C16.6652 257.599 21.6962 275.795 29.0514 291.279L29.4388 293.215C35.2444 305.218 37.567 314.121 37.567 327.283C37.567 341.606 49.1796 378.774 43.7612 429.876C43.7612 429.876 57.6965 441.229 94.5982 441.229C131.501 441.229 145.178 429.876 145.178 429.876C138.985 408.968 135.888 387.291 137.437 363.288C138.686 343.909 143.63 312.185 139.759 304.442L139.704 304.367C145.332 293.723 151.355 282.781 154.081 271.536C156.791 259.535 159.113 247.534 160.273 235.532L160.699 233.623L160.661 234.37C162.985 229.338 167.629 224.307 161.435 219.659" fill="url(#paint0_linear)"/>
<path d="M112.534 168.406L115.774 175.319C118.916 172.528 127.408 172.131 130.556 172.083C130.663 171.734 130.727 171.526 130.727 171.526C130.21 170.493 129.695 169.203 128.921 168.169C130.469 159.138 131.501 146.232 125.048 139.006C123.037 136.788 120.425 135.069 117.528 133.903C117.794 134.487 122.445 144.836 121.606 151.343C120.742 158.037 112.534 168.406 112.534 168.406ZM135.861 302.003C135.861 302.003 150.438 289.689 156.917 236.878C156.917 236.878 151.086 237.851 149.789 238.174C149.789 238.174 146.875 277.054 135.861 302.003ZM29.2788 197.676C30.5737 196.703 40.6172 176.939 40.6172 176.939L29.2788 175.642L33.1657 179.206C33.4891 186.334 21.8274 208.042 21.8274 208.042L29.2788 197.676ZM38.3492 94.9665C38.3492 94.9665 44.5041 126.394 44.5041 128.986C44.5041 131.579 38.9959 134.819 38.9959 134.819C38.9959 134.819 44.8275 138.708 45.1524 149.721C45.4763 160.739 42.2361 174.022 42.2361 174.022L45.7998 167.542L48.7151 166.57C48.7151 166.57 50.6591 161.387 51.308 155.878C51.9554 150.372 53.8987 137.736 53.8987 137.736L54.1097 134.329C53.8979 135.495 53.6916 136.666 53.4973 137.835L53.0512 137.587C50.7277 127.906 47.6306 108.548 47.2442 95.3868C46.857 86.8716 43.7611 80.6751 42.2122 71.7738C40.6102 62.6875 39.1769 53.9299 37.8643 45.1633C35.2864 53.682 38.977 65.9779 40.6172 73.9076C42.5603 83.3028 41.9121 91.7264 40.293 91.7264C39.104 91.7264 36.178 92.2472 34.7013 92.5274C36.4621 92.6172 38.3492 94.9665 38.3492 94.9665ZM108.972 239.469C108.972 239.469 118.691 232.342 126.141 221.327C133.593 210.312 138.127 197.676 138.127 197.676C138.127 197.676 133.917 203.508 127.762 208.688C121.606 213.873 110.916 227.806 108.972 239.469V239.469ZM129.596 219.813C125.493 225.862 116.207 239.469 109.079 241.628C109.079 241.628 103.465 247.244 90.5056 240.333C90.5056 240.333 91.586 231.91 94.1781 227.59C96.7701 223.27 97.8483 219.163 100.872 215.061C103.897 210.958 111.024 198.648 113.616 192.816C116.207 186.983 118.366 175.752 118.366 175.752L115.342 176.183C115.342 176.183 116.423 184.605 109.079 192.382C109.079 192.382 103.032 200.376 70.2044 209.881C70.2044 209.881 80.3557 223.917 82.5156 237.31C82.5156 237.31 89.7158 246.068 92.2945 251.945C92.4313 252.259 92.5568 252.564 92.6664 252.861C94.8262 258.693 93.9619 266.47 93.9619 266.47C93.9619 266.47 97.4184 255.237 98.4971 250.271C98.4971 250.271 111.24 242.927 116.207 240.766C121.174 238.607 129.38 229.964 129.38 229.964C129.38 229.964 148.387 232.125 157.888 225.429C157.888 225.429 151.626 227.588 140.395 226.078L133.701 223.917C133.701 223.917 137.588 218.734 138.237 216.79C138.237 216.79 148.602 213.983 152.057 205.773C152.057 205.773 145.147 212.684 138.668 213.766L140.826 198.431C140.826 198.431 133.7 213.766 129.596 219.813ZM84.6749 305.241C87.9144 305.241 96.0124 309.128 96.0124 309.128C93.7459 305.241 92.1262 294.226 92.1262 294.226C91.4779 296.169 84.6749 305.241 84.6749 305.241ZM44.5041 216.465C41.5887 223.917 49.6869 230.721 44.5041 243.034C44.5041 243.034 55.8432 235.906 56.8155 224.242L66.2091 208.688C66.2091 208.688 101.843 199.62 109.619 187.631C109.619 187.631 85.3237 194.435 69.1247 195.081L68.8013 188.926C68.8013 188.926 58.4339 195.406 51.308 196.703C51.308 196.703 47.4196 209.013 44.5041 216.465V216.465ZM56.1666 298.761C56.1666 298.761 66.5326 302.65 68.4764 302.65C68.4764 302.65 65.8859 296.169 66.8575 294.549C66.8575 294.549 58.7586 298.761 56.1666 298.761V298.761ZM107.352 318.958C96.9848 314.204 84.8909 306.863 72.3642 305.566C59.8382 304.268 52.9269 300.381 40.8332 293.903C28.7393 287.421 20.5317 266.685 20.5317 266.685L20.2645 266.899C22.3894 275.405 25.4373 283.669 29.0514 291.279L29.4388 293.215C34.6383 303.964 37.038 312.239 37.4834 323.304C39.1489 317.616 41.5023 310.082 42.5603 309.022C44.2873 307.294 63.2938 311.183 80.1397 315.5C96.9848 319.822 110.808 328.463 114.263 329.325C117.719 330.189 128.085 327.164 128.085 327.164L137.588 321.548C137.588 321.548 117.719 323.708 107.352 318.958ZM33.8133 92.698C33.8133 92.698 34.1647 92.6298 34.7013 92.5274C34.3991 92.513 34.0988 92.5543 33.8133 92.698ZM87.6984 151.99L90.5056 143.351C94.3493 137.063 98.7546 134.306 100.299 133.483C101.383 124.462 100.008 114.698 93.7593 108.753C93.9641 111.255 93.8771 114.56 92.6664 117.645C90.291 123.695 85.1077 134.279 82.9477 146.806C80.7878 159.336 76.0351 166.894 76.0351 166.894L81.8667 166.247C82.9477 165.168 87.6984 151.99 87.6984 151.99" fill="url(#paint1_linear)"/>
<path d="M37.8889 328.605C37.6034 323.019 37.5102 317.577 36.4276 312.065C35.1256 305.416 32.4642 299.23 29.454 293.208C29.4436 293.183 29.4127 293.202 29.4226 293.226C32.3758 299.699 34.8557 306.353 36.185 313.363C37.2379 318.909 37.012 324.454 37.3846 330.045C37.865 337.258 39.3523 344.423 40.4683 351.548C44.5405 377.502 46.2241 403.695 43.3256 429.876C43.2638 430.429 44.1435 430.431 44.1961 429.876C46.7061 403.556 45.1741 377.442 41.0982 351.379C39.9191 343.835 38.2797 336.244 37.8889 328.605ZM16.9357 240.177C16.0892 257.459 20.9385 276.086 28.874 291.383C28.9792 291.591 29.3412 291.442 29.25 291.227C22.2554 274.626 17.5384 258.315 17.1667 240.177C17.1631 240.03 16.9435 240.03 16.9357 240.177V240.177ZM128.11 326.381C124.817 327.31 121.478 327.899 118.075 328.26C113.861 328.707 110.397 326.959 106.715 325.206C100.76 322.374 94.9069 319.382 88.6649 317.205C88.6509 317.2 88.6446 317.225 88.66 317.23C96.1485 320.007 103.091 323.946 110.288 327.364C113.458 328.867 114.566 329.309 118.075 329.059C121.568 328.809 124.942 327.944 128.181 326.636C128.337 326.577 128.279 326.333 128.11 326.381V326.381ZM31.391 292.038C31.3705 292.013 31.3369 292.049 31.3558 292.071C40.2691 302.899 54.2142 309.496 68.1481 310.321C68.2408 310.326 68.2393 310.184 68.1481 310.177C54.1666 309.047 40.58 302.772 31.391 292.038ZM31.7613 135.664C34.7288 135.68 37.6967 135.696 40.6633 135.716C40.7504 135.716 40.7504 135.583 40.6633 135.583C37.6967 135.601 34.7288 135.621 31.7613 135.64C31.7451 135.64 31.7451 135.664 31.7613 135.664V135.664ZM31.379 93.4633C28.5029 94.6936 26.0595 95.7461 22.8943 95.9921C20.2013 96.2041 17.403 95.6347 14.7288 95.3779C14.7148 95.3761 14.7121 95.394 14.7254 95.3976C18.3647 95.9239 21.9305 96.4824 25.5987 95.8879C30.0265 95.1659 33.3447 91.3924 37.9016 94.3146C38.0159 94.39 38.11 94.214 38.0062 94.1368C35.884 92.5508 33.8166 92.4179 31.379 93.4633V93.4633ZM12.7913 91.8971C12.7829 91.8989 12.7872 91.9115 12.7956 91.9097C19.7362 90.5447 26.7358 89.6143 33.7186 88.5007C33.8258 88.4846 33.7795 88.3229 33.6737 88.3391C26.6936 89.3987 19.6703 90.277 12.7913 91.8971ZM30.2426 53.6875C30.3695 53.6624 30.3408 53.4487 30.2124 53.4612C26.5358 53.8617 22.9238 53.3624 19.2445 53.3337C15.2466 53.3122 12.3831 56.044 8.153 54.7203C8.13127 54.7149 8.12139 54.749 8.14384 54.7544C11.2846 55.8518 13.6093 55.0723 16.7057 54.0665C20.9906 52.6692 25.8246 54.5029 30.2426 53.6875V53.6875ZM5.46553 56.5576C5.44811 54.3162 6.10035 52.1321 6.18602 49.8709C6.37476 44.9335 6.09838 39.971 6.09981 35.03C6.10107 27.0878 5.53215 15.7312 11.5981 9.65871C16.8124 4.44113 29.4443 3.4443 32.761 11.0866C32.8521 11.2967 33.1328 11.1333 33.1019 10.9393C32.0524 4.19684 22.5093 4.44472 17.5602 5.70916C9.78183 7.69381 7.28884 13.9818 6.20918 21.2649C5.40249 26.716 5.25936 32.2874 5.10564 37.7905C5.0286 40.5062 4.98514 43.2219 4.87631 45.9393C4.75293 49.0268 5.26421 52.1321 5.18142 55.1693C4.84129 67.3053 7.42981 79.6551 9.69006 91.5181C9.69203 91.5235 9.70335 91.5217 9.70263 91.5163C8.51504 82.1786 6.5283 72.9827 5.74765 63.5857C5.55406 61.249 5.48456 58.9033 5.46553 56.5576V56.5576ZM18.2357 139.516C16.5913 133.097 14.8524 126.698 13.4802 120.216C11.6781 111.708 11.5482 103.205 10.6399 94.6128C10.6174 94.399 10.3136 94.3936 10.3024 94.6128C9.40165 109.856 14.045 125.065 18.1887 139.529C18.1971 139.556 18.2435 139.545 18.2357 139.516V139.516ZM91.6989 287.793C91.6934 287.863 91.8056 287.879 91.8182 287.812C95.022 271.481 95.8559 250.546 86.7491 235.906C86.7309 235.881 86.6923 235.904 86.7063 235.931C95.203 252.054 93.2976 270.362 91.6989 287.793ZM159.869 235.532C158.524 248.392 156.493 261.6 153.076 274.09C150.174 284.696 144.781 294.54 139.688 304.3C139.639 304.329 139.614 304.383 139.61 304.446C138.872 305.863 138.138 307.276 137.419 308.692C137.409 308.713 137.441 308.731 137.454 308.71C138.177 307.343 138.912 305.98 139.648 304.62C142.389 311.007 140.853 320.167 140.368 326.836C139.625 337.059 138.402 347.237 137.506 357.446C135.364 381.804 137.515 406.576 144.833 429.971C144.971 430.407 145.644 430.226 145.522 429.779C142.081 417.199 139.354 404.632 138.156 391.621C137.042 379.545 137.369 367.45 138.441 355.381C139.348 345.172 140.56 334.984 141.21 324.752C141.613 318.446 142.767 310.287 139.905 304.358C139.885 304.316 139.856 304.302 139.826 304.288C144.872 294.971 150.028 285.704 153.291 275.574C157.398 262.815 159.39 248.843 160.681 235.532C160.731 235.008 159.923 235.017 159.869 235.532V235.532ZM161.536 219.484C161.354 219.348 161.128 219.65 161.293 219.801C166.613 224.548 162.68 229.113 160.421 234.228C160.279 234.553 160.733 234.835 160.904 234.51C163.605 229.345 167.414 223.906 161.536 219.484V219.484ZM105.006 237.819C105.886 240.26 103.788 240.588 102.066 240.946C98.0776 241.774 94.3232 240.813 91.3637 237.993C91.3272 237.959 91.2872 237.948 91.2493 237.95C91.9865 236.337 92.5182 234.636 93.3271 233.059C95.2078 229.401 100.277 231.987 102.48 233.885C103.701 234.938 104.468 236.33 105.006 237.819V237.819ZM90.8346 238.022C90.7414 238.219 91.0101 238.384 91.1182 238.217C91.1223 238.223 91.1201 238.226 91.1237 238.234C95.0978 242.264 100.439 242.131 105.476 240.324C105.536 240.301 105.591 240.247 105.585 240.179C105.202 235.211 101.931 231.721 96.9209 230.969C92.8544 230.36 92.136 235.301 90.8346 238.022ZM158.605 225.753C158.644 225.746 158.627 225.688 158.589 225.695C148.631 227.058 137.976 225.832 128.558 222.276C130.26 219.711 131.848 217.074 133.336 214.375C133.395 214.427 133.465 214.473 133.564 214.473C140.814 214.459 147.677 211.045 152.429 205.617C152.46 205.583 152.415 205.538 152.379 205.569C146.751 210.202 141.232 213.807 133.7 213.742C136.288 208.979 138.569 204.019 140.602 198.902C140.634 198.826 140.508 198.774 140.471 198.846C137.168 205.373 134.02 211.952 130.253 218.234C126.61 224.309 122.179 229.586 117.37 234.742C113.192 239.221 108.694 243.263 102.178 243.638C98.3057 243.861 94.5204 242.386 91.1643 240.621C90.0028 240.012 89.8814 237.962 90.1522 235.647C89.9367 237.134 89.767 238.631 89.7312 240.179C89.7298 240.258 89.774 240.333 89.8406 240.371C95.0135 243.444 100.765 245.01 106.748 243.627C111.584 242.51 114.876 238.934 118.12 235.493C121.912 231.471 125.284 227.181 128.305 222.674C137.827 226.539 148.511 228.395 158.605 225.753V225.753ZM91.5587 228.535C91.2681 229.814 90.9835 231.08 90.726 232.341C91.0612 230.793 91.4288 229.39 91.6505 228.441C93.656 226.266 94.8178 223.215 94.9966 219.384C95.1383 216.37 96.3498 215.607 98.2243 213.329C99.9036 211.291 101.408 209.116 102.865 206.912C105.693 202.632 108.454 197.772 109.366 192.658C113.413 189.003 115.665 184.289 115.824 178.15C115.849 177.146 115.788 176.156 115.657 175.188C115.717 175.163 115.777 175.134 115.815 175.064C118.33 170.208 122.865 166.317 124.304 160.951C124.312 160.92 124.265 160.897 124.248 160.929C121.852 165.644 117.622 169.275 115.47 174.098C114.519 169.451 111.629 165.593 106.588 164.431C104.896 164.042 103.239 164.297 101.571 164.676C98.0602 165.473 94.8472 165.759 91.215 165.942C88.1143 166.096 85.0116 166.236 81.9087 166.384C86.3008 160.572 87.4367 152.685 89.8295 145.962C92.8544 137.46 99.59 132.587 108.613 132.425C116.825 132.275 124.721 136.783 127.842 144.448C129.352 148.157 129.624 152.353 129.65 156.311C129.671 159.26 130.075 165.311 128.262 167.786C128.107 167.993 128.128 168.347 128.262 168.559C128.945 169.638 129.507 170.757 130.11 171.887C130.172 172.005 130.251 172.086 130.336 172.144C125.591 171.72 120.726 172.476 116.258 174.59C116.219 174.61 116.246 174.669 116.285 174.656C128.705 170.47 140.704 173.367 149.294 183.285C153.106 187.689 157.93 193.362 159.524 199.036C161.329 205.464 160.6 213.177 160.624 219.788C160.625 220.169 161.207 220.169 161.216 219.788C161.38 212.512 162.019 204.739 159.999 197.646C159.147 194.663 156.955 192.116 155.231 189.6C153.349 186.85 151.352 184.206 149.171 181.688C144.456 176.242 137.825 172.954 130.897 172.199C131.257 172.057 131.54 171.632 131.343 171.167C130.265 168.631 129.624 166.838 129.959 164.09C130.227 161.881 130.41 159.672 130.495 157.446C130.669 152.951 130.185 148.464 128.627 144.231C126.001 137.095 118.808 133.108 111.634 132.061C108.085 131.542 104.186 131.948 100.681 133.27C101.753 123.17 100.266 111.634 91.0557 105.727C86.3662 102.715 79.5531 101.815 74.0659 101.837C70.1713 101.851 66.9359 103.613 64.2933 106.364C57.3422 113.599 55.4271 125.302 53.7113 134.748C53.5716 135.516 53.4504 136.285 53.3234 137.054C51.2273 128.302 49.7863 119.368 48.6991 110.438C48.1343 105.782 47.6818 101.123 48.0417 96.4376C48.4192 91.5073 46.3385 87.6763 45.0773 83.1143C42.0333 72.1188 41.1327 61.037 39.3299 49.826C38.871 46.9792 37.8797 44.2833 37.4575 41.4132C37.0352 38.5431 36.6311 35.6694 36.2369 32.7956C35.36 26.4394 34.7112 20.0328 33.7128 13.6945C33.7109 13.6747 33.6764 13.6819 33.6778 13.6999C34.5519 25.3384 37.4751 36.9392 37.6743 48.5993C37.7641 53.8869 39.6364 59.3523 40.7103 64.4962C41.9373 70.3586 42.9959 76.1976 44.6001 81.9738C45.9204 86.7262 45.7443 91.7858 46.5461 96.6423C47.367 101.621 47.7569 106.655 48.3533 111.665C49.3914 120.386 50.7144 129.124 52.6836 137.684C52.7432 137.948 52.9846 137.995 53.1767 137.914C51.6524 147.336 50.7733 156.92 48.5476 166.197C47.1095 166.596 45.8306 167.292 44.9895 168.647C42.2747 173.022 39.8187 177.546 37.3509 182.062C35.1966 179.863 32.7539 178.02 30.225 176.278C30.1977 176.262 30.1759 176.302 30.1998 176.32C32.6677 178.177 34.9335 180.255 37.1889 182.358C34.8263 186.679 32.4461 190.992 29.8062 195.151C26.4264 200.484 22.3375 205.588 18.9358 211.007C22.0947 200.478 19.2669 189.569 19.1974 178.814C19.1209 166.84 20.2658 154.928 18.6341 142.995C18.6278 142.956 18.5604 142.965 18.5633 143.006C19.1638 154.519 19.1407 165.94 18.7492 177.462C18.3598 188.908 21.9059 200.372 18.2133 211.585C18.1621 211.743 18.2568 211.853 18.3774 211.892C17.1148 213.971 15.955 216.093 14.9969 218.304C12.1613 224.842 13.3168 232.229 15.8618 238.636C15.8737 238.674 15.9313 238.659 15.9186 238.62C13.6837 231.076 12.6552 224.084 16.3487 216.835C17.8892 213.814 20.4328 211.501 22.435 208.812C25.2562 205.017 27.88 201.121 30.1661 196.976C34.408 189.287 38.4192 181.472 42.8072 173.861C43.7401 172.241 44.7075 170.644 45.6839 169.051C46.4768 167.761 50.2647 167.621 51.4931 167.379C56.9697 166.292 62.1482 166.161 67.6682 166.953C68.0955 167.012 68.2955 166.396 67.8507 166.288C63.2973 165.191 58.6352 165.249 53.9848 165.563C52.2901 165.676 50.41 165.716 48.7342 166.141C51.3787 158.459 51.9196 149.939 53.1451 141.964C54.6766 131.998 56.3139 121.52 60.894 112.428C62.8112 108.62 65.7063 104.947 69.7371 103.293C75.1007 101.089 81.6983 103.451 86.7976 105.307C98.4572 109.558 101.16 122.567 99.926 133.562C97.0563 134.776 94.5006 136.639 92.7007 139.152C92.0518 140.057 91.4709 140.996 90.9328 141.959C91.9389 138.819 92.3584 135.303 92.956 132.174C92.9652 132.129 92.8964 132.111 92.8851 132.158C92.0103 136.188 90.3591 140.077 89.5845 144.1C89.5635 144.213 89.626 144.303 89.7095 144.364C86.4447 151.365 85.0761 159.404 81.5329 166.269C81.5083 166.317 81.509 166.36 81.5181 166.402C77.4466 166.594 73.3751 166.799 69.3077 167.066C69.2159 167.07 69.2138 167.212 69.3077 167.21C75.3 167.077 81.2886 166.743 87.2731 166.459C89.9017 166.332 92.5288 166.204 95.1574 166.078C96.4818 166.017 97.8077 165.974 99.1341 165.938C99.4674 165.929 101.287 166.687 102.076 166.502C105.784 165.633 109.127 165.705 111.826 168.683C114.251 171.357 114.771 175.413 114.686 178.863C114.455 188.016 108.323 193.185 101.145 197.818C100.64 198.145 100.109 198.429 99.59 198.734C101.211 197.898 102.828 197.037 104.446 196.134C105.902 195.322 107.221 194.433 108.411 193.472C107.338 197.395 105.464 201.064 103.276 204.485C101.871 206.68 100.334 208.782 98.7139 210.822C97.5712 212.262 95.4724 213.868 94.6964 215.51C94.091 216.787 94.3857 217.965 94.3731 219.384C94.3527 221.609 93.8701 223.757 92.9447 225.771C90.8746 230.275 86.0013 231.452 81.4892 231.59C81.123 230.421 80.7175 229.262 80.2905 228.111C82.9148 228.075 85.5202 227.73 88.1459 227.689C88.2125 227.685 88.2813 227.639 88.296 227.572C89.0599 224.048 88.9784 220.562 85.9593 218.172C83.0144 215.844 78.5304 215.828 74.9858 215.952C74.6995 215.961 74.6974 216.402 74.9858 216.399C78.8454 216.336 83.3034 216.51 86.3486 219.197C88.0518 220.7 88.4503 223.095 88.3619 225.244C88.2567 227.842 86.3597 227.428 84.3606 227.606C82.9821 227.73 81.6036 227.852 80.2217 227.933C77.8309 221.577 74.5303 215.562 70.5283 210.131C76.7739 208.428 82.698 206.375 88.4686 203.948C82.4518 206.17 76.1811 207.821 70.1025 209.552C69.8599 209.243 69.3673 209.518 69.5244 209.836C69.4424 210.037 69.5792 210.292 69.8254 210.294C87.3525 234.121 88.2026 266.227 70.5206 290.201C70.4588 290.286 70.5935 290.386 70.6637 290.311C80.3199 279.865 84.6138 264.138 84.5001 250.217C84.449 244.118 83.4499 238.063 81.6794 232.229C85.9346 232.238 89.2816 230.949 91.5587 228.535V228.535ZM69.1913 210.536C67.6677 212.703 66.2086 214.919 64.7263 217.114C62.9921 219.684 60.4197 221.954 58.8778 224.587C58.7754 224.763 58.7641 224.948 58.8056 225.146C59.0897 226.516 58.4899 227.881 58.0431 229.142C57.1676 231.597 55.7387 233.862 54.281 236.007C48.5476 244.434 39.7444 251.313 31.3474 256.909C31.2877 256.945 31.3418 257.038 31.4007 257.003C39.5571 251.749 47.228 245.542 53.3534 237.975C55.8908 234.843 58.0409 231.452 59.3043 227.606C60.2521 224.729 62.4212 222.347 64.1581 219.907C66.2106 217.017 68.073 213.983 69.9425 210.975C70.2442 210.49 69.5084 210.086 69.1913 210.536V210.536ZM68.5768 209.651C66.0276 208.424 63.5962 207.293 61.3155 205.585C61.3043 205.578 61.2903 205.597 61.3 205.604C63.4692 207.296 65.8893 208.916 68.5123 209.805C68.6021 209.836 68.6637 209.691 68.5768 209.651V209.651ZM102.856 167.634C99.1635 167.382 95.4724 167.916 91.8343 168.51C88.4138 169.071 87.7242 169.024 86.127 172.171C84.014 176.337 86.2918 181.873 88.8473 185.246C88.9111 185.332 89.0549 185.253 88.9946 185.162C86.7112 181.688 85.2711 177.28 86.3669 173.157C87.2045 170.01 90.6362 169.755 93.3159 169.268C96.4782 168.697 99.6637 168.496 102.856 168.191C103.211 168.158 103.218 167.659 102.856 167.634V167.634ZM89.2183 185.323C89.0361 185.293 88.9596 185.546 89.1406 185.603C93.6806 187.073 102.238 188.748 106.052 184.941C109.872 181.126 106.208 171.819 103.997 168.108C103.914 167.966 103.696 168.094 103.778 168.234C106.246 172.456 108.597 179.508 106.026 184.127C103.497 188.667 93.111 185.937 89.2183 185.323ZM88.4686 203.948C92.3309 202.521 96.0715 200.832 99.59 198.734C95.9143 200.637 92.2215 202.372 88.4686 203.948Z" fill="#72352E"/>
<defs>
<linearGradient id="paint0_linear" x1="84.9218" y1="441.229" x2="84.9218" y2="5.31572" gradientUnits="userSpaceOnUse">
<stop stop-color="#FAB6A1"/>
<stop offset="1" stop-color="#FACBAA"/>
</linearGradient>
<linearGradient id="paint1_linear" x1="89.0763" y1="329.479" x2="89.0763" y2="45.1615" gradientUnits="userSpaceOnUse">
<stop stop-color="#CE6D64"/>
<stop offset="1" stop-color="#F6887D"/>
</linearGradient>
</defs>
</svg>
