<svg width="193" height="490" viewBox="0 0 193 490" fill="none" xmlns="http://www.w3.org/2000/svg">
<path d="M191.301 246.447C191.301 238.58 190.484 228.551 184.105 220.803C184.05 220.74 183.996 220.677 183.938 220.616C179.934 216.275 173.855 212.952 165.847 210.73C165.702 210.628 165.549 210.533 165.389 210.445C164.638 210.034 163.821 209.511 162.954 208.879L155.663 201.468C155.102 187.593 145.177 171.831 129.424 169.683C128.508 169.557 127.601 169.489 126.723 169.48C126.191 163.192 127.073 154.977 129.399 144.522C129.936 142.011 131.04 139.353 132.207 136.538C134.174 131.806 136.208 126.91 136.208 121.401V119.853C136.208 117.376 136.176 114.901 136.144 112.428C136.045 104.999 135.952 97.9858 136.701 90.8662C137.076 87.1358 137.803 83.4718 138.577 79.5923C139.789 73.4982 141.046 67.212 140.888 60.4265L141.422 59.3596C141.82 58.5657 142.023 57.9461 142.174 57.4953C142.28 57.1774 142.334 57.0175 142.496 56.6906C152.123 36.2316 161.12 10.5586 149.309 4.43935C144.38 1.88893 139.676 0.593984 135.325 0.593984C116.551 0.593984 109.485 23.5531 105.262 37.2733C104.386 40.1273 103.626 42.5951 102.908 44.4558C102.847 44.6246 102.79 44.7953 102.747 44.9713L102.332 46.6308C93.7601 65.4105 92.3953 77.3149 90.9532 89.9125L90.7718 91.4697C90.7018 92.0947 90.7647 92.7197 90.9496 93.3089C85.8854 109.61 83.5202 126.958 83.5202 147.724C83.5202 148.168 83.5849 148.603 83.7124 149.018C83.0623 151.717 82.4607 154.632 82.3673 157.786C80.6254 158.131 78.8187 158.307 77.0211 158.307C75.7101 158.307 74.4405 158.213 73.2211 158.025L72.9032 157.786C71.0499 153.567 68.9829 147.685 66.9788 141.986C65.8222 138.699 64.7339 135.594 63.6726 132.756C63.6457 132.693 63.6205 132.632 63.5954 132.566C61.9827 128.806 60.7759 124.6 59.6086 120.53C58.6443 117.166 57.6458 113.689 56.4228 110.51L56.2899 110.165C52.7701 101.115 48.4008 89.8856 46.402 79.6785V78.3548C47.0234 73.7622 46.7809 70.0803 45.6424 66.7899C44.696 64.0581 43.974 59.7457 43.209 55.1837C40.8618 41.1797 37.6491 21.9977 22.5245 21.9977C19.1501 21.9977 15.5674 23.0107 11.5699 25.0923C-1.85043 32.0844 0.263275 51.4802 1.96214 67.0647C2.44163 71.4597 2.89238 75.614 3.00731 79.2097C3.03245 80.0341 3.28925 80.8352 3.7436 81.5213L3.95732 81.8392C3.34673 94.3506 6.25958 105.603 9.33945 117.491C9.85126 119.469 10.372 121.471 10.8785 123.504C11.0203 124.07 11.27 124.596 11.6148 125.06C11.6956 125.496 11.7548 125.934 11.8231 126.41C11.9596 127.362 12.114 128.442 12.4013 129.582C12.906 131.86 13.2885 134.595 13.6926 137.494C14.0661 140.163 14.4486 142.925 14.9622 145.492C14.9784 145.576 14.9981 145.659 15.0179 145.742C16.5857 151.749 18.9975 157.551 21.3285 163.156C23.7924 169.076 26.1162 174.667 27.3715 180.194C27.517 180.826 27.7971 181.415 28.1886 181.916C27.9174 190.724 29.293 198.05 30.6238 205.155C31.6061 210.391 32.6207 215.803 32.9458 221.778C33.5959 233.747 32.3855 245.842 31.1733 254.271C22.9375 264.149 22.0719 276.889 28.5208 293.147C29.6666 297.369 30.3993 302.45 31.1733 307.83C33.3157 322.705 35.7239 339.437 48.1781 348.469C48.7671 352.016 49.3867 355.576 50.0099 359.149C53.1418 377.095 56.3815 395.654 55.1406 413.839C54.0182 434.632 53.0915 454.892 54.108 474.185C54.196 475.836 55.198 477.296 56.703 477.975C57.7715 478.458 83.1808 489.721 111.668 489.721C140.368 489.721 160.971 478.28 161.831 477.792C163.372 476.926 164.243 475.223 164.049 473.467C163.534 468.845 163.004 464.071 161.95 459.256C159.391 439.072 160.538 416.919 162.002 397.811C162.464 389.79 164.561 378.611 166.411 368.745C168.907 355.44 170.033 348.776 169.629 344.888C171.414 341.222 173.544 337.711 175.785 334.014C179.44 327.978 183.222 321.737 185.657 314.428C187.842 307.864 188.146 301.166 188.439 294.686C188.484 293.653 188.532 292.62 188.586 291.588C188.59 291.51 188.593 291.435 188.593 291.356C188.593 288.238 189.189 284.457 190.367 280.147C190.437 279.885 190.757 278.688 190.897 277.408C193.077 270.71 192.398 262.412 191.799 255.072C191.544 251.936 191.301 248.981 191.301 246.447" fill="#72352E"/>
<path d="M186.892 246.447C186.892 239.09 186.12 230.187 180.7 223.605C176.292 218.831 169.455 216.16 163.146 214.576L163.282 214.314C162.203 213.726 161.127 213.013 160.063 212.223L151.283 203.297V202.698C151.283 190.128 142.187 175.872 128.829 174.051C126.552 173.742 124.668 173.884 122.975 174.31C121.003 165.047 123.043 152.805 125.088 143.597C126.637 136.371 131.8 129.144 131.8 121.401V119.853C131.8 110.045 131.282 100.238 132.315 90.4297C133.346 80.1059 136.959 70.2994 136.444 59.4583L137.474 57.3928C137.992 56.3619 137.992 55.8446 138.507 54.8119C142.637 46.0381 157.026 13.4017 147.282 8.35654C118.377 -6.61369 112.185 32.6161 107.026 46.0381L106.509 48.1036C97.7325 67.1994 96.7016 78.5577 95.1518 91.9779L95.6691 93.0107C89.9924 110.56 87.929 128.627 87.929 147.726L88.4444 148.242C87.4118 152.371 86.3809 156.502 86.8963 161.146C82.2505 162.695 76.5739 163.212 71.4144 162.179L69.3474 160.631C66.2514 153.921 62.6381 142.564 59.5421 134.306C56.4443 127.079 54.8962 118.82 52.3156 112.108C48.7024 102.817 44.0583 90.947 41.9931 80.1059V78.0422C42.5103 74.4285 42.5031 71.1992 41.4759 68.2339C36.8319 54.8119 38.3799 16.0994 13.6063 29.0041C-0.315101 36.2549 6.897 62.5547 7.41241 79.0732L8.44502 80.6214C7.41241 95.0762 11.541 107.981 15.1561 122.434L15.6733 122.948C16.1869 125.015 16.1869 126.561 16.7041 128.627C17.7349 133.273 18.2521 139.466 19.2847 144.628C22.3807 156.502 29.09 167.858 31.6706 179.215L32.7032 179.73C31.6706 195.731 36.5266 206.411 37.3473 221.541C37.992 233.4 36.9109 245.765 35.3485 256.187C26.7698 265.658 27.0445 277.591 32.7032 291.742C37.3688 308.541 35.2892 336.308 53.1543 346.44L52.3156 346.458C55.9288 368.655 61.0901 391.368 59.5421 414.078C58.5095 433.177 57.4769 454.342 58.5095 473.955C58.5095 473.955 83.7985 485.312 111.668 485.312C139.54 485.312 159.667 473.955 159.667 473.955C159.154 469.311 158.635 464.664 157.604 460.018C155.023 439.887 156.056 417.69 157.604 397.559C158.604 380.051 166.874 349.453 165.035 344.292C169.895 333.716 177.601 324.657 181.474 313.033C183.796 306.066 183.796 298.709 184.184 291.356C184.184 287.48 184.958 283.223 186.12 278.967C186.12 278.967 186.497 277.602 186.549 276.504C189.57 267.991 186.892 255.304 186.892 246.447" fill="url(#paint0_linear)"/>
<path d="M154.819 264.648L157.41 261.191C175.984 256.439 180.736 242.616 180.736 242.616C174.255 252.554 160.432 256.872 160.432 256.872L159.138 253.418C157.41 257.303 151.363 264.216 144.451 270.696C137.541 277.174 123.286 277.607 121.127 276.312C118.968 275.017 122.855 262.486 125.446 256.439C128.037 250.389 137.974 234.408 141.429 229.225C144.509 224.603 145.87 216.232 146.129 214.457C151.931 213.886 159.138 213.674 159.138 213.674L146.179 210.648L144.02 203.735L134.948 206.759L140.132 215.4C140.693 215.233 141.431 215.079 142.286 214.939L140.132 215.4C142.293 229.657 130.198 237.864 130.198 237.864C121.992 245.208 90.0265 257.303 90.0265 257.303C68.4297 290.999 52.0158 298.776 52.0158 298.776C77.0696 293.592 87.0041 269.832 87.0041 269.832L93.9146 263.785C106.873 295.751 96.5059 325.126 96.5059 325.126C107.306 308.711 102.985 287.976 102.985 287.976L106.01 281.496C116.806 308.713 113.353 338.952 113.353 338.952C120.263 314.328 116.375 293.161 116.375 293.161L125.015 290.135C125.015 290.135 137.108 288.407 140.563 284.949C144.02 281.494 153.522 271.129 153.522 271.129C176.415 273.719 182.031 267.671 182.031 267.671C166.914 270.263 154.819 264.648 154.819 264.648V264.648ZM55.04 228.792L58.0642 221.88L51.152 215.4L55.04 228.792ZM98.6646 166.154C102.553 167.016 112.487 167.016 112.487 167.016C112.487 167.016 114.648 163.993 113.784 161.401C112.92 158.81 98.2335 155.352 98.2335 155.352C98.2335 155.352 95.2112 132.456 97.3698 125.545C99.5302 118.633 100.394 109.562 100.394 109.562C102.985 110.858 114.648 113.017 114.648 113.017C114.648 113.017 123.286 114.745 124.151 112.584C125.015 110.424 121.127 102.217 121.127 102.217C121.127 102.217 105.146 101.353 103.849 99.6257C102.553 97.8979 102.985 85.3684 103.849 76.7294C104.713 68.0903 112.056 55.5609 113.353 53.8349C114.648 52.107 117.241 55.9938 122.424 56.8577C127.606 57.7216 128.901 55.5609 128.901 55.5609L115.511 47.7857C115.511 47.7857 115.08 38.2809 117.67 27.4829C119.385 20.3382 122.415 13.2132 124.275 9.19716C114.154 17.7895 110.37 37.3362 107.026 46.0381L106.509 48.1036C97.7325 67.1994 96.7017 78.5578 95.1519 91.978L95.6691 93.0107C89.9924 110.56 87.929 128.627 87.929 147.726L88.4444 148.242C87.4118 152.371 86.381 156.502 86.8964 161.146C86.7689 161.189 86.6342 161.222 86.5049 161.263C90.26 162.993 96.1216 165.588 98.6646 166.154V166.154ZM46.833 244.344C42.514 241.752 43.3778 231.816 43.3778 221.449C43.3778 211.079 40.7846 202.873 39.0588 193.801C37.3312 184.729 42.0812 175.224 45.9692 171.768C49.8554 168.311 55.04 163.993 55.04 163.993C55.04 163.993 39.0588 167.016 36.0328 163.56C33.0104 160.105 27.8276 132.025 27.8276 129.433C27.8276 126.84 35.1708 126.84 39.0588 125.978C42.9468 125.114 48.5606 122.52 48.5606 122.52C48.5606 122.52 44.6726 118.201 39.4898 116.906C34.307 115.609 26.1 123.384 23.9396 123.384C21.7792 123.384 17.4602 99.6257 16.1636 94.0094C14.8688 88.3931 16.5964 79.7521 16.5964 79.7521C18.7568 78.4572 32.5794 76.2965 32.5794 76.2965L13.5722 73.2737C11.1352 70.021 6.405 43.8416 5.85368 40.7469C3.59272 51.9688 7.06229 67.7975 7.41248 79.0732L8.44509 80.6215C7.41248 95.0762 11.5411 107.981 15.1561 122.434L15.6733 122.948C16.187 125.015 16.187 126.561 16.7042 128.627C17.735 133.273 18.2522 139.466 19.2848 144.628C22.3808 156.502 29.0901 167.858 31.6707 179.215L32.7033 179.73C31.6707 195.732 36.5266 206.411 37.3473 221.541C37.9525 232.693 37.0277 244.27 35.6161 254.278C35.9268 254.152 36.2195 254.014 36.4656 253.849C39.0588 252.123 44.2416 249.096 44.2416 249.096L46.833 244.344ZM101.691 205.897L121.558 202.873C116.375 202.873 107.737 196.825 107.737 196.825L101.691 205.897ZM98.2335 206.759L101.691 198.553L93.4835 202.873L87.868 190.343C87.868 190.343 89.5955 202.009 87.868 205.463C86.1386 208.92 79.6609 210.648 79.6609 210.648L83.5471 211.079L98.2335 206.759ZM147.043 361.414C147.043 361.414 159.285 352.379 165.091 349.874C165.366 347.252 165.391 345.292 165.035 344.292C167.973 337.901 171.946 332.06 175.489 325.876C169.164 332.808 154.67 349.141 147.043 361.414ZM131.494 366.599C126.31 364.007 115.944 363.576 104.713 359.689C93.4817 355.801 85.2765 351.047 85.2765 351.047L88.7317 344.568L80.9575 348.888C80.9575 348.888 64.5418 346.727 57.2004 343.271C49.8572 339.814 40.3536 329.447 40.3536 329.447L40.2171 329.531C42.7205 336.601 46.5869 342.713 53.1543 346.44L52.3157 346.458C53.632 354.547 55.1513 362.707 56.4802 370.909C58.5095 363.718 62.7854 352.983 70.5901 354.935C79.2299 357.092 122.424 368.327 126.31 368.327C130.198 368.327 135.382 373.943 135.382 373.943C135.382 373.943 148.77 370.92 150.067 370.485C151.363 370.053 136.677 369.19 131.494 366.599V366.599ZM55.471 290.568C70.1574 285.382 82.2524 262.919 83.98 260.327C85.7075 257.735 89.1627 253.418 89.1627 253.418C115.511 244.775 128.901 232.247 128.901 232.247C111.192 240.457 88.7317 235.703 88.7317 235.703C83.1161 240.023 70.5901 243.047 70.5901 243.047L80.5248 253.418C77.9316 264.648 55.471 290.568 55.471 290.568V290.568ZM61.9504 216.264L57.2004 209.786L60.2246 219.72L61.9504 216.264Z" fill="url(#paint1_linear)"/>
<path d="M78.1471 353.71C80.5858 351.334 83.3101 349.22 85.4077 346.52C85.4723 346.434 85.361 346.314 85.2874 346.397C83.0569 348.983 80.4996 351.241 78.095 353.658C78.0627 353.692 78.113 353.742 78.1471 353.71ZM79.1653 292.265C79.6089 291.378 80.0291 290.42 80.7098 289.686C80.7205 289.673 80.7044 289.659 80.6936 289.668C80.0112 290.408 79.5891 291.363 79.142 292.252C79.1348 292.265 79.1581 292.276 79.1653 292.265ZM82.1249 278.248C78.7343 284.612 75.3599 290.683 70.8829 296.378C70.8685 296.39 70.8955 296.419 70.9098 296.398C75.4407 290.929 79.6771 284.964 82.3889 278.36C82.4535 278.205 82.2021 278.106 82.1249 278.248V278.248ZM88.9203 196.773C89.8398 200.484 90.0481 204.313 90.1451 208.121C90.1577 208.588 90.867 208.588 90.8724 208.121C90.9065 204.178 90.1433 200.504 89.0011 196.753C88.9832 196.701 88.9078 196.721 88.9203 196.773V196.773ZM104.99 157.423C101.172 156.322 97.3087 155.381 93.6128 153.89C93.5805 153.878 93.5572 153.933 93.5895 153.946C97.2584 155.514 101.093 156.577 104.93 157.646C105.072 157.685 105.133 157.464 104.99 157.423ZM91.5369 164.261C98.2874 166.229 105.198 166.403 112.185 166.362C112.255 166.362 112.255 166.256 112.185 166.254C105.209 166.208 98.3144 166.148 91.5459 164.227C91.5243 164.221 91.5135 164.255 91.5369 164.261V164.261ZM65.1201 158.467C61.9684 161.36 58.4234 162.966 54.363 164.178C54.2804 164.205 54.3145 164.327 54.3971 164.307C58.5024 163.402 62.3329 161.683 65.3176 158.664C65.4433 158.535 65.2529 158.346 65.1201 158.467ZM60.0719 166.874C60.1312 166.858 60.1061 166.765 60.045 166.777C52.2295 168.428 44.7893 171.885 38.362 176.602C38.3261 176.629 38.3602 176.691 38.3997 176.664C44.9097 171.95 52.278 168.776 60.0719 166.874V166.874ZM22.0109 131.809C23.0507 129.591 29.0236 128.835 31.1266 128.286C34.2388 127.472 37.5306 126.894 40.5045 125.629C40.6266 125.577 40.5386 125.383 40.4165 125.419C36.4656 126.554 32.4627 127.484 28.5065 128.593C26.7932 129.072 22.6053 129.721 21.72 131.639C21.6266 131.835 21.9193 132.007 22.0109 131.809ZM27.851 121.701C33.3534 119.258 41.0199 113.933 46.0841 119.891C46.129 119.945 46.2063 119.866 46.1596 119.813C43.0905 116.203 38.7032 116.604 34.5782 118.084C31.2236 119.284 23.0381 125.324 19.8308 121.888C19.7966 121.854 19.7356 121.899 19.7643 121.938C21.8223 124.629 25.344 122.817 27.851 121.701V121.701ZM33.296 76.6234C33.4522 76.5516 33.3391 76.2965 33.1792 76.3468C28.361 77.8717 23.356 78.177 18.4031 79.0409C16.5174 79.3678 14.7 79.8887 12.9509 80.6628C12.5504 80.8388 11.2556 81.9685 10.7689 81.9362C10.8246 81.9398 9.72016 78.5021 9.71657 78.4931C9.65192 78.1788 9.17422 78.3099 9.23887 78.6224C9.49209 79.8761 10.0685 80.9645 10.2697 82.2361C10.2876 82.3403 10.4098 82.4247 10.5103 82.4193C11.5932 82.3583 12.2128 81.5411 13.1682 81.0328C15.3842 79.8474 18.1067 79.4846 20.5545 79.0984C24.7621 78.4357 29.3541 78.3818 33.296 76.6234ZM128.777 56.4913C128.928 56.414 128.822 56.1536 128.662 56.2165C124.356 57.9084 119.466 55.719 115.414 54.1654C113.628 53.4793 111.86 52.7447 110.063 52.0819C108.906 51.6544 109.344 50.7133 109.095 49.6501C109.093 49.6429 109.082 49.6447 109.082 49.6501C109.271 50.3793 109.064 51.0474 108.466 51.6527C108.418 51.7209 108.472 51.8125 108.54 51.8341C114.08 53.6283 122.881 59.5787 128.777 56.4913ZM115.709 110.986C114.389 112.464 114.472 113.797 112.494 113.039C107.03 110.946 101.477 110.786 96.7322 106.918C96.6891 106.884 96.6299 106.941 96.673 106.977C101.893 111.568 108.49 111.821 114.723 114.334C114.838 114.379 114.965 114.242 114.924 114.131C114.335 112.495 115.316 112.128 115.906 111.142C115.98 111.018 115.806 110.878 115.709 110.986ZM121.475 102.465C121.685 102.456 121.685 102.149 121.475 102.138C112.952 101.677 104.352 101.456 97.2243 96.0964C97.2135 96.0874 97.1991 96.1072 97.2099 96.1162C103.641 101.357 113.39 102.805 121.475 102.465ZM136.837 59.4584C136.819 58.9519 136.036 58.9501 136.049 59.4584C136.334 69.1392 133.421 78.2488 132.171 87.7465C130.776 98.3289 130.991 109.204 131.369 119.853C131.388 120.406 132.211 120.406 132.227 119.853C132.541 109.569 131.807 99.3491 132.931 89.0845C134.025 79.1181 137.18 69.5864 136.837 59.4584V59.4584ZM107.198 46.0866C112.557 32.0144 116.472 4.23465 136.638 5.27996C141.472 5.52962 148.609 7.41908 149.995 12.6403C151.324 17.6531 149.609 23.5855 148.307 28.4223C145.593 38.4982 140.994 47.5666 136.896 57.0553C136.508 57.9497 137.747 58.4669 138.123 57.5725C142.618 46.8643 147.348 35.8077 149.857 24.4332C150.794 20.1891 151.626 15.1943 149.952 11.031C148.318 6.97007 141.968 5.61222 138.182 4.99258C116.891 1.49743 112.123 31.9246 106.85 45.9879C106.767 46.2088 107.118 46.3022 107.198 46.0866V46.0866ZM95.3405 92.0301C96.3246 85.5948 96.9442 79.1307 98.3126 72.7565C100.159 64.1515 103.707 56.3709 106.683 48.1503C106.755 47.9546 106.45 47.8324 106.353 48.012C99.0471 61.2167 96.1091 77.0778 94.9597 91.978C94.9436 92.1935 95.3063 92.2456 95.3405 92.0301ZM87.9883 147.726C88.9078 138.665 88.8054 129.554 89.9458 120.487C91.1238 111.147 93.313 102.108 95.8792 93.0682C95.9564 92.7952 95.5524 92.6892 95.459 92.9515C92.3414 101.795 90.4737 111.115 89.2202 120.39C88.0206 129.263 87.0114 138.785 87.868 147.726C87.8752 147.803 87.9811 147.803 87.9883 147.726ZM77.4126 162.675C79.2695 162.705 81.1785 162.583 82.7552 162.159C80.954 162.405 79.1976 162.617 77.4126 162.675ZM87.3382 161.146C87.0347 156.809 87.762 152.525 88.5019 148.26C88.5163 148.182 88.4103 148.15 88.387 148.225C87.2448 151.721 86.3702 154.97 86.2966 158.661C86.2571 160.561 84.7845 161.61 82.7552 162.159C84.1003 161.973 85.4687 161.766 86.8964 161.588C87.1227 161.561 87.3579 161.41 87.3382 161.146V161.146ZM77.4126 162.675C75.0205 162.637 72.7326 162.357 71.4163 162.17C71.4001 162.165 71.3929 162.188 71.4091 162.19C73.512 162.628 75.4785 162.741 77.4126 162.675ZM41.9465 80.1186C44.1392 94.911 51.0317 108.883 55.2914 123.136C57.3477 130.017 60.1599 136.601 62.561 143.369C63.6708 146.487 64.7824 149.605 65.9372 152.708C66.4687 154.136 67.1098 155.528 67.6288 156.962C68.1281 158.341 67.9934 159.677 68.7117 161.003C69.1032 161.73 70.3513 161.229 70.0604 160.435C69.6653 159.366 69.1625 158.655 68.4711 157.732C67.3613 156.249 66.9357 154.329 66.2981 152.61C65.1452 149.508 64.0695 146.377 62.9812 143.254C60.6215 136.476 58.1342 129.801 56.1786 122.892C55.2537 119.623 54.5982 116.243 53.4866 113.033C52.2421 109.439 50.2828 106.007 48.8982 102.446C46.0608 95.1481 43.9471 87.6746 42.0399 80.0934C42.0237 80.0306 41.9393 80.0593 41.9465 80.1186V80.1186ZM5.66694 43.9044C6.22186 38.0259 8.36611 32.2515 13.7447 29.2395C17.8428 26.9441 23.0345 25.6007 27.3984 27.8961C34.5908 31.6768 36.2196 42.9148 37.5467 50.0326C38.3135 54.1474 38.9026 58.2927 39.6892 62.4039C40.6787 67.6018 42.2213 72.6649 41.7472 78.0423C41.7202 78.3189 42.1872 78.3818 42.2339 78.107C42.8463 74.3406 43.2916 71.7704 41.8603 68.128C41.1133 66.2278 40.7002 64.2341 40.2962 62.2351C39.3246 57.4108 38.6512 52.5327 37.6886 47.7049C36.3166 40.8062 34.1652 29.9148 26.6478 26.9531C17.9056 23.5083 8.52592 30.5004 6.04946 38.6725C2.17762 51.4623 6.48765 66.1092 7.29758 79.0732C7.30656 79.2187 7.53104 79.2223 7.52745 79.0732C7.3784 67.3269 4.55711 55.6759 5.66694 43.9044V43.9044ZM8.65702 80.6215C8.65343 80.3898 8.27272 80.3233 8.2404 80.5658C7.36582 87.0711 8.29426 93.8352 9.46335 100.253C10.8066 107.613 12.4696 115.435 15.0448 122.463C15.0969 122.606 15.2873 122.547 15.2657 122.403C14.3175 115.81 12.0422 109.332 10.6612 102.805C9.09342 95.3905 8.77016 88.1578 8.65702 80.6215V80.6215ZM31.7228 179.199C29.4636 169.455 24.9345 160.478 21.5404 151.117C19.8595 146.485 18.9849 141.876 18.3061 137.013C17.638 132.205 17.6416 127.476 15.9984 122.86C15.8781 122.52 15.2998 122.547 15.334 122.948C15.6752 127.079 16.8981 130.547 17.4997 134.59C18.2773 139.834 18.9759 144.881 20.6604 149.93C23.9612 159.839 29.0883 169.053 31.6186 179.227C31.6348 179.296 31.739 179.267 31.7228 179.199V179.199ZM183.662 295.764C183.315 303.415 182.365 310.597 179.343 317.679C175.399 326.916 169.212 335.004 165.075 344.114C165.026 344.019 164.987 343.913 164.929 343.819C164.85 343.693 164.658 343.805 164.73 343.936C164.818 344.092 164.875 344.274 164.935 344.448C164.488 345.45 164.042 346.454 163.651 347.485C163.645 347.503 163.676 347.517 163.683 347.496C164.094 346.524 164.554 345.579 165.006 344.633C165.552 346.537 164.82 349.348 164.608 351.075C164.049 355.645 163.137 360.18 162.297 364.704C160.537 374.153 158.629 383.597 157.591 393.161C156.209 405.9 155.742 418.87 155.668 431.676C155.586 446.012 157.433 459.797 159.317 473.955C159.377 474.393 160.059 474.413 160.018 473.955C159.389 466.947 157.875 460.084 157.234 453.081C156.58 445.969 156.397 438.815 156.399 431.676C156.403 418.559 157.01 405.274 158.453 392.234C159.614 381.765 161.857 371.425 163.737 361.069C164.419 357.32 165.104 353.538 165.439 349.739C165.581 348.135 165.874 345.899 165.166 344.292C169.749 334.857 176.254 326.471 180.386 316.817C182.67 311.488 183.604 305.901 184.046 300.155C184.305 296.8 184.45 293.413 184.509 290.052C184.572 286.306 185.562 282.654 186.149 278.974C186.154 278.936 186.104 278.922 186.09 278.958C184.073 284.398 183.922 290.038 183.662 295.764V295.764ZM188.121 260.453C187.542 253.225 187.541 245.908 186.756 238.715C186.127 232.939 184.215 226.852 180.07 222.62C175.828 218.292 169.422 215.815 163.509 214.524C163.638 214.38 163.67 214.147 163.453 214.021C158.922 211.408 155.181 207.693 151.491 204.037C151.22 203.769 150.801 204.186 151.073 204.457C154.648 208.071 158.274 211.77 162.688 214.35C162.507 214.314 162.322 214.267 162.142 214.233C162.036 214.211 161.991 214.36 162.097 214.394C168.492 216.307 174.72 218.34 179.734 222.956C184.798 227.615 186.1 235.599 186.512 242.102C186.873 247.801 186.982 253.506 187.381 259.212C187.794 265.126 187.704 271.653 185.722 277.307C185.56 277.771 186.228 277.993 186.476 277.625C189.667 272.86 188.554 265.809 188.121 260.453V260.453ZM147.023 370.927C143.652 371.278 140.321 371.938 136.988 372.551C133.723 373.153 132.425 371.367 129.637 370.022C124.841 367.705 119.385 366.724 114.202 365.699C99.2285 362.743 84.8689 357.466 69.9976 354.051C69.976 354.048 69.9652 354.082 69.9886 354.087C84.4648 357.64 98.4922 362.938 113.132 365.803C118.934 366.94 124.931 368.025 130.23 370.764C132.443 371.906 133.197 373.826 135.668 373.541C139.459 373.108 143.383 372.246 147.07 371.274C147.258 371.224 147.224 370.911 147.023 370.927V370.927ZM113.1 339.399C115.301 329.472 114.696 318.92 113.243 308.936C111.88 299.56 110.271 289.661 105.746 281.208C105.647 281.02 105.37 281.187 105.464 281.37C109.695 289.89 111.604 299.629 112.715 309.006C113.904 319.035 113.99 329.33 112.814 339.358C112.796 339.523 113.064 339.555 113.1 339.399V339.399ZM182.636 268.023C182.667 268.018 182.667 267.977 182.636 267.973C172.942 267.208 163.706 268.544 154.355 265.031C154.354 265.031 154.354 265.031 154.354 265.031C155.7 263.321 157.022 261.595 158.274 259.864C158.784 259.156 159.174 258.423 159.475 257.669C167.754 255.149 175.677 249.849 180.77 242.823C180.925 242.611 180.576 242.345 180.409 242.544C177.538 245.948 174.591 248.942 170.924 251.514C167.361 254.01 163.36 255.656 159.5 257.611C160.063 256.182 160.3 254.662 160.353 253.026C160.361 252.829 160.081 252.807 160.019 252.981C159.118 255.674 158.96 257.87 157.076 260.171C154.31 263.553 151.733 267.08 148.993 270.484C143.695 277.061 138.094 282.528 130.686 286.702C130.535 286.79 130.638 287.054 130.807 286.992C138.697 283.958 144.259 277.314 149.51 271.001C150.979 269.232 152.457 267.427 153.908 265.6C153.939 265.661 153.971 265.724 154.048 265.762C162.792 269.677 173.328 268.866 182.636 268.023V268.023ZM124.769 288.067C128.52 284.042 121.179 280.359 118.178 279.012C116.646 278.326 115.167 278.076 113.771 279.118C112.988 279.701 112.433 280.641 111.92 281.451C111.189 282.597 111.923 283.211 112.687 284.267C112.699 284.285 112.731 284.267 112.717 284.249C111.377 282.282 112.642 280.409 114.315 279.195C115.766 278.141 117.819 279.319 119.139 279.987C121.615 281.237 127.425 284.443 124.376 287.676C124.13 287.931 124.525 288.331 124.769 288.067V288.067ZM129.833 288.044C130.061 287.909 129.864 287.597 129.634 287.699C121.337 291.379 112.697 288.93 109.628 279.865C109.619 279.836 109.574 279.847 109.581 279.876C111.841 288.782 121.976 292.559 129.833 288.044V288.044ZM100.416 290.645C101.455 302.271 99.4475 314.026 96.6622 325.284C96.6478 325.338 96.7287 325.357 96.743 325.305C101.421 309.502 102.632 292.647 98.582 276.928C101.287 277.516 103.887 277.422 106.615 276.982C108.384 276.697 108.547 273.519 108.597 272.127C108.597 272.093 108.549 272.093 108.547 272.127C108.436 274.62 107.726 276.159 105.04 276.465C102.876 276.709 100.742 276.609 98.6143 276.129C98.5155 276.107 98.4419 276.14 98.37 276.174C96.8813 270.644 94.7353 265.268 91.8494 260.128C98.8011 260.286 103.617 263.715 107.753 269.07C107.802 269.13 107.874 269.058 107.85 268.999C105.44 263.438 97.851 258.727 91.7649 259.873C91.7362 259.878 91.7452 259.909 91.7308 259.925C91.3016 259.169 90.8706 258.411 90.4091 257.664C90.4486 257.601 90.4917 257.536 90.5312 257.473C90.5545 257.434 90.5581 257.398 90.5725 257.36C103.149 253.353 115.885 247.992 126.938 240.761C127.247 240.558 127.554 240.348 127.861 240.139C125.879 244.024 124.097 248.024 121.958 251.835C120.585 254.285 119.087 256.658 117.517 258.985C116.24 260.882 114.175 262.526 114.274 264.918C114.436 268.74 114.073 272.792 111.991 276.091C109.389 280.213 103.964 279.779 99.7996 279.281C99.7151 279.27 99.7026 279.403 99.7798 279.423C107.373 281.535 113.414 278.633 114.935 270.734C115.301 268.826 115.337 266.852 115.33 264.918C115.326 263.618 117.099 261.723 117.738 260.74C118.76 259.174 119.708 257.556 120.662 255.954C123.774 250.722 126.915 245.028 129.124 239.265C135.993 234.379 141.474 228.307 141.032 219.165C140.969 217.843 140.727 216.507 140.346 215.203C146.953 213.17 153.513 215.381 160.185 214.513C160.386 214.488 160.481 214.159 160.239 214.121C153.969 213.144 146.312 212.586 140.159 214.619C140.131 214.529 140.098 214.441 140.068 214.353C142.036 210.91 143.329 207.169 144.794 203.501C144.836 203.395 144.672 203.334 144.618 203.426C142.763 206.538 141.134 209.748 139.536 212.994C138.879 211.488 138.038 210.071 137.027 208.841C135.607 207.111 134.007 205.694 132.177 204.425C131.173 203.728 128.24 201.694 126.906 202.059C123.548 202.984 119.924 202.88 116.46 203.261C113.214 203.616 109.993 204.164 106.784 204.762C103.758 205.328 100.735 205.992 97.7218 206.716C101.876 200.755 104.224 193.468 107.145 186.868C108.946 182.794 111.314 181.451 114.933 179.247C117.456 177.713 119.909 176.111 122.635 174.947C122.682 174.926 122.731 174.917 122.777 174.899C122.978 175.041 123.28 174.938 123.379 174.687C130.67 172.178 138.891 177.907 143.388 183.073C148.16 188.556 150.457 195.511 150.555 202.698C150.57 203.636 152.03 203.636 152.008 202.698C151.676 188.836 141.905 175.095 127.592 173.557C126.171 173.406 124.728 173.484 123.312 173.735C121.628 164.554 123.133 155.027 124.983 145.989C125.888 141.578 127.452 137.528 129.149 133.372C130.677 129.627 132.335 125.514 131.864 121.401C131.859 121.333 131.749 121.302 131.735 121.383C130.024 130.658 125.559 138.902 123.726 148.161C122.061 156.557 120.956 165.407 122.497 173.898C121.102 174.22 119.744 174.709 118.487 175.344C116.996 176.099 115.61 177.106 114.204 178.001C112.676 178.972 110.312 179.716 109.05 180.982C108.299 181.733 107.726 184.359 107.204 185.499C106.153 187.786 105.192 190.112 104.203 192.421C102.12 197.292 99.6882 201.967 97.4829 206.772C92.8604 207.886 88.2684 209.159 83.7806 210.63C83.6926 210.659 83.7286 210.797 83.8183 210.77C95.9564 207.611 107.956 204.505 120.52 203.557C126.173 203.131 130.564 204.812 134.698 208.705C138.031 211.839 139.662 216.262 139.725 220.767C139.829 228.063 135.28 233.174 129.86 237.249C129.878 237.188 129.901 237.134 129.921 237.077C129.991 236.869 129.673 236.741 129.566 236.928C129.402 237.221 129.257 237.521 129.095 237.812C127.107 239.256 125.027 240.567 123.034 241.802C112.728 248.188 101.682 252.581 90.3085 256.643C90.0409 256.491 89.6674 256.505 89.4537 256.845C78.4272 274.41 65.8564 292.737 46.6337 302.055C46.6175 302.064 46.6319 302.084 46.6462 302.077C65.4631 293.465 79.4563 275.041 90.2439 257.922C95.371 268.465 99.3596 278.837 100.416 290.645V290.645ZM84.754 256.719C84.8563 256.814 85.0108 256.66 84.9084 256.564C83.549 255.273 81.7801 254.499 80.2087 253.506C80.162 253.477 80.1189 253.551 80.1656 253.579C81.6813 254.616 83.4179 255.445 84.754 256.719V256.719ZM110.767 211.458C113.315 210.201 115.853 208.895 118.415 207.666C118.489 207.632 118.435 207.503 118.36 207.535C113.802 209.414 108.095 210.951 104.264 214.136C104.208 214.181 104.192 214.244 104.194 214.305C101.996 219.15 102.849 225.564 106.135 229.756C107.764 231.838 108.987 233.528 111.607 232.765C116.745 231.269 122.019 230.281 127.163 228.801C127.208 228.79 127.188 228.724 127.143 228.732C124.304 229.426 121.45 230.058 118.591 230.667C115.806 231.265 111.259 233.35 108.845 231.348C103.867 227.218 103.346 220.339 104.652 214.502C106.767 213.753 108.755 212.451 110.767 211.458V211.458ZM130.455 227.272C132.881 219.74 130.029 211.528 123.623 206.948C123.451 206.822 123.289 207.106 123.458 207.226C129.763 211.787 132.355 219.756 130.045 227.161C129.964 227.425 130.372 227.533 130.455 227.272ZM60.3862 219.725C65.6355 211.738 74.1424 212.965 82.3098 211.427C82.5164 211.386 82.5182 211.048 82.3098 211.005C75.2899 209.721 66.5873 210.966 61.2859 216.022C59.4219 213.087 57.6655 210.102 56.0116 207.038C55.9523 206.928 55.7925 207.025 55.8445 207.137C57.3315 210.355 58.7915 213.608 60.7867 216.555C59.4254 217.99 58.4754 219.562 57.714 221.225C53.3106 217.345 49.3328 213.058 46.138 208.112C46.1255 208.09 46.0949 208.108 46.1057 208.13C49.0904 213.25 52.7808 217.857 57.1986 221.821C57.2633 221.877 57.3333 221.902 57.4051 221.915C56.5808 223.844 55.9379 225.87 55.11 227.896C52.2654 234.864 48.6737 241.562 44.4643 247.805C44.3709 247.94 44.5918 248.064 44.6834 247.931C47.9769 243.126 50.8054 238.058 53.3968 232.847C55.225 229.173 57.0531 225.289 59.1812 221.715C57.8936 227.421 61.2123 232.458 65.1129 236.615C65.2493 236.759 65.4469 236.551 65.3266 236.403C61.8893 232.141 58.2779 227.121 59.368 221.406C59.7056 220.848 60.0306 220.271 60.3862 219.725V219.725ZM59.544 349.024C40.1166 343.108 37.861 321.376 35.4528 304.272C34.8925 300.297 34.3591 296.205 33.4378 292.304C32.1466 286.826 30.0132 281.867 29.5067 276.181C29.0488 271.034 29.8623 265.99 32.2939 261.41C33.1307 259.835 34.1759 258.421 35.3324 257.101C35.5228 257.11 35.7024 257.015 35.7401 256.766C35.7455 256.719 35.7509 256.667 35.7581 256.622C38.3854 253.752 41.5784 251.367 44.6439 249.017C44.7857 248.911 44.669 248.705 44.5038 248.78C41.2461 250.285 38.3944 252.309 36.0059 254.725C37.6347 242.463 38.389 229.821 37.2432 217.518C36.0616 204.802 32.4986 192.608 32.7572 179.73C32.759 179.659 32.6548 179.662 32.6494 179.73C31.6294 191.299 34.4291 202.402 36.3381 213.732C38.6673 227.592 37.0708 242.097 34.9266 255.876C30.9542 260.372 28.4885 266.066 27.9587 272.384C27.4972 277.878 29.0183 283.514 30.7764 288.658C31.5702 290.979 32.698 293.116 33.2259 295.523C33.7521 297.919 34.1472 300.345 34.5315 302.763C37.3492 320.458 38.9978 343.485 59.5386 349.051C59.553 349.053 59.5601 349.03 59.544 349.024V349.024ZM52.2098 346.486C55.5662 367.913 60.1869 389.305 59.3375 411.114C58.5221 432.058 56.7281 452.981 58.0498 473.955C58.0857 474.543 58.9908 474.55 58.9693 473.955C58.1899 452.961 59.0771 432.083 60.0755 411.114C61.1099 389.333 56.0798 367.752 52.4199 346.431C52.3965 346.292 52.19 346.352 52.2098 346.486" fill="#72352E"/>
<defs>
<linearGradient id="paint0_linear" x1="96.5382" y1="485.312" x2="96.5382" y2="5.00508" gradientUnits="userSpaceOnUse">
<stop stop-color="#FAB6A1"/>
<stop offset="1" stop-color="#FACBAA"/>
</linearGradient>
<linearGradient id="paint1_linear" x1="93.5626" y1="373.943" x2="93.5625" y2="9.19714" gradientUnits="userSpaceOnUse">
<stop stop-color="#CE6D64"/>
<stop offset="1" stop-color="#F6887D"/>
</linearGradient>
</defs>
</svg>
