<svg width="197" height="472" viewBox="0 0 197 472" fill="none" xmlns="http://www.w3.org/2000/svg">
<path d="M112.905 144.049C113.079 147.048 113.396 150.205 113.776 153.875C113.151 150.852 112.959 147.22 112.905 144.049ZM191.229 201.553C190.952 201.21 190.69 200.88 190.525 200.627C189.963 199.495 189.367 198.245 188.731 196.916C183.37 185.68 175.262 168.698 161.285 167.056C160.465 166.954 159.635 166.902 158.818 166.902C157.975 166.902 157.135 166.957 156.3 167.065C156.505 164.946 156.735 162.839 156.966 160.77C157.803 153.187 158.665 145.347 158.216 137.006L158.439 136.108C158.48 135.941 158.514 135.774 158.534 135.603C159.755 126.153 158.942 116.919 158.286 109.499C158.078 107.155 157.886 104.941 157.791 103.068C157.492 97.2681 157.932 91.1848 158.444 84.1443C158.978 76.7642 159.583 68.3981 159.34 59.0262C159.012 46.7537 158.32 21.2172 140.685 21.2172C136.865 21.2172 132.722 22.4906 128.017 25.1129C117.989 30.7022 118.203 41.5792 118.359 49.5232C118.381 50.556 118.401 51.5797 118.401 52.5783C118.401 54.7857 118.284 56.9841 118.158 59.3118C117.973 62.8285 117.779 66.4601 118.014 70.16V71.9938C115.714 87.5334 115.692 102.313 115.692 117.934L115.032 121.118C113.69 127.149 113.038 131.801 112.835 136.149C112.781 133.552 112.763 130.932 112.749 128.378C112.697 119.363 112.647 110.042 110.885 100.937C110.395 98.3278 109.576 95.8851 108.787 93.5233C107.613 90.0156 106.503 86.7001 106.693 83.424C106.737 82.7128 106.605 82.0033 106.311 81.3549C106.304 79.0542 106.264 76.7301 106.227 74.4275C106.14 69.2674 106.059 64.3929 106.309 60.1793C106.508 56.5728 106.508 52.9699 106.508 49.4819C106.508 46.1143 106.508 42.6371 106.699 39.1635C106.763 37.0657 107.004 34.553 107.257 31.8948C108.202 21.9859 109.27 10.7551 103.465 4.36826C100.835 1.47479 97.2078 0.00919541 92.6841 0.00919541C91.7485 0.00919541 90.7607 0.0738223 89.7443 0.201343C71.3351 2.50211 68.7904 19.4786 66.9353 31.875C66.5815 34.2333 66.2493 36.4622 65.8363 38.5744C65.786 38.8528 65.7573 39.1365 65.7573 39.4167V40.6273C65.4663 41.4714 65.1718 42.294 64.8809 43.1023C63.4801 46.989 62.0363 51.0032 61.8172 55.9999C61.6376 59.9746 61.9608 63.8666 62.2733 67.633C62.4224 69.4003 62.5732 71.173 62.6612 72.8829C62.7905 76.1841 62.8318 79.62 62.8749 82.9409C62.9593 89.7893 63.0509 96.8712 63.8501 103.804C63.9075 104.278 64.0386 104.745 64.2433 105.18C64.3026 107.037 64.3206 108.801 64.3367 110.518C64.4032 117.199 64.4625 123.51 67.1742 131.104C70.5719 140.622 72.1504 147.36 72.9711 156.061C71.8721 156.45 71.1035 156.553 70.6006 156.553C67.6627 156.553 66.5761 150.628 65.5489 143.468C65.2077 141.083 64.8863 138.833 64.4086 136.821C63.5807 132.816 62.6056 128.899 61.6592 125.109C59.901 118.047 58.2399 111.374 57.5161 104.393C57.4335 103.594 57.139 102.838 56.6577 102.202C55.5551 100.733 54.7362 99.1989 54.219 97.6417C54.1992 97.5914 54.1813 97.5393 54.1615 97.4873L52.9996 94.3926C52.9637 94.2867 52.9188 94.1825 52.8721 94.0819C50.516 89.0098 49.7276 82.7757 48.968 76.7445C48.2227 70.83 47.4487 64.7179 45.1949 59.3854C43.0776 54.36 41.6894 48.5731 40.2186 42.4449C39.6494 40.0705 39.0693 37.6548 38.4425 35.2517C36.4204 27.164 30.6881 22.3361 23.1115 22.3361C14.1646 22.3361 3.36798 29.8491 1.55777 41.0134C-0.397896 52.7579 1.64935 69.0285 6.53224 80.9562V81.2256C6.53224 87.4311 7.78753 93.3976 8.99973 99.1612C9.24396 100.327 9.48639 101.475 9.71267 102.613C10.6896 107.495 11.8659 111.281 12.9003 114.618C13.9904 118.137 14.9314 121.168 15.4845 124.854C15.8203 127.094 16.1202 129.344 16.4184 131.596C17.1546 137.17 17.9214 142.935 19.2683 148.609C20.1411 152.267 21.4772 155.662 22.7684 158.945C24.0614 162.23 25.2808 165.33 26.0171 168.63C26.6528 171.175 27.012 174.086 27.3604 176.9L27.4717 177.786C27.4933 177.96 27.5238 178.129 27.5669 178.3L27.7465 179.023C26.3781 189.579 28.5205 199.89 31.0275 210.349C32.9508 218.81 34.7664 226.797 34.4073 234.709C34.3247 236.42 34.1918 238.128 34.0589 239.831C33.5543 246.283 33.0299 252.946 35.1759 259.644V262.413C35.1759 262.498 35.1795 262.586 35.1849 262.672C35.5225 268.426 36.4276 274.026 37.3022 279.443C38.509 286.901 39.6457 293.948 39.432 301.395C39.0908 314.8 43.8426 324.896 48.8782 335.589C49.97 337.909 51.0996 340.303 52.1771 342.737C52.8865 344.386 53.5366 346.288 54.2244 348.301C55.1708 351.067 56.1477 353.921 57.4245 356.584L57.8071 358.587C59.7197 368.694 61.8908 380.147 65.188 390.588C69.6273 404.651 69.0329 422.193 68.46 439.154C68.2715 444.698 68.0793 450.435 68.0793 455.849C68.0793 457.15 68.6539 458.382 69.647 459.221C70.2684 459.74 85.2673 472 124.743 472C164.218 472 177.487 461.234 178.03 460.775C179.229 459.768 179.806 458.2 179.54 456.654C177.004 441.856 176.588 426.682 176.218 413.29C176.146 410.65 176.074 408.09 175.99 405.63C175.99 405.581 175.984 405.536 175.982 405.486C174.944 389.916 176.067 375.788 177.518 360.252C177.534 360.115 177.539 359.974 177.539 359.839C177.539 358.526 177.518 357.148 177.5 355.742C177.43 350.593 177.351 344.783 178.277 340.039C194.584 310.174 196.459 272.683 196.117 252.915C196.044 248.614 196.234 244.21 196.417 239.948C196.863 229.651 197.319 219.007 194.198 208.443C194.108 205.16 192.33 202.933 191.229 201.553" fill="#72352E"/>
<path d="M191.711 252.991C191.454 238.044 194.219 223.368 189.782 209.066C189.977 206.178 187.799 204.659 186.679 202.791C181.645 192.722 173.907 172.98 160.745 171.433C157.311 171.004 154.177 171.737 151.358 173.229C151.419 172.604 151.455 172.207 151.455 172.207C152.227 160.204 154.551 148.977 153.775 136.588L154.161 135.039C155.711 123.04 153.775 111.039 153.389 103.296C152.744 90.7842 155.391 76.9132 154.937 59.1608C154.551 44.8372 153.775 15.8002 130.165 28.9672C121.391 33.8543 122.809 44.0649 122.809 52.5801C122.809 58.3868 122.035 64.1953 122.422 70.0019V72.3242C120.1 87.81 120.099 102.523 120.099 118.395L119.333 122.072C116.21 136.133 116.98 142.019 118.42 155.944L118.938 156.98C118.449 159.417 117.034 161.851 115.138 163.856C114.236 163.435 113.397 162.927 112.744 162.139C108.1 157.108 108.486 145.106 108.486 138.527C108.1 126.136 108.874 113.749 106.552 101.749C105.39 95.5528 101.906 89.7443 102.294 83.1617L101.906 82.3912C101.906 74.6484 101.518 66.5176 101.906 59.935C102.294 52.968 101.906 45.9975 102.294 39.0287C102.68 26.2533 108.874 2.25061 90.2939 4.57293C72.3589 6.81801 72.8743 25.481 70.1644 39.4185V41.3528C68.4565 46.4824 66.4631 50.6583 66.2171 56.1955C65.971 61.7131 66.7774 67.2091 67.0665 72.7104C67.4544 82.7774 67.0665 93.2305 68.2284 103.296L68.6163 104.07C69.0024 113.749 68.1099 120.615 71.3263 129.622C75.1981 140.462 76.7443 147.815 77.5183 157.494L77.1322 159.042C61.2623 167.173 62.4225 147.43 60.1005 137.751C57.7784 126.524 54.2945 116.073 53.1326 104.846C51.9707 103.296 50.8106 101.358 50.0366 99.0372L48.8747 95.9408C43.8409 85.0997 45.3907 71.1622 41.1328 61.0988C38.0349 53.7421 36.4887 45.2234 34.1649 36.3202C29.907 19.2863 8.22938 27.4153 5.90736 41.7408C3.97144 53.356 6.29347 69.2278 10.9393 80.0689V81.2274C10.9393 88.1961 12.7262 95.1936 14.0371 101.749C15.9713 111.426 18.6812 116.455 19.8431 124.2C21.0122 132.002 21.7287 139.898 23.5587 147.587C25.1965 154.464 28.7666 160.684 30.2931 167.561C31.0671 170.657 31.455 174.14 31.8429 177.24L32.229 178.786C30.681 189.241 33.0048 199.691 35.3268 209.372C37.261 217.888 39.1969 226.405 38.8108 234.921C38.4229 243.055 36.8749 251.182 39.5848 258.927V262.409C40.357 275.573 44.2288 287.962 43.8409 301.51C43.4548 316.606 50.0366 327.061 56.2286 341C58.0694 345.293 59.436 350.779 61.6503 355.191L61.6485 355.192C63.7119 366.032 65.8974 378.2 69.3904 389.26C75.5824 408.877 72.4864 434.17 72.4864 455.849C72.4864 455.849 86.4221 467.593 124.744 467.593C163.067 467.593 175.194 457.401 175.194 457.401C172.1 439.333 172.098 420.749 171.585 405.779C170.55 390.293 171.584 376.357 173.131 359.839C173.131 353.237 172.642 345.146 174.097 338.492C188.101 313.225 192.172 279.643 191.711 252.991" fill="url(#paint0_linear)"/>
<path d="M169.133 219.643L168.162 224.178C168.162 224.178 180.799 218.347 185.657 210.895C185.657 210.895 170.432 219.643 169.133 219.643ZM175.291 199.878L170.432 215.43C170.432 215.43 177.559 206.034 178.206 203.118C178.852 200.203 175.291 199.878 175.291 199.878ZM167.19 227.418C167.19 227.418 162.331 241.997 160.712 244.912C159.094 247.829 152.938 261.761 141.274 263.706C141.274 263.706 148.402 267.593 156.824 256.903C165.247 246.211 168.812 235.519 170.106 235.194C171.403 234.87 181.122 234.224 181.122 234.224C181.122 234.224 168.162 229.364 167.19 227.418V227.418ZM138.683 192.426L153.262 189.187L141.599 188.862L138.683 192.426ZM122.161 166.616C122.161 166.616 130.799 165.75 132.529 164.454C132.529 164.454 127.344 158.839 127.344 150.633C127.344 142.421 135.12 126.869 135.12 126.869C135.12 126.869 129.073 124.712 129.073 122.551C129.073 120.391 132.096 116.937 132.096 116.937C132.096 116.937 126.913 112.617 127.344 107.863C127.777 103.111 128.208 75.0309 129.937 74.5999C131.665 74.1688 138.144 72.4392 138.144 72.4392C138.144 72.4392 132.529 69.8475 132.529 65.0969C132.529 60.3445 125.185 37.4482 131.232 32.2629C133.586 30.2459 136.325 27.9685 138.624 25.8079C136.19 26.1743 133.398 27.1621 130.165 28.9672C121.391 33.8543 122.809 44.0649 122.809 52.5801C122.809 58.3868 122.035 64.1953 122.422 70.002V72.3243C120.1 87.81 120.099 102.523 120.099 118.395L119.333 122.072C116.21 136.133 116.98 142.019 118.42 155.944L118.938 156.98C118.49 159.211 117.26 161.436 115.601 163.333L122.161 166.616ZM83.5038 274.616C83.5038 274.616 89.5487 270.294 90.4143 267.27C91.2781 264.249 103.804 248.695 109.42 240.487C115.035 232.279 115.251 238.328 125.616 234.872C135.984 231.415 152.18 222.558 152.18 222.558C152.18 222.558 114.82 218.887 112.659 216.294C112.659 216.294 101.861 221.479 97.1091 221.91C97.1091 221.91 94.085 227.095 93.2212 230.12C92.3574 233.141 91.278 262.952 83.5038 274.616V274.616ZM68.2284 103.296L68.6163 104.07C69.0024 113.749 68.1099 120.615 71.3263 129.622C75.1981 140.462 76.7443 147.815 77.5183 157.494L77.1322 159.042C76.1014 159.57 75.1442 159.976 74.2517 160.28C74.3864 160.4 74.5175 160.502 74.6486 160.567C77.2382 161.864 94.9488 159.27 94.9488 159.27C94.9488 159.27 85.878 154.52 86.3108 152.79C86.7418 151.062 86.7417 147.607 86.7417 147.607C86.7417 147.607 75.5123 112.184 75.5123 110.024C75.5123 107.861 83.2866 103.975 83.2866 103.975C83.2866 103.975 77.671 101.385 78.1038 100.088C78.5366 98.793 85.878 95.7666 85.878 95.7666C85.878 95.7666 74.6486 90.1521 74.2158 88.8553C73.783 87.5603 72.0572 67.6886 72.4882 62.5034C72.9192 57.3199 73.352 49.1119 76.3762 49.5447C79.3986 49.9776 84.5831 48.6808 84.5831 48.6808C84.5831 48.6808 77.2382 43.0645 76.3762 40.0399C75.5124 37.0153 76.3761 26.6484 78.9675 16.7108C80.5515 10.6365 84.0677 7.15567 86.5658 5.3596C72.4289 9.60731 72.6696 26.5281 70.1644 39.4185V41.3529C68.4565 46.4824 66.4631 50.6583 66.2171 56.1956C65.971 61.7131 66.7774 67.2091 67.0665 72.7104C67.4544 82.7774 67.0665 93.2305 68.2284 103.296V103.296ZM40.524 201.607C37.9326 189.08 40.524 180.006 42.2534 175.686C43.981 171.367 51.7552 167.047 51.7552 167.047L39.2274 166.181C39.2274 166.181 30.1584 139.4 30.5894 134.646C31.0222 129.894 38.3654 128.599 38.3654 128.599C38.3654 128.599 31.886 124.71 30.5894 121.689C29.2946 118.663 40.524 115.638 40.524 115.638C37.9326 115.205 28.8618 117.368 28.8618 117.368C28.8618 117.368 22.8152 108.296 20.222 99.224C17.6324 90.1521 17.6324 78.0555 17.6324 78.0555C19.36 78.0555 28.8618 75.462 28.8618 75.462L18.9272 74.5999C18.9272 74.5999 9.85639 61.2084 9.42359 50.4068C8.99259 39.6071 12.8806 31.3991 12.8806 31.3991L12.2664 31.0147C9.06443 33.6872 6.60594 37.4284 5.90736 41.7408C3.97144 53.356 6.29347 69.2279 10.9393 80.0689V81.2274C10.9393 88.1961 12.7262 95.1936 14.0371 101.749C15.9713 111.427 18.6812 116.456 19.8431 124.2C21.0122 132.002 21.7287 139.898 23.5587 147.587C25.1965 154.464 28.7666 160.684 30.2931 167.561C31.0671 170.657 31.455 174.14 31.8429 177.24L32.229 178.786C30.681 189.241 33.0048 199.691 35.3268 209.372C37.261 217.889 39.1969 226.405 38.8108 234.921C38.4264 242.954 36.9197 250.985 39.4932 258.643C41.3465 255.947 43.1154 253.447 43.1154 253.447L43.9792 248.262C43.5482 243.078 48.731 223.208 48.731 223.208C48.731 223.208 43.1154 214.135 40.524 201.607V201.607ZM75.0796 214.566L84.5831 201.607C79.3985 205.927 62.9846 208.087 62.9846 208.087C64.714 210.246 75.0796 214.566 75.0796 214.566V214.566ZM71.1916 220.615L56.938 211.11C63.4174 217.157 64.2812 229.687 64.2812 229.687L71.1916 220.615ZM125.078 343.085C118.065 341.77 115.211 338.236 114.091 336.084C117.285 331.993 121.389 326.817 122.161 326.236C123.458 325.265 123.458 310.037 124.106 299.669C124.753 289.3 128.641 270.51 130.909 268.241C133.175 265.975 139.654 263.706 139.654 263.706C130.584 263.058 127.021 256.576 127.021 256.576L129.495 245.025C129.497 245.025 129.504 245.022 129.504 245.022L128.858 250.422C132.744 241.135 146.134 236.598 156.499 227.309C166.869 218.021 167.515 207.439 167.515 207.439C161.684 225.152 143.975 230.12 143.975 230.12C127.994 239.623 117.411 238.326 117.411 238.326L114.387 238.759C114.387 238.759 110.283 243.727 104.668 251.935C99.0523 260.141 94.3005 266.19 94.3005 266.19L93.8695 268.135C95.3834 267.052 106.18 258.198 108.339 256.905C109.987 255.915 113.39 258.693 114.913 260.067C117.632 265.217 120.787 272.527 121.19 277.96C121.836 286.709 119.57 314.25 118.598 321.054C118.07 324.748 115.631 330.351 113.512 334.703C113.444 334.477 113.415 334.337 113.415 334.337C113.415 334.337 87.8229 345.028 73.5675 342.76C59.3139 340.493 50.8914 327.533 50.5663 326.561L49.8121 327.087C51.7803 331.529 54.0269 336.043 56.2286 341C57.5773 344.143 58.6745 347.926 60.0322 351.461C61.6054 342.908 84.0696 347.613 93.3289 346.972C102.723 346.326 147.105 350.861 161.037 352.155C165.455 352.568 169.543 353.208 173.07 353.889C173.012 348.734 173.057 343.247 174.097 338.492C175.361 336.215 176.514 333.851 177.62 331.447C167.662 338.685 134.854 344.917 125.078 343.085V343.085ZM136.415 193.397C140.479 182.774 147.687 176.013 151.374 173.073C151.424 172.547 151.455 172.207 151.455 172.207C151.643 169.285 151.924 166.41 152.229 163.552L145.918 165.319C145.918 165.319 137.28 183.463 130.368 188.647C123.458 193.83 107.908 193.397 107.908 193.397C121.728 197.72 136.415 193.397 136.415 193.397Z" fill="url(#paint1_linear)"/>
<path d="M148.389 164.96C148.535 164.93 148.47 164.719 148.328 164.741C140.27 165.885 132.457 165.086 125.144 161.345C125.117 161.332 125.092 161.372 125.119 161.386C132.207 165.264 140.448 166.706 148.389 164.96ZM128.974 171.458C129.669 172.121 130.451 172.583 131.307 173.012C131.347 173.033 131.386 172.969 131.341 172.947C130.496 172.523 129.718 172.065 129.027 171.406C128.992 171.376 128.942 171.428 128.974 171.458V171.458ZM150.252 70.6234C143.447 72.3009 132.679 76.3043 126.397 71.4424C126.308 71.3723 126.187 71.3921 126.144 71.5088C125.913 72.159 125.69 72.8146 125.476 73.4737C125.458 73.5258 125.539 73.5492 125.559 73.4971C126.414 71.137 128.28 73.1181 130 73.5402C132.378 74.1185 134.949 73.9569 137.361 73.7791C141.641 73.4594 146.435 72.6763 150.37 70.9126C150.539 70.8353 150.417 70.5821 150.252 70.6234V70.6234ZM144.137 118.713C143.823 118.532 143.492 118.395 143.169 118.234C143.469 118.419 143.761 118.616 144.045 118.833C144.133 118.907 144.232 118.771 144.137 118.713V118.713ZM138.62 116.63C140.202 116.975 141.725 117.506 143.169 118.234C141.809 117.397 140.26 116.892 138.62 116.63ZM138.62 116.63C134.38 115.71 129.82 116.118 125.823 117.865C125.652 117.943 125.774 118.225 125.948 118.165C129.562 116.946 134.382 115.963 138.62 116.63V116.63ZM149.628 127.185C147.276 124.942 143.781 126.072 140.951 126.641C134.775 127.884 127.593 127.262 122.161 123.983C122.05 123.915 121.874 123.949 121.814 124.073C121.168 125.414 121.301 125.114 120.755 126.492C120.705 126.625 120.908 126.698 120.978 126.583C122.497 124.119 124.135 125.741 126.256 126.508C128.524 127.327 130.984 127.555 133.369 127.688C135.542 127.81 137.79 127.679 139.947 127.399C142.912 127.006 146.705 125.192 149.406 127.41C149.56 127.534 149.779 127.329 149.628 127.185V127.185ZM122.398 70.0019C122.4 70.0325 122.447 70.0343 122.447 70.0019C122.436 61.9088 123.018 53.8373 123.014 45.737C123.012 41.9347 123.341 38.1379 124.961 34.6571C126.81 30.686 130.889 28.5953 134.77 27.0795C140.051 25.0122 145.496 25.6139 149.038 30.2998C151.913 34.0931 152.888 39.2388 153.579 43.8404C155.546 56.9678 154.599 70.6557 153.649 83.8173C153.107 91.3464 152.642 98.8486 153.227 106.389C153.973 115.997 154.862 125.258 153.398 134.829C153.224 135.973 154.862 136.187 154.955 135.039C155.761 125.145 154.623 115.186 153.886 105.316C153.224 96.4688 154.202 87.5873 154.804 78.7614C155.715 65.325 156.485 50.4068 152.782 37.2398C151.642 33.1879 149.677 29.1072 146.033 26.7831C141.996 24.2093 136.871 25.5905 132.832 27.3345C126.362 30.122 123.359 34.9157 122.61 41.8C122.222 45.3706 122.5 49.0023 122.522 52.5801C122.556 58.4065 121.813 64.1809 122.398 70.0019V70.0019ZM120.189 118.395C120.798 110.719 120.378 102.911 120.653 95.2133C120.929 87.5298 121.983 79.9719 122.585 72.3242C122.597 72.141 122.301 72.1033 122.265 72.2811C120.769 79.2786 120.511 86.6623 120.184 93.7891C119.812 101.902 119.367 110.295 120.008 118.395C120.017 118.51 120.18 118.51 120.189 118.395ZM118.451 155.944C118.093 150.107 117.406 144.287 117.481 138.432C117.524 135.285 117.465 131.241 118.731 128.354C119.92 125.641 120.378 121.734 120.39 118.78C120.39 118.503 119.979 118.37 119.848 118.632C117.086 124.166 117.061 131.368 116.871 137.457C116.682 143.634 117.497 149.855 118.392 155.955C118.397 155.989 118.454 155.98 118.451 155.944V155.944ZM190.286 209.057C190.674 206.232 188.911 204.47 187.115 202.353C184.611 199.407 183.283 194.978 181.519 191.542C178.003 184.694 173.797 177.82 167.346 173.378C161.82 169.571 156.487 169.948 151.782 172.518C151.832 172.466 151.888 172.421 151.902 172.331C153.694 160.784 155.264 148.255 154.206 136.588C154.156 136.049 153.337 136.027 153.348 136.588C153.43 142.364 153.157 148.093 152.626 153.839C152.065 159.919 150.891 166.093 150.988 172.207C150.991 172.527 151.315 172.676 151.579 172.633C144.291 176.726 138.55 186.064 136.011 193.263C129.041 194.789 122.048 195.973 114.681 195.423C114.663 195.42 114.663 195.447 114.681 195.448C123.921 196.136 133.338 194.453 142.316 192.37C144.58 191.844 146.802 191.168 149.068 190.644C151.394 190.11 153.91 190.759 156.214 191.298C163.277 192.948 167.018 199.942 167.314 206.661C167.314 206.677 167.335 206.677 167.335 206.661C167.168 202.198 165.701 197.367 162.706 193.95C161.325 192.375 159.703 190.944 157.749 190.119C154.79 188.871 153.944 189.435 151.166 189.947C146.082 190.877 141.118 192.142 136.136 193.236C138.959 186.908 142.251 180.848 147.479 176.164C153.208 171.024 162.16 170.86 168.393 175.063C174.399 179.11 178.216 186.455 181.436 192.718C182.817 195.404 184.091 198.141 185.396 200.858C185.878 201.855 186.03 202.882 186.547 203.859C187.63 205.907 188.918 207.035 189.315 209.497C189.327 209.569 189.378 209.612 189.414 209.663C192.793 223.076 191.33 236.374 191.179 250.069C191.057 260.998 191.001 271.781 189.787 282.669C187.704 301.373 183.026 320.861 174.16 337.762C173.984 337.746 173.808 337.815 173.748 338.048C173.675 338.333 173.617 338.62 173.547 338.906C171.972 341.828 170.281 344.68 168.438 347.424C168.399 347.482 168.49 347.534 168.53 347.477C170.2 345.248 171.751 342.952 173.204 340.596C171.698 348.922 172.998 357.353 172.267 365.739C171.381 375.834 170.767 385.954 170.889 396.094C171.139 416.515 171.723 437.26 175.185 457.405C175.187 457.416 175.207 457.41 175.203 457.396C172.03 437.724 172.012 417.343 171.514 397.463C171.272 387.835 171.87 378.207 172.667 368.618C173.091 363.555 173.853 358.677 173.808 353.594C173.759 348.465 173.739 343.353 174.574 338.272C174.578 338.27 174.573 338.27 174.574 338.266C184.109 321.797 188.823 302.692 190.734 283.86C191.883 272.57 192.202 261.405 192.213 250.069C192.229 236.463 194.586 222.275 190.286 209.057ZM68.1296 382.32C65.8543 373.998 64.5307 365.403 62.2015 357.1C62.5697 357.628 62.9288 358.167 63.3455 358.659C63.5969 358.961 64.0638 358.573 63.8753 358.249C60.2082 351.882 58.8379 344.637 55.8317 337.974C52.3172 330.195 48.3125 322.616 46.0192 314.351C43.6864 305.95 44.5699 297.325 43.5571 288.74C42.5209 279.923 40.5742 271.241 39.6439 262.409C39.6368 262.334 39.5218 262.329 39.5236 262.409C39.7804 271.284 41.6104 279.957 42.722 288.74C43.8175 297.406 42.7777 306.172 44.5718 314.752C46.2491 322.768 50.2556 330.265 53.7126 337.613C56.5105 343.558 58.0962 350.887 61.7651 356.506C62.5212 364.387 64.2183 372.273 66.0608 379.949C68.1009 388.447 70.8431 396.479 71.8183 405.216C72.7557 413.628 72.6767 422.144 72.4881 430.597C72.3031 438.949 71.3603 447.51 72.0445 455.849C72.093 456.419 72.8796 456.417 72.9281 455.849C73.659 447.501 73.553 438.976 73.7829 430.597C74.0146 422.128 74.0271 413.656 73.2226 405.216C72.4683 397.307 70.2164 389.945 68.1296 382.32V382.32ZM125.557 368.344C111.418 366.31 97.0678 369.367 82.9435 366.914C82.913 366.907 82.9022 366.953 82.9327 366.959C96.9582 369.723 111.364 367.079 125.518 368.633C125.679 368.649 125.719 368.368 125.557 368.344ZM137.402 360.529C132.335 358.429 126.424 357.475 120.854 356.951C126.484 357.547 132.096 358.643 137.402 360.529ZM114.681 356.494C116.639 356.612 118.724 356.751 120.854 356.951C118.792 356.734 116.727 356.577 114.681 356.471C114.663 356.469 114.663 356.494 114.681 356.494ZM149.219 365.593C145.139 365.798 142.188 362.325 138.629 360.959C138.221 360.804 137.81 360.676 137.402 360.529C138.958 361.176 140.432 361.923 141.795 362.805C144.548 364.584 146.929 365.849 150.286 365.705C153.709 365.56 157.065 363.898 160.377 363.148C160.486 363.122 160.441 362.964 160.332 362.984C156.58 363.735 153.078 365.403 149.219 365.593V365.593ZM94.5752 345.738C94.6811 345.717 94.6613 345.535 94.5518 345.546C84.4699 346.688 74.0505 347.439 64.7714 342.5C64.7103 342.468 64.6564 342.559 64.7175 342.593C73.4974 347.726 84.8525 347.755 94.5752 345.738ZM39.8936 258.841C38.3186 252.199 38.4623 245.974 38.9975 239.224C39.5201 232.616 39.2022 226.273 38.0995 219.742C37.0184 213.352 35.3106 207.087 34.0122 200.743C32.5001 193.358 32.466 186.26 32.3259 178.786C32.3241 178.679 32.1661 178.653 32.1356 178.759C28.6319 191.009 33.8703 205.088 36.4168 217.039C37.9936 224.442 38.5916 231.684 38.0546 239.224C37.5877 245.785 36.7617 252.747 39.274 259.01C39.4249 259.387 39.9906 259.25 39.8936 258.841V258.841ZM65.9063 163.944C60.4883 164.441 55.187 165.657 50.4047 168.303C50.3633 168.326 50.3993 168.387 50.4406 168.367C55.4294 165.996 60.5907 165.258 65.9423 164.202C66.0895 164.177 66.0554 163.929 65.9063 163.944V163.944ZM24.4099 128.283C24.2967 128.505 31.0006 129.382 31.5393 129.349C37.9882 128.961 43.5338 124.619 50.0365 124.279C50.1371 124.274 50.1371 124.119 50.0365 124.123C41.544 124.36 32.9042 132.433 24.5697 127.543C24.4924 127.5 24.3901 127.526 24.347 127.602C24.1979 127.859 23.1833 130.291 22.9229 130.337C22.8564 130.348 22.8708 130.463 22.939 130.456C23.5783 130.386 24.1746 128.746 24.4099 128.283V128.283ZM22.6409 121.542C25.0761 117.943 30.7635 117.116 34.7252 116.441C39.2507 115.667 43.9091 115.372 48.4867 115.744C48.5657 115.75 48.5621 115.633 48.4867 115.624C43.6128 115.02 38.518 115.532 33.7051 116.387C29.9087 117.064 24.9127 118.135 22.4649 121.44C22.3841 121.542 22.5673 121.653 22.6409 121.542V121.542ZM32.2774 177.24C31.8338 169.393 29.2945 162.237 26.4571 154.992C23.3072 146.953 22.2045 138.463 21.0588 129.953C18.8427 113.519 11.5911 97.9613 11.1637 81.2274C11.1565 80.94 10.713 80.94 10.7166 81.2274C10.7974 89.5252 12.6183 97.8859 14.5453 105.925C16.2693 113.113 18.8481 119.873 19.87 127.239C21.0588 135.812 21.8274 144.528 24.6433 152.765C25.9255 156.506 27.5238 160.129 28.772 163.884C30.232 168.281 30.5534 172.838 31.4226 177.355C31.516 177.838 32.3043 177.728 32.2774 177.24V177.24ZM37.2932 72.8271C37.4387 72.7769 37.3794 72.5452 37.2285 72.5954C30.399 74.9034 22.6266 79.275 15.2241 78.0322C15.1684 78.0214 15.1164 78.0483 15.0984 78.104C14.6872 79.3846 14.7949 78.7596 14.7428 80.0689C14.741 80.1533 14.8703 80.1515 14.8757 80.0689C15.0248 77.5975 18.0562 78.6015 19.5467 78.4758C21.2923 78.3303 23.0145 77.8651 24.6954 77.4107C29.0144 76.2433 33.0802 74.3035 37.2932 72.8271V72.8271ZM11.2732 79.9737C6.36881 68.2095 4.24253 54.4803 6.2844 41.8449C7.68515 33.1789 17.1008 25.5492 25.9758 27.6147C31.5178 28.8989 33.2292 34.3913 34.4271 39.2388C36.1475 46.1968 37.3327 53.417 39.811 60.1595C40.7843 62.8033 42.1653 65.0753 42.8154 67.87C43.6523 71.4765 44.0509 75.1944 44.5394 78.8602C45.3224 84.7387 46.3029 90.5633 48.7596 96.0054C48.8297 96.1635 49.056 96.027 48.9895 95.8743C45.8073 88.4368 45.3978 80.4335 44.2557 72.5254C43.7116 68.7447 42.2102 64.8688 41.9444 61.0988C41.86 59.8829 41.0034 58.4334 40.5491 57.3145C39.7266 55.2867 39.0424 53.1925 38.4246 51.0929C35.8045 42.2203 35.6626 26.9034 23.458 26.2389C15.3983 25.8024 7.96353 32.7137 5.85341 40.0686C4.12402 46.0998 4.74357 53.2069 5.39007 59.3458C6.13894 66.4655 7.85757 73.5474 10.607 80.1587C10.7758 80.5628 11.4439 80.385 11.2732 79.9737V79.9737ZM53.5815 110.735C54.4507 115.996 55.7958 121.172 57.0978 126.332C58.872 133.378 60.2979 140.325 61.4042 147.492C62.0453 151.662 62.7349 156.244 65.8094 159.396C68.9683 162.632 73.799 160.978 77.1752 159.116C77.2722 159.062 77.186 158.929 77.089 158.97C71.398 161.406 66.4002 161.273 63.8932 154.978C62.2895 150.947 61.828 146.484 61.1922 142.231C60.165 135.372 58.2956 128.647 56.6667 121.917C55.6413 117.675 54.7344 113.415 54.0502 109.104C53.7215 107.049 54.3573 105.302 53.2079 103.655C52.1484 102.135 51.3133 100.431 50.4172 98.8145C50.1622 98.3583 49.5139 98.6798 49.6091 99.1557C49.9539 100.84 50.4621 102.073 51.3169 103.558C52.7392 106.026 53.1253 107.967 53.5815 110.735V110.735ZM85.648 158.291C93.1654 159.186 101.004 160.249 108.518 158.773C108.651 158.744 108.622 158.523 108.486 158.536C100.809 159.202 93.3199 158.864 85.648 158.246C85.6157 158.243 85.6175 158.288 85.648 158.291V158.291ZM86.7507 147.292C84.8453 147.452 82.992 147.888 81.1836 148.492C79.4524 149.074 78.6029 150.187 77.5811 148.167C77.538 148.082 77.4195 148.158 77.4554 148.239C77.6817 148.889 77.9079 149.535 78.1342 150.184C78.1576 150.286 78.2887 150.333 78.3767 150.281C84.8579 146.38 92.404 147.736 99.5837 147.551C99.7382 147.545 99.7382 147.314 99.5837 147.307C95.3132 147.132 91.014 146.942 86.7507 147.292V147.292ZM72.2259 97.0992C72.2205 95.3858 72.9155 95.5241 74.3234 95.7019C75.8733 95.8905 77.4554 95.8456 79.0106 95.8043C82.5269 95.7109 86.0233 95.1361 89.518 94.8092C89.5575 94.8074 89.5575 94.7464 89.518 94.75C83.6259 95.1254 77.9977 95.6624 72.0984 95.0625C72.0427 95.0553 71.9996 95.1128 71.9978 95.1648C71.9763 95.8114 71.9673 96.4562 71.9727 97.0992C71.9709 97.2645 72.2277 97.2645 72.2259 97.0992ZM71.3262 103.736C79.2656 104.397 88.0095 105.918 95.7299 103.364C95.8197 103.335 95.7837 103.204 95.6922 103.226C91.1577 104.31 86.7543 104.425 82.1318 104.093C78.5544 103.84 74.8837 103.086 71.3118 103.632C71.2454 103.641 71.2687 103.732 71.3262 103.736V103.736ZM102.251 83.1617C101.952 86.7198 102.735 89.8898 103.79 93.279C104.422 95.3085 105.122 97.3148 105.709 99.3605C106.406 101.787 106.404 105.006 106.715 107.538C107.927 117.375 107.834 127.147 108.06 137.038C108.213 143.617 107.798 150.236 109.43 156.678C110.062 159.177 111.235 161.4 113.06 163.218C115.172 165.323 118.704 164.824 120.784 166.875C120.9 166.991 121.078 166.815 120.963 166.697C119.46 165.172 117.522 164.314 115.59 163.482C117.248 161.668 118.709 159.448 119.096 157.023C119.126 156.819 118.839 156.729 118.781 156.934C118.07 159.403 117.009 161.476 115.398 163.398C115.385 163.392 115.376 163.387 115.366 163.383C111.898 161.887 110.664 157.794 109.895 154.448C108.383 147.863 108.874 140.774 108.778 134.066C108.655 125.269 109.183 116.288 108.175 107.538C107.211 99.1611 102.687 91.6643 102.335 83.1617C102.333 83.1079 102.254 83.1079 102.251 83.1617V83.1617ZM70.1984 39.4274C72.2223 30.3411 72.1738 20.3011 77.5201 12.3176C82.8465 4.36278 98.4182 0.576667 102.191 11.7321C104.844 19.5881 102.59 28.9617 102.033 36.9974C100.988 52.0556 101.588 67.3078 101.586 82.3912C101.586 82.8043 102.229 82.8043 102.227 82.3912C102.13 66.3541 101.59 50.0602 102.983 34.0715C103.693 25.9641 106.198 14.665 100.871 7.55975C95.588 0.513764 83.3152 4.71477 78.4575 10.0311C71.6333 17.4974 71.5938 29.9945 70.1301 39.4077C70.123 39.4508 70.1894 39.4723 70.1984 39.4274V39.4274ZM68.0901 103.333C68.1116 103.497 68.3864 103.456 68.3738 103.296C67.6267 93.103 67.7399 82.9193 67.3574 72.7104C67.1491 67.1857 66.3032 61.7436 66.463 56.1955C66.5672 52.668 67.8548 49.586 69.0311 46.4213C70.2038 49.2268 75.5734 48.8011 77.881 48.7706C83.247 48.7059 88.8123 47.4577 94.1639 48.1222C94.4045 48.1491 94.4009 47.7755 94.1639 47.7468C90.2256 47.2726 86.0808 48.1024 82.1443 48.3305C79.3339 48.4922 70.3187 49.7584 69.1604 46.0639C69.7117 44.5696 70.2272 43.0573 70.5666 41.4624C70.6599 41.0223 70.0188 40.6955 69.8033 41.1445C65.3874 50.3062 65.8363 59.8074 66.587 69.7127C67.4364 80.9005 66.4972 92.1906 68.0901 103.333V103.333ZM68.6881 104.07C68.6791 103.976 68.5462 103.975 68.5426 104.07C68.2643 112.745 68.1727 121.405 70.9868 129.714C74.0774 138.84 76.4102 147.871 77.2597 157.494C77.2884 157.824 77.8056 157.832 77.7804 157.494C77.1178 149.288 75.5931 141.45 73.0628 133.603C71.407 128.475 69.8069 123.728 69.34 118.313C68.9305 113.573 69.164 108.806 68.6881 104.07ZM181.655 234.123C176.417 232.816 171.732 231.196 167.438 227.839C167.274 227.713 167.062 227.909 167.208 228.069C170.685 231.959 176.791 233.121 181.639 234.172C181.672 234.179 181.684 234.134 181.655 234.123ZM135.623 246.135C138.979 244.217 144.613 246.331 145.502 250.092C145.881 251.701 144.446 259.552 142.009 258.738C138.061 257.416 134.085 256.326 129.962 255.841C131.165 252.274 132.105 248.149 135.623 246.135V246.135ZM128.615 255.985C133.538 256.502 138.193 258.007 142.871 259.554C142.977 259.591 143.097 259.532 143.153 259.441C145.658 255.279 148.228 248.686 142.492 246.013C135.102 242.575 130.946 249.505 129.601 255.78C129.599 255.787 129.605 255.793 129.605 255.798C129.273 255.76 128.948 255.698 128.615 255.671C128.411 255.654 128.418 255.963 128.615 255.985V255.985ZM169.419 220.18C174.639 216.807 181.022 214.902 185.578 210.595C185.648 210.525 185.552 210.404 185.475 210.46C180.424 213.93 174.759 216.195 169.607 219.444C170.148 217.368 170.728 215.324 171.525 213.31C172.658 210.446 174.424 207.453 174.894 204.396C174.934 204.154 174.634 204.007 174.486 204.226C171.9 208.046 170.552 213.185 168.765 217.434C168.066 219.106 166.024 223.613 166.49 225.498C167.082 227.941 164.599 232.749 163.812 235.066C162.605 238.617 161.215 242.103 159.624 245.496C156.808 251.511 153.087 257.79 147.353 261.42C140.279 265.901 133.069 261.993 127.121 257.671C127.019 257.594 126.904 257.756 126.988 257.84C131.503 262.338 137.828 265.439 144.227 263.588C150.275 261.838 154.551 255.91 157.591 250.778C161.512 244.167 164.177 236.754 166.464 229.448C167.38 226.524 168.49 223.808 169.253 220.811C169.307 220.601 169.361 220.392 169.419 220.18V220.18ZM117.616 323.1C115.459 330.703 110.26 336.959 107.784 344.396C107.669 344.75 108.206 344.971 108.382 344.646C112.257 337.509 116.402 329.963 118.663 322.134C121.423 312.584 121.1 302.054 121.664 292.219C122.527 277.073 119.401 259.43 107.159 249.196C109.418 245.805 111.813 242.523 114.721 239.61C115.27 239.057 114.423 238.209 113.864 238.753C105.709 246.712 102.457 258.293 93.5497 265.666C93.4689 265.736 93.4348 265.879 93.4671 265.978C94.6614 269.491 85.5546 275.889 83.1626 277.863C78.8633 281.406 74.4887 284.788 70.9006 289.083C70.8539 289.139 70.9275 289.212 70.9778 289.16C75.0489 284.792 79.7612 281.166 84.364 277.385C86.5118 275.625 88.5698 273.773 90.5183 271.798C91.3301 270.971 94.3812 268.356 94.3812 267.056C94.3812 265.107 96.9043 263.552 98.1902 262.127C100.026 260.093 101.563 257.783 103.062 255.495C104.366 253.499 105.638 251.489 106.95 249.512C112.507 255.315 116.504 261.524 118.86 269.308C121.206 277.067 121.511 285.343 120.926 293.379C120.205 303.25 120.335 313.515 117.616 323.1V323.1ZM159.064 210.602C160.958 205.397 161.352 199.186 156.727 195.335C154.368 193.372 152.274 193.234 149.54 194.038C144.914 195.405 140.34 196.569 135.567 197.316C135.508 197.329 135.524 197.426 135.583 197.426C138.259 197.352 140.805 196.855 143.411 196.244C147.262 195.348 150.902 193.105 154.784 194.771C161.19 197.523 160.323 205.097 158.552 210.462C158.442 210.79 158.949 210.92 159.064 210.602V210.602ZM135.154 198.942C137.841 203.786 139.814 208.73 138.947 214.374C138.938 214.453 138.983 214.519 139.065 214.526C145.327 215.002 152.428 214.225 158.119 211.453C158.292 211.369 158.169 211.081 157.988 211.144C154.445 212.346 151.072 213.309 147.344 213.783C144.968 214.084 139.074 215.512 139.584 211.856C140.231 207.2 137.648 202.624 135.237 198.893C135.202 198.843 135.123 198.888 135.154 198.942V198.942ZM113.954 237.839C113.721 237.796 113.618 238.136 113.855 238.2C119.803 239.844 125.695 238.66 131.377 236.514C130.174 238.8 129.731 241.369 129.278 243.917C128.549 248.014 127.55 252.064 126.832 256.15C126.789 256.402 127.152 256.605 127.276 256.337C130.185 250.033 129.623 242.698 132.137 236.226C136.894 234.349 141.495 231.851 145.85 229.814C155.993 225.058 164.685 219.325 167.492 207.87C167.547 207.651 167.21 207.558 167.154 207.777C164.451 218.53 155.959 224.245 146.479 228.749C136.576 233.455 125.304 239.826 113.954 237.839V237.839ZM42.7867 252.991C42.7885 250.397 43.5086 249.711 45.7175 248.45C47.657 247.344 49.4851 246.056 51.2684 244.716C54.1525 242.556 56.7512 240.036 59.2043 237.406C64.4266 231.81 68.6809 225.357 72.9048 219C77.0549 212.755 81.2913 206.51 86.5675 201.149C89.7336 197.932 93.4384 196.244 97.8005 195.22C102.594 194.092 107.397 195.156 112.228 194.946C112.593 194.929 112.593 194.394 112.228 194.376C103.975 194.019 96.8559 192.135 89.6905 197.201C84.2024 201.081 80.0881 207.358 76.3779 212.851C74.7275 215.299 73.0987 217.759 71.4537 220.202C66.4613 217.197 61.5335 214.09 56.5087 211.141C56.4602 211.114 56.4207 211.189 56.4656 211.214C61.4096 214.287 66.2242 217.56 71.1987 220.579C63.4299 232.088 55.239 243.091 42.4329 249.686C42.3593 249.727 42.3126 249.812 42.3126 249.891C42.3144 250.925 42.3144 251.958 42.3144 252.991C42.3144 253.294 42.7867 253.294 42.7867 252.991V252.991ZM56.471 201.903C61.4257 207.507 67.5765 211.649 74.512 214.42C74.6916 214.492 74.7706 214.199 74.591 214.131C67.6465 211.374 61.7256 207.191 56.5033 201.869C56.4818 201.848 56.4495 201.88 56.471 201.903" fill="#72352E"/>
<defs>
<linearGradient id="paint0_linear" x1="98.7757" y1="467.592" x2="98.7757" y2="4.41491" gradientUnits="userSpaceOnUse">
<stop stop-color="#FAB6A1"/>
<stop offset="1" stop-color="#FACBAA"/>
</linearGradient>
<linearGradient id="paint1_linear" x1="95.439" y1="353.889" x2="95.439" y2="5.3596" gradientUnits="userSpaceOnUse">
<stop stop-color="#CE6D64"/>
<stop offset="1" stop-color="#F6887D"/>
</linearGradient>
</defs>
</svg>
