<svg width="218" height="486" viewBox="0 0 218 486" fill="none" xmlns="http://www.w3.org/2000/svg">
<path d="M211.576 164.217C212.591 158.538 212.991 152.755 213.381 147.16C213.753 141.804 214.141 136.263 215.049 130.976C216.807 121.728 217.431 114.127 217.05 106.22C216.899 104.112 216.944 101.506 216.991 98.7432C217.05 94.9858 217.114 91.1064 216.737 87.4747L216.933 86.697C216.976 86.5174 217.009 86.3378 217.032 86.1546C217.431 82.8498 216.536 79.8594 214.453 77.5119C211.808 74.525 207.311 72.8116 202.125 72.8116C197.082 72.8116 192.476 74.4119 189.794 77.0916C183.784 83.1031 181.857 93.0587 180.149 101.843C179.44 105.52 178.766 108.995 177.877 111.77C177.848 111.862 177.82 111.952 177.798 112.045L177.425 113.541C175.117 121.214 174.275 129.136 173.461 136.8C172.861 142.442 172.294 147.769 171.189 152.821C171.048 153.464 171.053 154.127 171.202 154.764C168.546 161.749 166.844 170.45 166.247 177.402C165.965 164.479 165.965 151.77 165.965 139.442V137.892C165.965 136.331 166.184 134.492 166.418 132.545C166.822 129.127 167.251 125.594 166.702 122.187C166.303 118.935 165.832 115.682 165.378 112.537C163.995 103.065 162.697 94.1166 163.25 84.6998C163.327 83.2521 163.419 81.8028 163.509 80.3569C163.889 74.3814 164.279 68.2029 163.615 61.8843C163.378 59.844 163 57.712 162.632 55.6519C161.81 50.9858 160.955 46.1615 161.643 42.2569C161.709 41.8833 161.727 41.5043 161.695 41.1254L161.305 36.4808C161.291 36.2976 161.266 36.109 161.224 35.9276L160.98 34.7619C159.789 29.0144 158.518 25.3505 150.807 22.9402C148.616 22.2972 146.353 21.9703 144.081 21.9703C137.133 21.9703 131.16 24.95 127.725 30.1083C121.527 39.1964 122.15 53.4231 122.607 63.8115L122.698 65.974L122.691 66.8325C121.323 71.7914 121.719 77.1959 122.109 82.4296C122.37 85.9248 122.616 89.2259 122.334 92.1966C121.874 97.2202 122.05 101.838 122.222 106.307C122.278 107.756 122.334 109.209 122.366 110.684L122.314 116.954C122.314 117.065 122.317 117.175 122.323 117.284L122.317 118.259C121.745 123.254 121.147 130.261 121.199 137.472C120.929 134.675 120.719 131.839 120.511 129.03C120.211 124.996 119.929 121.183 119.467 117.525C118.252 108.995 116.222 102.903 113.87 95.848L113.627 95.1152C113.04 90.0539 112.29 85.0141 111.566 80.1324C110.319 71.7196 109.138 63.7756 108.671 55.5496C108.222 48.1103 108.594 40.2956 108.953 32.7359C109.197 27.6082 109.45 22.3062 109.45 17.1029V15.9427C109.45 15.8098 109.445 15.6787 109.432 15.5458C108.489 5.13754 103.935 0.694078 94.2054 0.694078C94.1479 0.694078 94.0905 0.694082 94.0294 0.697674C84.8275 1.06766 76.1859 2.41292 71.5455 14.6657C69.5108 19.5492 68.5195 24.9949 68.5069 31.3099C68.3471 34.4763 67.9035 37.6608 67.4456 41.0302C66.8278 45.524 66.1849 50.1704 66.1849 55.0431C66.1849 60.6577 66.5441 66.4463 66.8943 72.0447C67.0613 74.7298 67.2283 77.4006 67.354 80.0534C67.539 83.6078 68.4064 87.2286 69.2468 90.731C70.2579 94.9625 71.2133 98.9588 70.8559 102.176C70.8379 102.335 70.8271 102.499 70.8271 102.66V104.597C70.8271 104.661 70.8325 104.73 70.8343 104.796C71.4467 118.263 73.4688 125.718 75.2575 132.299C75.798 134.282 76.308 136.157 76.7498 138.095C76.7678 138.192 76.7947 138.289 76.8216 138.383C77.5651 140.859 78.4756 143.221 79.3574 145.5C81.182 150.222 82.9077 154.694 82.8521 159.492C80.9341 160.499 78.6372 161.042 76.2039 161.042H76.0817C71.7286 151.83 68.2662 140.213 65.1379 128.883C63.2379 122.548 60.1419 116.948 57.1482 111.531C56.2772 109.962 55.4009 108.372 54.5407 106.75L51.5667 97.4645C50.9328 95.4511 50.3079 93.4431 49.6775 91.4333C45.7716 78.9129 41.7345 65.974 35.995 53.4231L35.6825 52.4873C35.6609 52.4317 35.6431 52.3742 35.6197 52.3167C32.9331 45.233 26.3621 40.6566 18.8806 40.6566C11.8445 40.6566 5.64534 44.7354 2.66604 51.3863C-1.71402 61.7173 1.5436 75.4375 4.42233 87.5412C5.52139 92.1805 6.56294 96.5646 6.99035 100.094C7.02626 100.388 7.09098 100.683 7.18975 100.969L7.39441 101.579C8.25821 114.195 11.48 125.533 17.5158 137.208C17.6864 137.538 17.8966 137.842 18.1444 138.119C20.1611 147.546 24.6884 156.155 29.0738 164.496C32.6476 171.29 36.0255 177.706 38.1518 184.581L38.4302 185.416C39.8417 193.824 42.4421 201.841 44.9581 209.598C48.8102 221.479 52.4593 232.728 51.9564 244.859C51.01 246.123 50.3886 247.393 50.0564 248.706C50.0205 248.844 49.9954 248.981 49.9757 249.125C48.7832 257.076 47.9212 267.004 51.4913 274.314L51.477 275.266C51.4716 275.645 51.5165 276.026 51.608 276.396C52.479 279.871 52.9423 283.275 53.3931 286.565C53.9229 290.447 54.4257 294.118 55.5176 297.832C56.2718 300.471 56.9614 303.233 57.6295 305.907C59.0176 311.464 60.4562 317.206 62.6291 322.647C66.8979 333.312 72.2099 341.31 79.2784 347.675L79.4059 348.447C79.4669 348.799 79.5692 349.144 79.7111 349.475C93.3577 380.913 100.983 415.667 100.638 444.758C100.527 448.422 100.489 451.319 100.453 453.826C100.378 459.92 100.331 463.602 99.2643 470.697C98.9895 472.536 99.8946 474.344 101.529 475.228C102.294 475.641 120.646 485.304 160.4 485.304C200.178 485.304 213.602 478.087 214.155 477.78C216.281 476.598 217.044 473.913 215.866 471.789C210.166 461.531 208.442 452.132 206.264 440.237L205.648 436.877C202.712 421.121 199.388 403.254 199.388 385.658C199.388 377.784 198.924 369.664 198.481 361.812C197.872 351.055 197.243 339.932 197.833 329.649C197.876 328.881 197.718 328.114 197.373 327.428L197.046 326.772C198.05 322.602 199.521 318.699 201.07 314.588C202.698 310.27 204.38 305.807 205.451 301.047C207.545 293.128 208.678 279.972 208.678 271.586C208.678 259.499 208.159 249.676 207.613 239.273C207.227 231.934 206.828 224.344 206.614 215.836C206.614 211.023 206.614 203.741 206.074 198.36C206.059 198.217 206.038 198.077 206.011 197.937L205.901 197.396C207.289 188.157 209.267 177.124 211.014 167.36L211.576 164.217" fill="#72352E"/>
<path d="M194.979 385.66C194.979 367.078 192.396 347.465 193.433 329.396L192.396 327.333C194.463 317.524 199.107 309.264 201.171 299.973C203.238 292.23 204.269 279.327 204.269 271.584C204.269 250.937 202.721 236.484 202.205 215.836C202.205 211.19 202.205 203.964 201.688 198.801L201.43 197.511C202.978 187.058 205.3 174.284 207.235 163.443C209.171 152.602 208.783 141.375 210.721 130.148C212.267 122.019 213.043 114.664 212.655 106.535C212.267 101.112 213.043 93.3712 212.267 87.1766L212.655 85.6284C213.815 75.9476 197.788 75.3333 192.914 80.2079C185.558 87.5628 185.172 103.436 182.076 113.114L181.688 114.664C177.818 127.439 178.204 141.375 175.496 153.762L175.882 154.926C172.008 164.217 170.076 177.765 170.462 184.348L169.3 185.511C166.373 184.445 163.961 183.008 161.932 181.258C161.562 167.208 161.558 153.507 161.558 139.44V137.892C161.558 133.246 163.108 127.439 162.332 122.793C160.782 110.017 158.074 97.6279 158.85 84.4663C159.238 77.1096 160.012 69.7547 159.238 62.398C158.462 55.8172 156.14 48.0761 157.302 41.4935L156.912 36.8489C155.752 31.4284 155.752 29.106 149.558 27.1699C142.979 25.2337 135.238 26.782 131.365 32.5904C125.559 41.1074 126.721 56.2052 127.107 65.8842L127.096 67.4755C124.797 74.825 127.495 84.4825 126.721 92.5971C126.144 98.9265 126.638 104.618 126.773 110.619L126.916 92.2092L126.778 110.946C126.775 110.838 126.775 110.728 126.773 110.619L126.721 116.988C126.73 116.77 126.728 116.564 126.737 116.352L126.721 118.534C125.559 128.599 124.399 146.407 128.272 156.86C129.819 160.731 129.819 165.377 124.399 163.443L122.849 161.895L121.301 158.797C116.271 147.183 116.657 130.535 115.107 118.148C113.947 110.017 112.011 104.21 109.687 97.2417L109.303 96.0815C107.755 82.5302 105.043 69.3667 104.271 55.8172C103.497 43.0417 105.043 29.8802 105.043 17.1029V15.9427C104.271 7.42573 101.173 5.10339 94.2053 5.10339C84.5293 5.48955 79.1076 7.03776 75.6254 16.3288C73.6877 20.9753 72.9155 26.0079 72.9155 31.4284C72.5294 39.1695 70.5936 46.9141 70.5936 55.0432C70.5936 63.174 71.3675 71.6909 71.7554 79.8217C72.1397 87.1766 76.0115 95.6935 75.2357 102.66V104.597C76.0115 121.632 79.1076 128.599 81.0453 137.116C83.3673 144.859 87.6253 151.828 87.2374 160.345V161.895C83.7552 164.603 79.1076 165.765 74.4653 165.377L72.9155 164.603C67.8836 154.538 64.01 141.375 60.9158 130.148C58.5919 122.406 54.334 115.824 50.4658 108.469L47.3661 98.79C42.7221 84.0802 38.4641 69.3668 31.8842 55.0432L31.4981 53.8829C27.2383 42.6539 11.7564 41.8815 6.72442 53.1069C1.30637 65.8842 9.82051 86.7887 11.3649 99.5641L11.7564 100.726C12.5304 113.114 15.6265 123.955 21.4324 135.18L22.2082 135.954C25.3042 152.602 37.3022 166.926 42.3324 183.187L42.7221 184.348C46.1988 205.6 57.7676 224.535 56.2771 246.545C55.3648 247.54 54.6285 248.602 54.334 249.775C53.2727 256.864 52.2257 266.859 55.9143 273.253L55.8838 275.326C57.8197 283.068 57.8197 290.037 59.7538 296.62C62.0758 304.749 63.6275 313.264 66.7217 321.007C70.5936 330.686 75.6255 338.815 83.3674 345.396L83.7552 347.72C96.529 377.143 105.431 412.373 105.043 444.893C104.655 457.666 105.174 461.021 103.624 471.349C103.624 471.349 121.301 480.897 160.398 480.897C199.494 480.897 212.012 473.928 212.012 473.928C205.4 462.025 203.791 451.005 201.313 437.683C198.111 420.491 194.979 403.211 194.979 385.66" fill="url(#paint0_linear)"/>
<path d="M203.488 285.831C196.078 308.919 183.893 321.711 179.086 326.075C161.562 334.05 138.663 341.2 132.552 341.2C123.048 341.2 111.386 343.79 93.2463 339.471C79.3824 336.168 69.8142 324.551 66.0681 319.25C66.2836 319.838 66.4901 320.429 66.7218 321.007C70.5936 330.686 75.6255 338.815 83.3674 345.396L83.7553 347.72C84.8597 350.265 85.9229 352.871 86.968 355.497C93.8228 350.538 103.969 345.198 113.979 345.951C131.257 347.247 143.783 348.11 161.492 342.495C172.504 339.004 185.012 340.354 193.217 341.667C193.158 337.522 193.201 333.42 193.433 329.396L192.397 327.333C194.464 317.524 199.108 309.264 201.171 299.973C202.202 296.117 202.972 290.978 203.488 285.831V285.831ZM120.459 237.087C117.004 244.431 104.476 258.256 101.883 260.413C99.293 262.574 98.8619 266.031 98.8619 266.031C93.2463 269.488 79.8547 284.177 79.8547 284.177C79.8547 284.177 101.452 272.944 103.179 271.646C104.907 270.351 111.819 259.553 116.138 256.959C120.457 254.367 123.481 259.118 123.481 259.118C132.985 282.878 125.64 297.568 125.64 297.568C125.64 297.568 129.528 293.247 130.824 293.68C132.121 294.111 136.007 321.325 136.007 321.325V303.183C135.145 287.198 127.369 251.343 127.369 251.343C129.528 243.997 158.037 233.199 158.037 233.199L185.68 238.815L161.036 229.116C163.959 225.081 168.235 219.008 170.13 215.486C173.154 209.872 170.563 202.96 170.563 202.96C170.563 204.686 168.402 212.896 168.402 212.896C164.083 221.102 153.283 224.56 143.35 229.312C133.416 234.063 120.459 237.087 120.459 237.087V237.087ZM71.6477 208.144L84.1737 214.191L88.9255 205.121C85.4685 209.439 71.6477 208.144 71.6477 208.144ZM126.936 230.174C139.893 226.286 142.919 224.129 147.237 223.263C151.557 222.399 157.604 216.352 157.604 216.352C157.604 216.352 147.238 222.399 136.44 221.535C125.64 220.671 102.315 224.558 101.019 226.717C99.724 228.879 97.5635 256.097 97.1307 259.553C97.1307 259.553 98.4291 256.528 103.612 253.071C108.793 249.613 116.569 234.928 116.569 234.928L112.133 231.701C113.076 232.236 116.501 233.305 126.936 230.174ZM64.3063 224.991C63.4389 223.696 63.4407 215.919 66.4649 214.622C69.4873 213.327 80.7167 217.216 80.7167 217.216L82.0151 215.486L60.4183 209.008C60.4183 209.008 55.6666 194.321 53.077 186.544C50.482 178.769 57.3942 175.743 57.3942 175.743L47.4595 175.312C47.4595 175.312 36.2302 150.256 34.9318 147.665C33.637 145.071 41.4129 140.752 41.4129 140.752C41.4129 140.752 34.5007 139.024 33.2041 137.727C31.9093 136.432 37.525 132.544 37.525 132.544L28.0195 130.385C28.0195 130.385 21.5419 109.647 19.8143 104.897C18.0867 100.144 26.7266 97.9835 26.7266 97.9835L17.654 96.6886C17.654 96.6886 11.1764 74.2251 9.01596 63.4236C6.85736 52.6256 11.1763 47.8732 11.1763 47.8732L10.898 47.7762C9.20272 49.0784 7.74087 50.8349 6.72442 53.107C1.30636 65.8842 9.82051 86.7886 11.3649 99.5641L11.7564 100.726C12.5304 113.114 15.6265 123.955 21.4324 135.18L22.2082 135.954C25.3042 152.602 37.3023 166.926 42.3324 183.187L42.7221 184.348C46.1989 205.6 57.7677 224.535 56.2771 246.545C56.1819 246.648 56.0993 246.754 56.0113 246.854C63.8035 242.064 77.2616 222.399 77.2616 222.399C77.2616 222.399 65.1701 226.286 64.3063 224.991V224.991ZM158.035 192.159L118.728 193.888C118.728 193.888 137.304 199.936 158.035 192.159ZM75.2358 102.661V104.597C76.0116 121.632 79.1076 128.599 81.0454 137.116C83.3674 144.859 87.6253 151.828 87.2374 160.345V161.895C86.0665 162.807 84.752 163.529 83.3584 164.09C88.1694 165.352 104.476 161.918 104.476 161.918C104.476 161.918 97.5635 158.463 97.5635 156.304C97.5635 154.143 105.34 151.12 105.34 151.12L94.9739 149.392C94.9739 149.392 84.1737 120.016 85.0375 116.56C85.9013 113.105 93.6773 108.785 93.6773 108.785C93.6773 108.785 88.4928 106.192 88.4928 104.031C88.4928 101.872 96.267 99.2803 96.267 99.2803L82.4462 96.2557C82.4462 96.2557 75.9686 75.5201 76.8306 67.7431C77.6962 59.9679 79.8547 51.7617 79.8547 51.7617L93.2445 50.0321L78.9892 47.4404C78.9892 47.4404 77.6943 31.0243 77.6943 24.5441C77.6943 18.9762 82.791 9.27925 84.224 6.65698C80.3845 8.10821 77.6656 10.8832 75.6255 16.3288C73.6878 20.9753 72.9156 26.0079 72.9156 31.4284C72.5295 39.1695 70.5936 46.9141 70.5936 55.0431C70.5936 63.1739 71.3676 71.6909 71.7555 79.8217C72.1398 87.1766 76.0116 95.6936 75.2358 102.661V102.661ZM128.272 156.861C129.375 159.625 129.679 162.768 127.798 163.646L127.8 163.648C129.097 164.079 136.005 160.192 136.005 160.192C136.005 160.192 134.278 134.704 135.574 128.224C136.871 121.746 143.35 122.177 143.35 122.177C143.35 122.177 139.031 117.424 139.462 114.831C139.893 112.241 145.078 110.08 145.078 110.08L137.735 108.352C137.735 108.352 133.416 99.7114 132.552 91.9362C131.688 84.1592 133.847 71.6316 134.711 69.0399C135.573 66.4482 145.078 63.4236 145.078 63.4236L136.871 59.9679C136.871 59.9679 134.278 45.2815 135.143 37.9356C135.668 33.4705 137.948 29.494 139.949 26.861C136.508 27.6746 133.401 29.5371 131.365 32.5905C125.559 41.1074 126.721 56.2052 127.107 65.8842L127.096 67.4755C124.797 74.825 127.495 84.4825 126.721 92.5971C126.144 98.9265 126.638 104.618 126.773 110.619L126.721 116.988C126.73 116.77 126.728 116.564 126.737 116.352L126.721 118.534C125.559 128.599 124.399 146.407 128.272 156.861V156.861ZM173.587 190.864C175.746 193.89 185.249 195.616 185.249 195.616L178.339 190C178.339 190 178.339 177.039 180.928 171.425C183.52 165.809 183.52 157.169 183.52 157.169L189.57 157.599C189.57 157.599 188.273 155.44 188.704 154.143C189.135 152.846 195.616 151.12 195.616 151.12L186.113 148.096C186.113 148.096 184.385 132.976 184.385 130.816C184.385 128.657 188.273 117.855 192.159 119.152C196.047 120.447 199.07 118.288 199.07 118.288L193.456 116.127C193.456 116.127 191.294 110.944 192.159 109.647C193.023 108.352 193.889 94.959 194.32 87.1838C194.561 82.8606 197.604 79.4751 200.261 77.3198C197.279 77.6179 194.505 78.6183 192.914 80.2078C185.558 87.5627 185.172 103.436 182.076 113.114L181.688 114.664C177.818 127.439 178.204 141.375 175.496 153.762L175.882 154.926C172.008 164.217 170.076 177.765 170.462 184.348L169.55 185.262C170.739 186.903 172.368 189.156 173.587 190.864" fill="url(#paint1_linear)"/>
<path d="M146.464 230.411C146.457 230.411 146.454 230.422 146.463 230.424C161.03 234.758 175.895 237.766 190.953 239.798C191.066 239.81 191.12 239.643 191.003 239.622C176.036 237.112 161.106 234.447 146.464 230.411V230.411ZM130.216 112.305C130.192 112.302 130.169 112.316 130.167 112.341C130.045 112.983 129.921 113.627 129.794 114.27C129.785 114.299 129.831 114.312 129.842 114.283C130.463 112.28 130.805 112.586 132.724 112.501C134.387 112.428 136.061 112.065 137.69 111.752C141.56 111.005 148.923 108.487 151.811 112.383C151.872 112.471 152.019 112.384 151.954 112.298C147.675 106.535 135.876 113.247 130.216 112.305ZM206.489 120.37C201.992 118.769 197.238 119.407 192.582 118.723C189.545 118.276 186.797 115.801 183.622 116.187C183.592 116.19 183.59 116.239 183.622 116.237C186.826 115.973 190.385 118.802 193.564 119.287C197.849 119.937 202.249 119.222 206.433 120.569C206.56 120.61 206.612 120.415 206.489 120.37ZM201.045 152.933C201.148 153.094 201.394 152.947 201.299 152.791C200.792 151.972 199.203 151.715 198.388 151.472C195.629 150.65 192.767 150.163 189.927 149.716C187.699 149.367 180.648 147.501 178.917 149.701C178.834 149.804 178.978 149.915 179.059 149.811C180.531 147.9 188.812 149.919 190.611 150.199C192.585 150.51 194.548 150.899 196.496 151.334C197.596 151.573 200.384 151.878 201.045 152.933ZM200.189 158.879C193.519 156.51 186.194 157.584 179.576 154.788C179.391 154.712 179.231 154.98 179.416 155.061C186.057 157.884 193.399 156.834 200.092 159.229C200.311 159.312 200.408 158.96 200.189 158.879ZM172.655 191.282C180.235 194.596 188.611 197.881 197.044 196.92C197.271 196.891 197.281 196.563 197.044 196.554C191.967 196.405 187.208 195.832 182.327 194.391C180.036 193.718 177.809 192.845 175.593 191.965C172.98 190.921 173.206 190.039 172.915 187.931C172.892 187.778 172.64 187.816 172.653 187.963C172.802 188.974 172.763 189.982 172.538 190.991C172.511 191.092 172.551 191.234 172.655 191.282V191.282ZM206.122 458.024C204.571 452.644 203.574 447.109 202.543 441.617C200.176 429.003 197.777 416.394 196.412 403.624C195.11 391.407 195.457 379.088 194.805 366.83C194.14 354.369 193.156 341.879 193.684 329.396C193.697 329.069 193.198 329.075 193.176 329.396C192.409 341.886 193.201 354.354 193.891 366.83C194.598 379.596 194.32 392.388 195.665 405.115C196.971 417.467 199.384 429.665 201.579 441.882C203.54 452.808 205.546 464.628 211.7 474.111C211.953 474.512 212.51 474.165 212.323 473.745C210.008 468.547 207.706 463.507 206.122 458.024V458.024ZM204.68 267.146C204.569 255.644 203.791 244.169 203.215 232.685C202.654 221.422 203.06 210.028 201.994 198.801C201.959 198.411 201.345 198.405 201.379 198.801C202.29 209.153 201.886 219.639 202.369 230.016C202.906 241.439 203.563 252.851 203.771 264.283C203.965 274.853 203.766 285.599 201.879 296.024C199.921 306.838 194.683 316.619 192.391 327.331C192.391 327.338 192.404 327.342 192.404 327.334C194.893 316.666 200.031 306.89 202.223 296.119C204.17 286.585 204.777 276.856 204.68 267.146V267.146ZM212.828 99.6593C212.869 95.496 213.095 91.2662 212.363 87.1514C212.343 87.0437 212.167 87.067 212.171 87.1766C212.496 95.4816 212.497 103.853 212.476 112.164C212.447 122.153 209.933 131.908 209.209 141.847C208.821 147.137 208.627 152.451 207.907 157.712C207.342 161.839 206.054 165.715 205.546 169.88C204.413 179.13 202.378 188.245 201.392 197.511C201.388 197.55 201.458 197.561 201.466 197.52C203.238 188.378 204.545 179.116 206.605 170.024C208.683 160.844 208.667 151.239 209.488 141.847C210.359 131.895 212.684 122.169 213.006 112.164C213.14 107.997 212.783 103.83 212.828 99.6593V99.6593ZM182.191 113.146C185.96 103.153 185.195 91.6057 191.391 82.4996C195.854 75.9475 213.395 74.8663 212.551 85.6284C212.542 85.7595 212.749 85.7595 212.758 85.6284C213.421 76.2727 200.887 75.486 194.679 78.5321C190.134 80.7646 188.058 87.0149 186.691 91.4764C184.533 98.5062 183.662 105.933 181.961 113.083C181.923 113.236 182.135 113.291 182.191 113.146V113.146ZM175.616 153.798C177.073 148.115 177.613 142.233 178.238 136.416C179.027 129.043 180.334 121.95 181.898 114.721C181.961 114.445 181.573 114.342 181.48 114.604C179.413 120.212 178.777 126.396 178.082 132.301C177.24 139.462 176.539 146.609 175.372 153.73C175.347 153.89 175.577 153.96 175.616 153.798ZM170.487 184.348C170.275 174.072 173.391 164.7 176.22 155.02C176.329 154.641 175.763 154.393 175.578 154.75C173.118 159.458 172.195 165.392 171.326 170.584C170.572 175.109 170.121 179.766 170.437 184.348C170.439 184.38 170.487 184.382 170.487 184.348ZM161.964 160.731C161.912 153.658 162.259 146.485 161.589 139.44C161.585 139.401 161.53 139.401 161.528 139.44C160.86 146.481 161.205 153.665 161.249 160.731C161.294 167.324 161.242 173.961 161.698 180.543C161.187 180.109 160.68 179.647 160.188 179.134C157.205 176.007 155.311 172.093 153.834 168.086C153.825 168.061 153.793 168.07 153.8 168.095C155.381 173.041 157.918 178.079 161.761 181.609C161.774 181.749 161.777 181.887 161.788 182.027C161.804 182.225 162.097 182.23 162.102 182.027C162.104 181.989 162.103 181.953 162.104 181.914C164.117 183.676 166.47 185.035 169.232 185.752C169.507 185.826 169.688 185.425 169.431 185.29C166.786 183.913 164.347 182.692 162.117 180.899C162.27 174.184 162.013 167.448 161.964 160.731V160.731ZM157.247 41.4792C155.968 48.5018 158.087 55.4562 158.965 62.398C160.073 71.1323 158.531 80.0749 158.443 88.8272C158.365 96.9292 159.608 104.985 160.704 112.99C161.318 117.482 162.016 121.918 161.941 126.458C161.88 130.28 160.844 134.065 161.106 137.892C161.147 138.485 161.946 138.463 162.013 137.892C162.411 134.519 162.819 131.126 163.079 127.739C163.354 124.176 162.408 120.558 161.887 117.052C160.576 108.151 159.138 99.2857 158.989 90.2676C158.848 81.9428 160.201 73.6773 159.766 65.3417C159.349 57.3223 156.517 49.5956 157.354 41.4935C157.361 41.4325 157.259 41.4199 157.247 41.4792V41.4792ZM127.152 65.8842C127.418 55.3825 125.722 44.1769 130.62 34.4152C133.638 28.4074 140.039 26.2521 146.376 26.7766C149.467 27.0316 153.095 28.1506 154.901 30.8321C156.007 32.4719 156.094 35.0816 156.505 36.9603C156.623 37.4973 157.428 37.2656 157.322 36.7357C156.399 32.1234 155.264 29.1438 150.708 27.328C145.541 25.2679 138.475 25.6037 134.068 29.2677C124.358 37.3321 125.853 54.7216 127.066 65.8842C127.073 65.9362 127.15 65.9398 127.152 65.8842V65.8842ZM139.096 120.185C144.14 120.512 149.162 120.224 154.204 120.143C154.282 120.142 154.282 120.025 154.204 120.023C150.35 119.991 146.489 120.016 142.632 119.94C139.602 119.879 131.907 120.607 129.874 117.728C129.826 117.658 129.713 117.721 129.761 117.792C131.338 120.276 136.611 120.023 139.096 120.185ZM154.919 65.1442C154.957 65.2107 155.081 65.1693 155.047 65.0903C154.741 64.3593 154.242 63.9175 153.43 63.9121C153.384 63.9121 153.384 63.9804 153.43 63.984C154.222 64.0522 154.526 64.5353 154.919 65.1442ZM151.855 63.8474C147.677 64.4384 143.444 64.4832 139.276 65.1208C137.365 65.4136 135.526 65.7979 133.705 66.4589C131.729 67.1791 131.237 68.3017 129.054 67.0301C129.036 67.0175 129.016 67.048 129.036 67.0606C129.684 67.445 130.316 67.8509 130.936 68.2837C130.959 68.2999 130.999 68.3017 131.025 68.2837C136.835 63.8403 145.148 65.5303 151.909 64.0486C152.042 64.0163 151.981 63.8313 151.855 63.8474V63.8474ZM126.259 102.689C126.412 107.461 126.703 112.207 126.649 116.988C126.647 117.081 126.789 117.078 126.793 116.988C127.305 108.444 126.457 99.9143 127.098 91.365C127.703 83.3204 125.489 75.5057 127.366 67.5024C127.443 67.1684 126.956 67.0354 126.85 67.3605C124.508 74.6113 126.599 82.6738 126.57 90.115C126.556 94.3178 126.119 98.4685 126.259 102.689V102.689ZM124.352 163.607C132.909 166.547 127.965 154.673 127.199 150.962C124.963 140.125 126.468 129.433 126.812 118.534C126.816 118.435 126.653 118.408 126.635 118.511C125.205 125.823 125.158 133.636 125.376 141.057C125.485 144.812 125.753 148.561 126.457 152.25C127.1 155.619 132.026 165.131 124.445 163.28C124.228 163.226 124.149 163.535 124.352 163.607V163.607ZM86.0756 30.3508C86.187 30.3508 86.187 30.1873 86.0756 30.1837C83.8955 30.0831 81.9756 29.4078 80.7617 27.495C80.6808 27.3657 80.4707 27.486 80.5516 27.6171C81.7997 29.5713 83.8111 30.3813 86.0756 30.3508ZM73.695 51.5498C73.6824 51.5408 73.6699 51.5605 73.6825 51.5695C74.1314 51.8874 75.3203 51.7384 75.8554 51.7294C78.4379 51.6809 81.0167 51.5246 83.5919 51.3648C88.3096 51.0756 93.5427 51.099 98.0987 49.7052C98.2047 49.6747 98.1598 49.5166 98.0557 49.5417C93.9252 50.5224 89.4967 50.6481 85.2764 50.9696C82.9293 51.151 80.5768 51.2965 78.226 51.4115C77.373 51.4564 74.4618 52.0652 73.695 51.5498V51.5498ZM77.4196 100.766C77.4986 101.281 77.8578 101.651 78.2529 101.969C78.3696 102.064 78.5097 101.922 78.4163 101.807C78.1379 101.452 77.777 101.157 77.7034 100.687C77.6711 100.502 77.3945 100.582 77.4196 100.766ZM105.192 97.5417C105.16 97.4968 105.104 97.4501 105.043 97.4591C96.5148 98.5349 88.0546 100.126 79.4974 100.997C79.3501 101.013 79.3501 101.242 79.4974 101.227C84.0139 100.791 88.5125 100.236 93.0075 99.5964C97.0966 99.0127 104.003 96.3545 106.902 100.029C106.979 100.126 107.146 99.9969 107.074 99.8963C106.886 99.6413 104.946 97.2022 105.192 97.5417ZM108.529 103.411C108.215 103.411 107.985 103.248 107.766 103.036C107.75 103.022 107.724 103.045 107.741 103.061C108.019 103.339 108.134 103.454 108.529 103.46C108.561 103.462 108.561 103.411 108.529 103.411V103.411ZM105.367 104.096C97.5528 107.677 86.3917 111.212 78.3912 106.439C78.2691 106.368 78.1613 106.554 78.2816 106.626C86.1851 111.506 97.8455 108.239 105.498 104.325C105.654 104.246 105.517 104.025 105.367 104.096V104.096ZM102.172 151.373C104.147 151.37 106.065 151.325 107.908 151.483C106.094 151.194 104.19 151.178 102.172 151.373ZM100.807 151.515C101.272 151.453 101.719 151.417 102.172 151.373C101.712 151.373 101.252 151.372 100.785 151.363C100.678 151.361 100.692 151.53 100.807 151.515ZM116.398 155.185C113.827 152.579 110.971 151.744 107.908 151.483C110.847 151.948 113.559 153.137 116.14 155.442C116.314 155.596 116.564 155.354 116.398 155.185ZM89.881 152.216C89.8451 152.602 89.8415 152.99 89.8325 153.376C89.8289 153.525 90.0659 153.525 90.0623 153.376C90.0515 152.99 90.0515 152.602 90.0138 152.216C90.0049 152.13 89.8918 152.13 89.881 152.216V152.216ZM117.431 159.495C117.154 159.477 116.919 159.309 116.711 159.129C116.634 159.064 116.526 159.174 116.603 159.238C116.846 159.445 117.099 159.63 117.431 159.65C117.53 159.653 117.53 159.502 117.431 159.495V159.495ZM116.287 159.242C116.357 159.213 116.33 159.102 116.255 159.125C108.48 161.507 101.434 161.424 93.4314 161.101C93.4134 161.099 93.408 161.135 93.4259 161.137C101.04 162.312 109.084 162.218 116.287 159.242V159.242ZM71.0211 167.38C71.1019 167.328 71.0247 167.191 70.9421 167.245C64.0801 171.779 56.9201 175.796 49.6505 179.636C49.5643 179.683 49.6433 179.816 49.7313 179.771C56.9991 175.929 64.1556 171.913 71.0211 167.38ZM116.063 132.447C116.802 142.329 117.548 153.367 122.161 162.295C122.639 163.217 123.986 162.409 123.542 161.493C121.276 156.808 119.356 152.552 118.376 147.399C117.208 141.245 116.811 134.945 116.346 128.707C115.527 117.704 114.457 107.336 109.741 97.2112C109.711 97.1448 109.617 97.1951 109.632 97.2579C110.826 102.955 112.518 108.534 113.936 114.175C115.429 120.115 115.61 126.361 116.063 132.447V132.447ZM105.119 17.1029C105.113 17.0113 104.975 17.0113 104.971 17.1029C104.402 29.9305 103.163 42.9879 103.872 55.8172C104.623 69.356 107.536 82.6595 109.285 96.0815C109.287 96.1031 109.325 96.1031 109.321 96.0815C107.965 83.1426 105.677 70.3097 104.756 57.3223C103.808 43.8841 105.596 30.5214 105.119 17.1029V17.1029ZM71.8381 82.2177C72.9372 88.9906 75.6453 95.7241 75.1353 102.66C75.1245 102.795 75.3293 102.793 75.3419 102.66C75.6956 98.1667 74.6558 93.8346 73.616 89.4917C72.156 83.3707 71.8327 77.3611 71.4538 71.1018C71.0695 64.8119 70.6403 58.4915 70.8936 52.1909C71.1324 46.1561 72.2799 40.1645 72.8851 34.162C73.8531 24.5494 74.0345 11.0232 84.9622 7.03057C88.922 5.58474 94.094 5.24167 98.2226 6.06606C102.978 7.01259 104.163 11.8782 104.839 15.9983C104.878 16.2354 105.269 16.178 105.257 15.9427C105.085 12.4978 104.591 8.87516 101.854 6.50973C99.0092 4.0581 94.4478 4.44244 91.0231 4.69389C87.1926 4.97587 83.4339 5.78231 80.3343 8.15312C76.7228 10.9155 75.2718 15.6265 74.1134 19.8132C72.3374 26.2269 72.8402 33.0431 71.9099 39.5969C70.8953 46.7201 70.2507 53.6242 70.4931 60.8372C70.7301 67.8473 70.7175 75.2884 71.8381 82.2177V82.2177ZM75.1856 104.597C75.2538 113.493 76.5451 122.02 78.8186 130.604C79.8404 134.472 80.7617 138.318 82.1697 142.073C84.4594 148.209 87.1962 153.604 87.0938 160.345C87.092 160.533 87.3794 160.533 87.3812 160.345C87.5787 150.684 82.9401 141.691 80.4528 132.544C77.935 123.299 76.1769 114.159 75.2934 104.597C75.2862 104.528 75.1856 104.527 75.1856 104.597V104.597ZM74.4654 165.579C78.9389 166.114 83.9816 165.173 87.3524 162.008C87.4943 161.881 87.3165 161.663 87.1549 161.751C83.0603 164.068 79.1957 165.203 74.4654 165.178C74.1978 165.176 74.2158 165.548 74.4654 165.579ZM37.64 94.4435C33.4216 96.3257 28.9499 96.746 24.4279 97.4106C23.3145 97.574 21.5151 98.2439 19.7121 98.7522C25.6563 97.1286 32.0423 97.2848 37.7423 94.6195C37.8626 94.5638 37.7585 94.3896 37.64 94.4435V94.4435ZM14.0893 98.3966C14.0803 98.384 14.0587 98.3966 14.0677 98.4092C14.452 99.0558 14.822 99.7113 15.174 100.379C15.1937 100.417 15.2422 100.423 15.2782 100.405C16.5927 99.7454 17.9449 99.2516 19.3242 98.8546C17.0883 99.4509 14.9136 99.7239 14.0893 98.3966V98.3966ZM30.7277 142.057C28.9642 142.619 27.8419 144.527 26.9026 142.136C26.8811 142.07 26.7769 142.095 26.7985 142.163C27.2187 143.543 27.0103 142.977 27.5078 144.155C27.5455 144.236 27.664 144.236 27.7215 144.18C30.1423 141.745 34.4542 141.432 37.6777 140.962C41.1616 140.453 44.8215 140.303 48.1599 139.117C48.2408 139.087 48.2103 138.966 48.1241 138.988C44.3815 139.925 40.4486 140.148 36.6396 140.73C34.6391 141.035 32.6583 141.441 30.7277 142.057V142.057ZM26.3513 138.081C26.4393 138.126 26.5542 138.126 26.6206 138.047C30.4135 133.54 38.071 132.59 43.5106 131.367C43.5806 131.353 43.5662 131.241 43.4998 131.25C39.9889 131.689 36.5552 132.624 33.2204 133.777C31.6687 134.314 30.1746 134.992 28.7379 135.784C26.8254 136.84 25.9867 138.118 24.2268 135.52C24.1549 135.415 24.0041 135.503 24.0598 135.618C24.6309 136.824 25.1732 137.483 26.3513 138.081V138.081ZM73.3341 164.359C68.7924 154.998 65.4773 144.972 62.814 134.918C61.6683 130.589 60.4921 126.464 58.6028 122.39C56.3419 117.509 52.8202 113.333 50.5305 108.429C50.4892 108.341 50.3437 108.421 50.3958 108.507C60.932 126.04 63.4821 146.668 72.4972 164.848C72.7737 165.408 73.6035 164.918 73.3341 164.359ZM43.2035 87.9597C44.3474 91.6434 45.9781 95.1852 47.3267 98.8007C47.3447 98.851 47.4219 98.8331 47.4093 98.7792C46.445 95.0559 45.7769 91.2321 44.6275 87.5663C43.4746 83.8933 41.8548 80.3569 40.5977 76.7037C38.0961 69.4134 35.6969 61.7712 31.9274 55.0197C31.9005 54.9712 31.8196 55.0036 31.8358 55.0575C34.4541 62.3746 37.6507 69.4494 40.1021 76.8402C41.325 80.5185 42.0613 84.2813 43.2035 87.9597V87.9597ZM5.31659 60.7851C5.72066 53.7733 9.21898 47.5427 16.3898 45.8886C23.0775 44.3475 28.034 48.8125 31.3347 53.978C31.4514 54.1576 31.7244 54.0409 31.6778 53.8326C30.4727 48.421 25.4013 45.1863 20.1933 44.5361C14.5005 43.8285 9.43269 47.2086 6.83052 52.0634C3.5118 58.2491 4.52646 66.3548 5.58422 72.9607C7.02268 81.9141 9.98581 90.5729 11.1818 99.5641C11.2124 99.8011 11.5877 99.8029 11.5571 99.5641C9.86187 86.5641 4.54977 74.0779 5.31659 60.7851V60.7851ZM11.9595 100.67C11.9217 100.426 11.5482 100.494 11.5446 100.726C11.3417 112.259 15.5439 125.352 21.3804 135.212C21.4217 135.281 21.515 135.22 21.4881 135.151C18.9973 129.384 16.4831 123.754 14.7897 117.69C13.2273 112.081 12.861 106.384 11.9595 100.67ZM26.6422 149.139C24.7386 144.803 24.5088 140.094 22.3358 135.879C22.2604 135.733 22.0664 135.816 22.0556 135.954C21.7378 139.882 23.4977 142.282 24.7889 145.759C26.2867 149.798 28.2136 153.678 30.171 157.509C34.5187 166.024 38.6528 174.36 42.3001 183.196C42.3163 183.236 42.3809 183.225 42.372 183.178C40.533 175.292 36.0416 167.876 32.3224 160.769C30.3201 156.945 28.3806 153.094 26.6422 149.139V149.139ZM174.848 354.55C166.386 354.522 157.735 354.696 149.106 354.495C157.681 354.834 166.271 354.857 174.848 354.827C175.031 354.827 175.031 354.55 174.848 354.55ZM148.045 354.459C148.4 354.477 148.756 354.482 149.106 354.495C148.722 354.486 148.336 354.464 147.948 354.453C147.984 354.453 148.012 354.457 148.045 354.459ZM147.948 354.453C140.177 354.121 132.516 353.173 124.797 352.397C132.383 353.703 140.152 354.24 147.948 354.453ZM122.723 352.185C123.417 352.251 124.104 352.329 124.797 352.397C124.111 352.28 123.427 352.163 122.745 352.032C122.632 352.011 122.612 352.174 122.723 352.185ZM140.786 359.34C148.673 360.301 156.641 359.933 164.529 360.896C164.543 360.896 164.543 360.874 164.529 360.872C156.641 359.915 148.673 360.285 140.786 359.328C140.779 359.326 140.779 359.34 140.786 359.34ZM83.7966 347.696C83.7715 347.644 83.6889 347.684 83.7068 347.732C91.5798 368.34 98.501 389.135 102.012 410.974C105.25 431.122 104.305 451.12 103.21 471.349C103.183 471.821 103.919 471.913 104.029 471.458C105.979 463.34 105.417 454.663 105.613 446.381C105.871 435.363 104.891 424.387 103.199 413.506C99.7024 390.962 93.733 368.306 83.7966 347.696V347.696ZM83.6727 345.094C75.0455 335.806 68.5535 326.553 64.7895 314.308C62.8661 308.043 61.4815 301.608 59.7378 295.293C57.9294 288.748 57.7982 281.849 56.1101 275.265C56.0347 274.968 55.5911 275.094 55.6576 275.387C57.0996 282.034 57.4984 288.857 59.0895 295.469C60.8351 302.723 62.6632 310.071 64.9511 317.174C68.3506 327.735 73.8298 339.255 83.1502 345.767C83.5668 346.058 83.9888 345.437 83.6727 345.094V345.094ZM135.334 331.487C137.645 316.583 136.469 300.88 134.427 286.018C132.239 270.083 128.452 254.152 123.251 238.93C123.244 238.918 123.223 238.923 123.224 238.937C127.301 253.586 131.27 268.17 133.619 283.219C136.144 299.377 136.074 315.197 135.133 331.462C135.127 331.575 135.321 331.604 135.334 331.487V331.487ZM125.554 298.552C125.552 298.561 125.563 298.563 125.564 298.556C128.116 289.549 129.415 280.457 128.026 271.13C126.52 261.024 121.123 251.657 118.191 241.93C118.167 241.849 118.113 241.813 118.063 241.77C119.257 239.938 120.364 238.048 121.348 236.091C121.358 236.067 121.358 236.047 121.366 236.028C122.062 236.076 122.768 236.094 123.505 236.04C128.328 235.688 133.64 233.31 137.952 231.203C137.966 231.196 137.954 231.175 137.939 231.182C133.387 233.31 128.545 234.808 123.505 235.121C118.911 235.408 115.35 232.52 111.332 230.853C110.93 230.686 110.777 231.275 111.063 231.494C113.952 233.725 116.899 235.404 120.288 235.911C117.359 241.333 113.679 246.188 109.601 250.802C106.421 254.394 102.542 257.627 99.8946 261.643C98.4579 263.825 98.4885 265.916 96.6298 267.84C97.5331 267.15 98.4705 266.593 99.4295 266.336C99.6539 266.279 99.8838 266.074 99.9269 265.839C100.938 260.273 106.773 255.673 110.415 251.614C112.986 248.751 115.402 245.743 117.549 242.553C119.401 250.989 123.847 258.669 126.407 266.895C129.682 277.416 128.409 288.119 125.554 298.552V298.552ZM78.4325 285.276C77.7465 286.079 77.0514 286.876 76.396 287.708C76.3906 287.715 76.3996 287.724 76.4067 287.719C77.0622 286.885 77.7465 286.077 78.4325 285.276ZM78.7845 284.854C81.1801 282.1 83.7446 279.518 86.4204 277.014C88.3545 275.202 90.355 273.465 92.352 271.723C92.7525 271.372 93.1763 270.968 93.6127 270.548C92.185 271.798 90.7573 273.048 89.335 274.307C85.6069 277.619 82.0439 281.093 78.7845 284.854V284.854ZM96.2706 268.215C96.4089 268.089 96.5095 267.964 96.6298 267.84C95.5648 268.653 94.5519 269.646 93.6127 270.548C94.5016 269.772 95.3924 269 96.2706 268.215ZM141.77 209.685C142.451 213.765 147.747 213.306 150.722 213.015C150.742 213.015 150.744 212.977 150.722 212.977C147.071 213.221 142.21 212.959 142.131 208.312C142.073 204.85 143.788 201.588 144.683 198.33C144.692 198.294 144.681 198.267 144.674 198.237C149.126 196.963 153.551 195.778 158.119 194.959C158.328 194.919 158.238 194.609 158.03 194.644C153.321 195.424 148.601 196.539 144.115 198.193C144 198.233 144.042 198.413 144.164 198.38C144.225 198.36 144.277 198.348 144.333 198.332C142.918 201.671 141.158 206.008 141.77 209.685V209.685ZM154.718 212.736C159.116 208.876 161.106 202.333 159.658 196.726C159.646 196.683 159.576 196.699 159.588 196.748C160.935 202.694 158.019 207.987 154.463 212.481C154.319 212.663 154.54 212.896 154.718 212.736ZM140.287 230.835C149.014 226.821 159.633 223.956 166.333 216.797C171.326 211.461 172.443 203.027 168.799 196.661C167.136 193.748 164.161 192.092 160.953 191.482C158.99 191.108 155.526 192.78 153.578 193.263C150.527 194.021 147.416 194.574 144.309 195.059C130.388 197.231 116.337 192.974 102.335 193.615C102.305 193.617 102.303 193.667 102.335 193.666C113.62 193.331 124.656 196.171 135.905 196.55C140.549 196.706 145.225 195.921 149.77 195.07C155.065 194.077 161.068 191.214 165.734 195.002C172.843 200.774 169.243 211.966 163.837 217.293C157.142 223.892 148.393 226.514 140.252 230.774C140.209 230.796 140.245 230.853 140.287 230.835V230.835ZM53.3859 254.992C52.7124 261.295 52.2635 269.99 57.0243 274.961C57.0494 274.984 57.0871 274.952 57.0709 274.923C53.1273 268.016 53.2655 260.51 54.194 252.823C54.7453 248.255 57.6115 246.139 60.7039 243.151C64.1609 239.807 67.2624 235.985 70.4069 232.347C75.4568 226.516 79.686 220.459 83.829 214.019C83.9619 213.972 84.0409 213.834 84.0283 213.711C84.1917 213.46 84.3569 213.219 84.5149 212.966C88.8411 206.19 93.6971 199.465 100.069 194.468C100.137 194.415 100.044 194.292 99.9754 194.344C93.2464 199.357 88.5144 205.687 83.8757 212.591C83.7105 212.835 83.5398 213.067 83.3728 213.309C79.2496 211.513 75.0096 209.965 70.9923 207.943C70.9654 207.928 70.942 207.969 70.969 207.986C74.8785 210.193 78.9766 211.912 83.0568 213.758C82.3313 214.823 81.5914 215.87 80.8461 216.912C72.6427 214.41 64.0496 213.408 55.8911 210.644C55.8552 210.631 55.839 210.69 55.8767 210.701C63.8592 213.609 72.314 215.445 80.6144 217.244C75.6471 224.208 70.335 230.774 64.5488 237.184C62.0598 239.939 59.3175 242.483 56.7872 245.193C57.3924 235.115 54.995 225.289 52.0606 215.709C48.8568 205.247 45.3782 194.975 42.7743 184.333C42.7599 184.274 42.6629 184.286 42.6701 184.348C43.6794 194.344 47.3124 203.959 50.3204 213.491C53.7038 224.204 56.0599 234.963 55.8282 246.238C55.663 246.418 55.4924 246.594 55.3325 246.777C53.4559 248.943 53.6768 252.284 53.3859 254.992" fill="#72352E"/>
<defs>
<linearGradient id="paint0_linear" x1="108.847" y1="480.897" x2="108.847" y2="5.10341" gradientUnits="userSpaceOnUse">
<stop stop-color="#FAB6A1"/>
<stop offset="1" stop-color="#FACBAA"/>
</linearGradient>
<linearGradient id="paint1_linear" x1="104.214" y1="355.497" x2="104.214" y2="6.65877" gradientUnits="userSpaceOnUse">
<stop stop-color="#CE6D64"/>
<stop offset="1" stop-color="#F6887D"/>
</linearGradient>
</defs>
</svg>
