<svg width="345" height="478" viewBox="0 0 345 478" fill="none" xmlns="http://www.w3.org/2000/svg">
<path d="M341.311 90.3729C338.35 87.2729 333.754 85.4984 328.694 85.4984C323.574 85.4984 318.579 87.2819 314.988 90.3926C314.911 90.4645 314.833 90.5345 314.76 90.61C309.534 95.8311 306.729 104.72 304.252 112.56C303.13 116.112 302.069 119.464 300.98 121.8C300.808 122.174 300.686 122.566 300.623 122.968C297.302 129.177 293.633 136.517 290.985 144.465C290.744 145.185 290.694 145.954 290.841 146.696C290.523 146.967 290.216 147.235 289.921 147.49C289.043 148.249 288.142 149.036 287.556 149.429C286.948 149.832 286.452 150.381 286.111 151.028C284.317 154.412 282.907 158.228 281.538 161.919C279.27 168.053 276.921 174.391 272.952 178.357C272.577 178.734 272.27 179.176 272.051 179.655L271.717 180.395C271.308 180.431 270.878 180.451 270.431 180.451C266.376 180.451 261.658 178.856 258.724 176.511L257.81 175.767C256.718 172.347 257.485 168.209 258.291 163.843C258.704 161.616 259.13 159.31 259.311 156.944C259.836 147.531 259.836 138.197 259.836 128.311C259.836 128.022 259.807 127.731 259.75 127.444L259.243 124.92C258.354 120.184 258.392 114.981 258.431 109.474C258.455 106.092 258.482 102.59 258.273 99.1323C258.087 96.1221 257.77 93.3382 257.467 90.6459C256.925 85.9007 256.416 81.4231 256.729 76.4695C257.063 71.4621 255.946 66.6647 254.861 62.0255C254.082 58.6668 253.34 55.4896 253.123 52.2854V49.3363C253.123 49.0435 253.096 48.7543 253.038 48.4706C252.882 47.6875 252.744 46.9242 252.606 46.1878C251.374 39.4974 249.976 31.9108 238.711 30.0357C236.709 29.6532 234.805 29.4556 233.047 29.4556C227.672 29.4556 223.389 31.2283 220.309 34.7234C213.045 42.971 214.99 58.2538 216.549 70.5371C216.982 73.9263 217.389 77.1322 217.474 79.4456C217.811 88.2158 217.231 96.977 216.665 105.453C216.387 109.666 216.098 114.023 215.924 118.325C215.922 118.384 215.922 118.442 215.922 118.501V119.979C213.011 130.892 214.767 140.291 216.468 149.381C217.278 153.72 218.057 157.876 218.364 162.196C217.181 161.835 216.039 161.413 214.995 160.949L214.749 160.608L214.704 160.466C212.35 153.408 212.35 148.35 212.35 140.701C212.35 119.268 210.398 105.975 206.549 101.13L204.287 95.8545L203.112 93.1137C203.418 92.5084 203.574 91.8331 203.574 91.147C203.574 80.6005 202.868 70.0558 202.18 59.8613C201.316 47.0104 200.422 33.723 200.995 20.6189C200.997 20.556 200.997 20.4914 200.997 20.4286V18.5085C201.546 10.6471 198.544 5.40799 192.064 2.92762C188.262 1.27883 184.696 0.445483 181.456 0.445483C160.903 0.445483 159.98 29.971 159.427 47.6138C159.349 50.1858 159.278 52.4057 159.155 54.2611C158.123 71.295 157.056 88.9037 160.766 106.387L161.727 111.68C161.776 120.107 163.254 132.191 165.008 138.33C165.662 140.559 166.502 142.874 167.318 145.117C169.49 151.107 171.734 157.28 171.028 162.907C169.85 163.268 168.585 163.457 167.291 163.457C165.741 163.457 164.178 163.187 162.735 162.663C159.545 155.768 157.25 149.803 155.206 144.496C151.988 136.133 149.197 128.895 144.212 121.034L126.52 82.1056C125.652 77.2113 123.754 72.9671 121.75 68.4877C119.564 63.606 117.307 58.5609 116.299 52.2531C114.902 43.5332 107.651 37.4427 98.666 37.4427C95.4856 37.4427 92.3447 38.2078 89.2325 39.7632C73.5243 48.1078 79.0932 67.7963 83.1608 82.1702C84.3388 86.3443 85.4541 90.2849 85.9085 93.3382C86.0018 93.9812 86.2388 94.5954 86.5998 95.1378L87.2391 96.097C88.0742 99.1593 88.8626 102.275 89.624 105.295C92.5602 116.908 95.597 128.918 101.897 140.26C101.996 140.435 102.105 140.604 102.225 140.765L103.149 141.992C106.232 158.246 116.138 176.992 124.517 187.348C124.614 187.47 124.717 187.585 124.828 187.691L125.377 188.241C130.596 205.143 132.827 218.416 132.827 232.58C132.827 232.884 132.859 233.184 132.918 233.475C130.598 240.025 128.375 245.909 125.6 251.164C125.555 251.247 125.514 251.329 125.476 251.414C122.594 253.693 120.074 255.505 117.689 257.014C115.536 257.172 113.609 257.359 111.76 257.58C102.788 251.62 90.8649 248.968 80.291 246.615C79.2836 246.388 78.2904 246.169 77.3135 245.948L75.7529 245.169C75.3399 244.7 74.8137 244.303 74.1798 244.039C65.5508 237.816 53.2798 237.148 43.3667 236.609C41.7343 236.521 40.1576 236.435 38.6527 236.327C36.9736 236.208 35.2513 236.014 33.4267 235.808C30.3092 235.459 27.0839 235.1 23.8819 235.1C18.0328 235.1 9.60852 236.151 3.95162 245.216C0.428178 250.861 -0.602645 256.026 0.887903 260.567C3.07703 267.241 10.0683 270.768 15.9119 273.091C19.5808 274.551 23.3 276.191 26.9007 277.778C35.8117 281.712 45.0225 285.776 55.0002 287.835L55.8245 288.384C62.0705 292.547 70.272 295.55 78.2061 298.451C82.71 300.102 87.3648 301.804 91.4522 303.654L92.8026 304.337C93.6323 305.179 94.5033 306.12 95.4066 307.085C98.6086 310.522 101.92 314.073 105.11 315.9C105.18 315.941 105.255 315.981 105.329 316.02C108.283 317.495 110.65 318.149 112.552 318.675C115.513 319.492 116.865 319.866 119.29 323.018C119.329 323.066 119.369 323.117 119.408 323.163C123.221 327.705 142.785 350.047 163.868 356.877C172.161 366.743 170.859 384.237 169.99 395.96C168.986 413.59 167.95 431.82 163.855 455.864C163.6 457.364 164.137 458.887 165.272 459.898C166.084 460.616 185.549 477.532 223.942 477.532C261.457 477.532 281.409 470.337 282.241 470.031C284.469 469.209 285.651 466.761 284.9 464.503C284.608 463.632 284.608 462.529 284.608 461.249C284.608 461.031 284.591 460.814 284.559 460.6C280.614 434.106 279.611 410.465 281.49 388.4C282.442 379.114 284.344 369.919 286.184 361.026C288.205 351.257 290.291 341.162 291.193 330.721C293.831 325.283 295.663 319.4 297.435 313.703L298.317 310.887C304.716 291.694 308.332 272.74 309.37 253.016C309.543 250.5 309.762 247.906 309.985 245.268C311.041 232.663 312.235 218.397 309.063 205.957L308.939 204.418C310.821 200.125 312.985 195.813 315.079 191.633C318.059 185.69 321.142 179.544 323.55 173.218C324.8 169.885 326.241 166.44 327.763 162.796C331.637 153.528 336.015 143.057 338.054 132.06L338.576 131.275C338.725 131.05 338.855 130.811 338.962 130.564C342.279 122.813 344.984 109.341 344.994 100.496C345.142 96.546 343.87 93.049 341.311 90.3729" fill="#72352E"/>
<path d="M317.877 93.7261C311.166 100.436 308.586 115.922 304.973 123.665V124.182C301.361 130.892 297.748 138.12 295.165 145.861L295.684 148.443C293.616 149.992 291.554 152.055 290.004 153.09C285.36 161.862 283.297 174.251 276.07 181.478L274.79 184.295C269.115 185.931 260.879 183.88 255.942 179.928L253.744 178.14L253.875 177.867C251.298 171.151 254.394 163.414 254.91 156.702C255.427 147.411 255.427 138.12 255.427 128.311L254.91 125.73C253.364 117.47 254.396 108.179 253.875 99.4053C253.364 91.147 251.814 84.4351 252.329 76.1767C252.846 68.4339 249.235 60.691 248.716 52.4309V49.3345C247.168 41.5916 247.168 35.9142 237.878 34.366C211.039 29.2023 221.362 65.3357 221.879 79.2732C222.394 92.6934 220.848 105.6 220.329 118.503V120.568C215.685 137.087 222.912 149.992 222.912 165.991L221.879 167.541C218.781 167.027 215.17 165.991 212.074 164.443L210.784 162.638L210.524 161.862C207.945 154.121 207.945 148.443 207.945 140.699C207.945 132.44 207.426 107.664 202.784 103.533C201.234 99.9208 199.686 96.3071 198.138 92.6934L199.167 91.1452C199.167 67.4012 195.557 44.1726 196.59 20.4286V18.3631C197.104 11.653 194.527 8.55475 190.394 7.00834C162.011 -5.38095 164.588 39.0107 163.557 54.4964C162.525 71.5303 161.492 88.5642 165.105 105.6L166.136 111.276C166.136 119.536 167.648 131.526 169.232 137.087C171.816 145.861 177.491 156.183 174.912 165.991C174.912 165.991 174.921 166.023 174.928 166.056C170.521 168.344 165.062 168.428 160.459 166.506C160.459 166.506 160.053 166.365 159.418 166.19L159.427 165.991C150.654 147.411 148.589 136.05 140.332 123.148L122.269 83.4023C120.721 73.594 114.008 65.8529 111.947 52.9482C110.476 43.7595 100.591 39.0107 91.2998 43.6571C74.7835 52.4309 88.2037 78.7559 90.269 92.6934L91.2998 94.2416C95.4302 109.212 98.009 124.182 105.751 138.12L107.299 140.183C109.88 155.154 119.184 173.752 127.944 184.577L129.591 186.224L129.494 186.639C134.136 201.609 137.232 216.062 137.232 232.58L137.738 233.058C135.276 240.068 132.771 247.031 129.494 253.228L130.009 253.429C126.671 256.146 123.267 258.733 119.685 260.971L119.951 261.28C117.284 261.447 114.613 261.669 111.947 262.002H110.397C101.105 255.292 87.1711 252.712 75.8178 250.13L72.72 248.58C72.2046 248.068 72.72 248.068 72.2046 248.068C63.3655 241.189 48.9323 241.482 38.3422 240.724C27.3337 239.937 14.7664 236.208 7.68904 247.549C0.135733 259.651 7.76624 265.107 17.541 268.996C30.5016 274.148 42.9019 281.009 56.7208 283.682L58.2689 284.715C67.5588 290.909 82.0117 294.523 93.365 299.685L95.4302 300.72C99.0417 304.331 103.687 310.007 107.299 312.072C114.525 315.686 117.621 313.622 122.783 320.331C132.336 331.707 150.311 348.689 167.167 353.262L166.653 353.368C176.46 364.209 175.43 382.274 174.393 396.209C173.362 414.278 172.33 432.344 168.201 456.602C168.201 456.602 186.783 473.124 223.942 473.124C261.104 473.124 280.718 465.897 280.718 465.897C280.201 464.347 280.201 462.797 280.201 461.25C276.586 436.991 275.036 412.214 277.105 387.949C279.154 367.959 285.27 349.492 286.872 329.516C289.997 323.321 291.949 316.415 294.135 309.495C300.327 290.911 303.94 272.327 304.973 252.712C305.985 238.064 308.458 220.96 304.7 206.69L304.459 203.673C309.103 192.835 315.297 182.511 319.424 171.668C324.069 159.283 331.296 145.345 333.877 130.377L334.907 128.827C338.005 121.599 340.586 108.695 340.586 100.436C341.101 89.0815 325.617 87.0142 317.877 93.7261" fill="url(#paint0_linear)"/>
<path d="M317.877 93.7261C311.166 100.436 308.586 115.922 304.973 123.665V124.182C301.361 130.892 297.748 138.12 295.165 145.861L295.684 148.443C293.616 149.992 291.554 152.055 290.004 153.09C285.36 161.862 283.297 174.251 276.07 181.478L274.79 184.295C274.538 184.367 274.274 184.424 274.01 184.481C275.54 185.173 277.572 185.067 279.921 185.59C283.809 186.455 285.536 179.975 288.126 175.656C290.719 171.334 299.79 162.693 301.95 161.831C304.109 160.967 312.747 164.856 312.747 164.856C312.747 164.856 316.635 160.103 314.909 158.376C313.181 156.648 303.245 151.895 303.245 151.895C303.245 151.895 310.586 129.001 312.316 128.566C314.045 128.135 320.09 127.271 320.09 127.271L315.771 118.632C315.771 118.632 318.797 105.241 322.248 97.8966C323.992 94.1949 326.83 91.5924 329.218 89.9202C325.206 89.7981 320.936 91.0733 317.877 93.7261V93.7261ZM166.136 111.275C166.136 119.536 167.648 131.526 169.232 137.087C171.816 145.861 177.491 156.183 174.912 165.991C174.912 165.991 174.921 166.023 174.928 166.056C174.848 166.099 174.763 166.126 174.682 166.167C179.477 166.889 188.78 161.4 188.78 161.4C188.78 161.4 185.325 154.92 184.892 152.328C184.459 149.735 185.757 148.873 185.757 148.873C185.757 148.873 176.687 122.088 176.687 119.063C176.687 116.04 178.847 109.993 178.847 109.993C178.847 109.993 172.368 106.105 171.935 103.513C171.502 100.921 176.687 100.488 176.687 100.488C176.687 100.488 172.799 96.5998 173.23 94.872C173.661 93.1442 171.073 61.6088 172.368 58.1514C173.662 54.6958 179.276 50.8072 179.276 50.8072L172.799 46.9206C172.799 46.9206 171.504 27.9127 171.935 17.9769C172.166 12.6102 174.291 8.64093 176.331 5.90911C162.936 11.9385 164.371 42.2508 163.557 54.4964C162.525 71.5303 161.492 88.5642 165.105 105.6L166.136 111.275ZM279.057 333.334C271.712 339.382 268.689 354.07 268.689 354.07C268.689 354.07 241.91 354.503 224.201 354.07C206.49 353.637 200.877 350.614 200.877 350.614C209.082 343.701 212.104 329.015 212.104 329.015C205.194 342.408 189.213 347.159 175.39 344.998C161.567 342.837 155.088 340.678 142.564 331.607C130.036 322.535 128.741 305.256 128.741 305.256C128.741 305.256 116.215 302.663 111.031 297.91C105.848 293.158 108.872 287.111 108.872 287.111C108.872 287.111 74.3147 281.494 69.9975 278.472C65.6767 275.447 64.8147 268.103 64.8147 268.103C64.8147 268.103 62.2216 273.719 53.5836 270.695C44.942 267.672 21.6194 261.623 15.1418 258.167C8.66059 254.711 9.52434 245.208 9.52434 245.208L9.47944 245.131C8.85449 245.85 8.25473 246.647 7.68904 247.549C0.135733 259.651 7.76624 265.107 17.541 268.996C30.5016 274.148 42.9019 281.009 56.7208 283.682L58.2689 284.715C67.5588 290.909 82.0117 294.523 93.365 299.685L95.4303 300.72C99.0417 304.331 103.687 310.007 107.299 312.072C114.525 315.686 117.621 313.622 122.783 320.331C132.336 331.707 150.311 348.689 167.167 353.262L166.653 353.368C173.499 360.936 175.058 372.027 175.027 382.775C179.682 373.913 192.235 362.711 192.235 362.711C212.104 357.096 261.781 360.548 266.098 360.117C270.417 359.686 271.281 358.391 273.443 357.096C274.84 356.256 279.13 358.131 281.986 359.561C284.028 349.67 286.046 339.793 286.872 329.516C288.537 326.216 289.864 322.712 291.078 319.113C287.395 324.433 282.93 330.145 279.057 333.334V333.334ZM91.2998 94.2416C95.4303 109.212 98.009 124.182 105.751 138.12L107.299 140.183C109.88 155.153 119.184 173.752 127.944 184.577L129.591 186.224L129.494 186.639C134.136 201.609 137.232 216.062 137.232 232.58L137.37 232.71C138.954 230.249 140.834 226.632 140.834 226.632C140.834 226.632 139.54 203.302 137.379 193.367C135.219 183.431 137.81 178.68 137.81 178.68C137.81 178.68 133.922 176.088 126.15 166.151C118.374 156.215 116.215 141.528 114.919 138.935C113.624 136.343 114.055 131.16 114.055 131.16C114.055 131.16 98.5065 102.647 98.5065 98.3277C98.5065 94.0081 102.824 92.2803 102.824 92.2803C102.824 92.2803 98.5065 90.1214 96.3443 86.2329C94.1839 82.3444 89.4339 64.2005 89.0029 56.4236C88.73 51.5221 90.1738 46.6242 91.2764 43.6697C74.796 52.4578 88.2037 78.7631 90.269 92.6934L91.2998 94.2416ZM220.329 120.568C215.685 137.087 222.912 149.992 222.912 165.991L221.879 167.541C221.707 167.512 221.518 167.466 221.342 167.433C225.909 170.706 237.589 174.359 237.589 174.359C237.589 174.359 235.863 170.039 235.863 168.743C235.863 167.448 244.934 164.856 243.637 163.128C242.341 161.4 233.272 160.967 233.272 160.967C233.272 160.967 228.089 138.935 228.089 137.209C228.089 135.479 228.951 123.816 231.542 119.927C234.134 116.04 246.229 119.927 246.229 119.927L241.046 113.016L231.975 110.855C231.975 110.855 229.384 81.9116 229.384 77.592C229.384 73.2725 234.134 69.8169 234.134 69.8169C234.134 69.8169 224.632 50.8073 225.496 44.7617C226.101 40.5176 227.769 36.4944 228.71 34.4684C213.749 38.876 221.434 67.2808 221.879 79.2731C222.394 92.6934 220.848 105.6 220.329 118.503V120.568" fill="url(#paint1_linear)"/>
<path d="M219.047 224.315C208.651 217.385 200.061 208.105 191.276 199.157C200.023 208.136 208.627 217.545 219.047 224.315ZM235.191 231.837C231.715 230.734 228.321 229.455 225.124 227.835C223.026 226.772 221.006 225.586 219.047 224.315C220.986 225.608 222.987 226.822 225.063 227.936C228.311 229.669 231.709 230.824 235.191 231.837V231.837ZM191.276 199.157C188.11 195.91 184.928 192.716 181.63 189.726C181.62 189.717 181.6 189.735 181.614 189.748C184.922 192.756 188.11 195.937 191.276 199.157V199.157ZM292.586 244.088C292.755 244.098 292.797 243.815 292.626 243.791C281.095 242.076 269.729 240.21 258.376 237.521C253.739 236.424 248.922 235.44 244.142 234.297C248.366 235.44 252.597 236.569 256.847 237.629C268.52 240.531 280.549 243.31 292.586 244.088V244.088ZM238.528 232.774C237.407 232.469 236.298 232.158 235.191 231.837C238.128 232.769 241.123 233.573 244.142 234.297C242.269 233.785 240.399 233.283 238.528 232.774ZM210.82 240.386C204.974 237.067 198.908 233.897 192.578 231.689C198.774 234.421 204.879 237.259 210.82 240.386ZM190.89 231.106C191.455 231.287 192.016 231.494 192.578 231.689C192.036 231.451 191.495 231.204 190.949 230.966C190.847 230.922 190.784 231.073 190.89 231.106ZM264.571 289.508C264.756 289.697 265.042 289.41 264.861 289.216C254.326 277.893 245.548 264.863 233.484 255.04C226.395 249.271 218.756 244.565 210.82 240.386C211.781 240.932 212.738 241.48 213.684 242.031C220.862 246.175 227.857 250.873 234.283 256.114C246.017 265.675 254.128 278.7 264.571 289.508V289.508ZM272.166 356.807C270.038 360.008 267.127 359.81 263.709 359.801C260.367 359.79 257.031 359.742 253.689 359.684C246.43 359.568 239.173 359.411 231.914 359.345C218.539 359.225 205.122 359.731 191.942 362.134C191.935 362.136 191.937 362.149 191.944 362.147C207.061 359.411 222.423 359.218 237.738 359.492C244.968 359.62 252.203 359.959 259.432 360.171C264.06 360.304 270.25 362.208 272.75 357.152C272.944 356.76 272.408 356.444 272.166 356.807V356.807ZM225.625 331.727C228.416 319.973 228.128 307.487 227.112 295.531C226.052 283.095 223.617 270.635 219.33 258.898C219.316 258.851 219.248 258.871 219.264 258.916C227.051 281.762 229.786 307.859 225.356 331.653C225.325 331.826 225.58 331.903 225.625 331.727V331.727ZM205.966 280.562C205.925 280.456 205.754 280.496 205.792 280.609C210.486 294.836 213.798 309.84 212.276 324.895C211.504 332.508 209.067 340.048 204.143 346.002C198.899 352.339 191.039 355.466 183.117 356.795C182.902 356.829 182.954 357.202 183.169 357.174C220.478 352.401 216.215 306.584 205.966 280.562V280.562ZM166.621 353.384C177.179 367.251 174.438 385.631 173.583 401.862C173.149 410.104 172.529 418.339 171.73 426.552C170.753 436.598 168.688 446.564 167.881 456.602C167.853 456.972 168.422 457.033 168.51 456.688C171.024 446.995 171.744 436.501 172.721 426.552C173.599 417.586 174.126 408.591 174.698 399.6C175.652 384.607 178.279 365.146 166.678 353.344C166.651 353.314 166.596 353.353 166.621 353.384V353.384ZM304.311 205.779C305.096 211.036 306.01 216.128 306.204 221.466C306.407 226.98 306.057 232.512 305.649 238.01C304.791 249.618 304.094 261.303 302.401 272.823C300.714 284.257 298.075 295.567 294.407 306.53C290.967 316.811 288.284 327.718 282.153 336.785C282.072 336.903 282.26 337.049 282.356 336.937C283.95 335.114 285.315 333.182 286.517 331.167C284.054 353.262 277.343 374.608 276.164 396.883C275.533 408.834 275.632 420.914 276.404 432.855C276.792 438.857 277.356 444.854 278.083 450.822C278.683 455.747 278.75 461.31 280.443 465.972C280.569 466.321 281.046 466.181 280.989 465.82C280.66 463.718 280.944 461.672 280.646 459.58C280.161 456.168 279.712 452.75 279.301 449.33C278.586 443.349 277.974 437.363 277.518 431.355C276.643 419.86 276.314 408.408 276.844 396.883C277.879 374.346 285.245 352.815 286.965 330.401C290.611 323.998 292.637 316.83 294.803 309.675C298.445 297.641 301.582 285.562 303.484 273.123C305.19 261.96 305.68 250.629 306.546 239.382C307.37 228.69 308.699 215.916 304.602 205.7C304.531 205.517 304.286 205.585 304.311 205.779V205.779ZM333.686 130.323C330.511 143.084 325.885 154.857 320.936 167.022C318.377 173.306 315.823 179.519 312.842 185.629C309.932 191.592 306.793 197.456 304.423 203.664C304.407 203.701 304.471 203.73 304.491 203.69C310.421 191.592 316.46 179.681 321.494 167.176C326.255 155.337 332.569 143.202 334.076 130.377C334.105 130.149 333.738 130.109 333.686 130.323V130.323ZM293.012 157.305C298.416 163.265 306.522 162.085 313.206 165.522C313.264 165.547 313.305 165.472 313.255 165.434C310.874 163.613 307.706 163.194 304.836 162.647C300.397 161.803 296.367 160.531 293.192 157.129C293.08 157.005 292.904 157.185 293.012 157.305V157.305ZM298.173 150.455C297.672 151.213 297.302 151.667 297.029 152.517C296.986 152.655 297.107 152.763 297.232 152.777C304.536 153.718 310.583 156.761 317.308 159.468C317.525 159.556 317.628 159.232 317.459 159.114C314.386 157.021 310.644 155.678 307.149 154.451C305.121 153.747 303.033 153.246 300.932 152.82C299.538 152.538 297.02 152.661 298.351 150.557C298.425 150.446 298.247 150.342 298.173 150.455V150.455ZM326.068 128.027C326.372 128.08 326.501 127.65 326.199 127.562C323.171 126.666 309.263 125.926 309.349 121.599C309.356 121.28 308.859 121.28 308.853 121.599C308.801 123.977 312.269 124.857 314.023 125.414C317.911 126.65 322.06 127.302 326.068 128.027V128.027ZM340.742 97.832C339.616 90.2975 330.358 88.7672 324.283 90.1484C314.86 92.2947 311.703 102.705 308.966 110.771C308.002 113.618 306.969 116.452 305.784 119.214C304.843 121.404 304.531 124.414 303.466 126.433C300.163 132.683 297.22 139.104 294.937 145.8C294.84 146.089 295.296 146.211 295.39 145.923C297.387 140.138 299.894 134.589 302.67 129.139C304.841 124.868 306.942 121.745 308.16 117.088C310.32 108.813 312.666 96.7489 320.7 92.1546C327.681 88.1655 339.647 90.0855 340.253 99.5597C340.855 109.014 338.143 120.033 334.546 128.728C334.363 129.173 335.089 129.369 335.268 128.927C337.414 123.737 338.713 118.244 339.713 112.73C340.577 107.962 341.468 102.662 340.742 97.832V97.832ZM276.158 181.566C280.272 177.47 282.587 172.168 284.676 166.837C285.804 163.952 286.827 161.03 287.977 158.155C289.713 153.817 292.973 152.053 296.097 148.855C296.564 148.384 295.964 147.592 295.386 147.935C294.163 148.664 293.201 149.492 292.127 150.435C291.486 151.001 289.607 152.055 289.37 152.912C288.587 155.755 287.267 158.456 286.226 161.221C283.535 168.342 281.168 175.629 275.982 181.389C275.873 181.509 276.043 181.685 276.158 181.566V181.566ZM265.979 184.918C268.765 185.608 273.493 186.344 275.797 184.304C276.05 184.083 275.826 183.745 275.556 183.713C274.143 183.56 273.058 184.036 271.62 184.228C269.86 184.46 267.98 184.216 266.25 183.944C262.617 183.382 258.983 181.978 255.971 179.876C255.915 179.839 255.845 179.928 255.899 179.97C258.936 182.429 262.186 183.986 265.979 184.918V184.918ZM227.918 164.08C227.981 164.15 228.103 164.168 228.179 164.114C234.739 159.983 242.687 162.798 248.605 166.702C248.815 166.842 249.07 166.515 248.876 166.348C245.869 163.775 241.967 162.428 238.115 161.786C236.289 161.483 234.466 161.565 232.643 161.817C230.152 162.156 228.32 164.482 226.672 161.777C226.557 161.589 226.266 161.758 226.376 161.948C226.837 162.756 227.295 163.406 227.918 164.08ZM255.01 179.241C246.356 175.338 236.824 173.479 227.557 171.661C227.545 171.656 227.537 171.679 227.554 171.683C236.797 173.971 245.993 176.062 254.856 179.607C255.068 179.69 255.215 179.336 255.01 179.241V179.241ZM255.565 128.311C255.56 128.13 255.294 128.13 255.287 128.311C254.96 137.31 254.956 146.311 254.518 155.306C254.148 162.875 250.659 170.598 253.087 178.084C253.412 179.092 255.014 178.648 254.673 177.646C251.997 169.835 255.15 161.851 255.515 153.914C255.906 145.401 255.874 136.823 255.565 128.311V128.311ZM244.589 69.842C237.921 69.3409 230.255 68.2723 223.897 70.8514C223.7 70.9304 223.784 71.2591 223.991 71.1765C230.669 68.4968 237.675 70.467 244.589 70.1204C244.769 70.1114 244.767 69.8564 244.589 69.842V69.842ZM226.085 110.43C226.833 110.972 227.73 111.295 228.583 111.628C230.797 112.488 233.317 112.657 235.664 112.791C238.462 112.951 241.286 112.788 244.084 112.671C244.867 112.639 247.409 112.041 247.527 113.381C247.602 114.264 248.005 115.065 248.182 115.927C248.184 115.947 248.217 115.944 248.217 115.922C248.217 114.675 248.016 113.564 247.935 112.31C247.928 112.172 247.827 112.057 247.685 112.057C240.588 112.037 231.785 113.964 225.605 109.533C225.467 109.435 225.264 109.567 225.268 109.729C225.287 110.415 225.282 111.105 225.311 111.793C225.32 112.028 225.664 112.028 225.673 111.793C225.695 111.234 225.23 109.814 226.085 110.43V110.43ZM223.436 120.61C227.343 119.712 231.953 120.337 235.894 120.631C239.819 120.922 245.774 120.879 249.133 123.322C249.341 123.473 249.54 123.126 249.335 122.979C246.101 120.651 240.559 120.698 236.768 120.374C232.668 120.026 227.424 119.207 223.416 120.527C223.362 120.545 223.385 120.622 223.436 120.61ZM248.303 52.4309C248.759 57.9035 250.298 63.1499 251.359 68.5183C252.647 75.0219 251.724 81.8452 252.403 88.4511C253.019 94.4554 253.638 100.366 253.645 106.41C253.649 109.695 253.586 112.976 253.642 116.258C253.694 119.397 254.335 122.614 253.944 125.73C253.764 127.158 256.548 126.84 255.747 125.24C254.213 122.178 254.479 118.223 254.421 114.864C254.36 111.577 254.441 108.289 254.43 105C254.418 98.9976 253.651 93.0885 253.033 87.1292C252.473 81.7374 253.247 76.2468 252.51 70.9071C251.652 64.6891 249.65 58.7046 249.136 52.4309C249.089 51.8975 248.254 51.8939 248.303 52.4309V52.4309ZM220.282 118.503C220.284 118.566 220.374 118.564 220.379 118.503C221.762 104.725 223.536 90.5471 222.243 76.6958C221.556 69.323 220.158 62.0632 219.955 54.6419C219.765 47.7989 220.392 38.788 227.376 35.3826C231.729 33.2597 238.19 34.1864 242.357 36.2232C247.211 38.5976 247.236 44.9 248.36 49.4333C248.479 49.9057 249.136 49.6919 249.073 49.2357C248.468 44.9844 247.888 40.1314 244.776 36.9093C241.66 33.6854 235.655 33.2184 231.443 33.504C224.048 34.0069 220.376 40.2177 219.472 46.9601C218.309 55.6441 219.799 64.5005 220.798 73.1306C222.545 88.2032 220.06 103.396 220.282 118.503V118.503ZM221.776 167.916C222.263 167.997 222.473 167.254 221.979 167.169C218.601 166.575 215.302 165.705 212.181 164.254C211.932 164.141 211.709 164.506 211.96 164.631C215.058 166.198 218.359 167.316 221.776 167.916ZM223.346 165.991C223.143 150.609 216.816 136.07 220.598 120.64C220.683 120.294 220.158 120.148 220.061 120.493C215.744 135.9 222.288 150.556 222.475 165.991C222.482 166.553 223.355 166.557 223.346 165.991ZM135.844 183.07C136.041 182.54 135.691 182.184 135.339 181.825C135.122 181.599 134.775 181.945 135 182.163C135.314 182.472 135.378 182.685 135.528 183.07C135.587 183.224 135.786 183.226 135.844 183.07V183.07ZM155.303 169.087C154.863 168.398 154.44 168.003 153.901 167.392C153.818 167.302 153.685 167.32 153.599 167.392C147.912 172.301 141.19 175.343 134.599 178.801C134.493 178.858 134.569 179.048 134.683 179C138.403 177.488 141.996 175.668 145.487 173.682C147.38 172.599 149.185 171.376 150.954 170.1C152.423 169.037 153.743 167.018 155.294 169.093C155.3 169.098 155.307 169.093 155.303 169.087V169.087ZM184.717 162.338C184.662 162.338 184.662 162.422 184.717 162.424C192.152 162.571 200.314 163.52 207.478 161.018C207.713 160.935 207.62 160.588 207.377 160.648C199.846 162.28 192.38 162.234 184.717 162.338V162.338ZM204.391 148.149C204.641 148.088 204.592 147.669 204.328 147.696C199.041 148.26 193.727 148.551 188.446 149.149C186.104 149.413 180.627 149.422 179.384 151.955C179.272 152.186 179.614 152.388 179.729 152.158C181.196 149.243 189.372 149.535 192.001 149.307C196.073 148.953 200.395 149.061 204.391 148.149V148.149ZM178.524 152.51C178.445 152.51 178.445 152.634 178.524 152.634C178.868 152.632 179.211 152.628 179.556 152.626C179.626 152.626 179.626 152.517 179.556 152.517C179.211 152.515 178.868 152.511 178.524 152.51ZM182.898 51.1198C184.976 51.0192 190.933 50.1032 192.4 51.9747C192.456 52.0501 192.589 51.9478 192.531 51.8723C191.233 50.1445 187.377 50.6564 185.603 50.6708C181.576 50.7013 177.324 50.7588 173.337 51.2994C173.21 51.3173 173.258 51.4898 173.362 51.5024C176.449 51.8544 179.802 51.2689 182.898 51.1198ZM188.756 109.045C190.904 108.641 192.926 107.816 194.826 106.762C196.726 105.708 196.954 104.937 199.116 105.792C199.325 105.877 199.472 105.523 199.269 105.428C198.752 105.18 197.705 104.714 197.285 104.386C197.164 104.296 197.046 104.292 196.924 104.386C190.751 109.336 183.01 109.501 175.429 109.686C175.372 109.688 175.372 109.77 175.429 109.77C179.905 109.876 184.34 109.875 188.756 109.045V109.045ZM168.531 99.3514C167.734 101.315 166.709 102.956 166.477 105.083C166.454 105.307 166.802 105.304 166.829 105.083C167.154 102.283 167.953 99.5562 171.01 99.9764C173.093 100.26 175.221 100.172 177.313 100.043C182.273 99.7394 187.28 98.545 191.998 97.0165C192.238 96.9375 192.14 96.5622 191.892 96.6304C184.374 98.7228 176.593 100.641 168.77 99.2149C168.652 99.1934 168.571 99.2472 168.531 99.3514V99.3514ZM197.849 92.8623C198.621 94.6709 199.389 96.4795 200.16 98.2882C200.966 100.176 201.336 102.512 202.345 104.231C203.285 105.833 204.055 107.425 204.619 109.212C206.32 114.589 206.796 120.207 207.176 125.809C207.503 130.594 207.55 135.382 207.708 140.174C207.742 141.37 207.832 142.59 207.896 143.817C207.995 142.071 208.185 140.363 208.196 139.005C208.241 133.656 208.006 128.286 207.638 122.948C207.298 118.032 206.961 112.94 205.878 108.123C205.522 106.552 205.046 105.016 204.075 103.705C201.55 100.298 200.104 96.4256 198.423 92.5264C198.256 92.1312 197.683 92.4725 197.849 92.8623V92.8623ZM207.948 147.473C207.999 146.263 207.963 145.04 207.896 143.817C207.826 145.058 207.821 146.302 207.948 147.473ZM209.665 162.097C210.026 163.18 211.718 162.729 211.38 161.627C210.827 159.807 210.314 157.995 209.892 156.143C209.561 154.71 209.773 151.96 209.008 150.847C208.383 149.932 208.087 148.75 207.948 147.473C207.893 148.686 207.755 149.887 207.435 151.053C206.616 154.031 208.757 159.353 209.665 162.097V162.097ZM196.897 20.4286C196.87 20.1053 196.349 19.9796 196.292 20.346C195.415 25.7719 195.83 31.5516 195.994 37.0296C196.179 43.0357 196.57 49.0399 196.96 55.037C197.744 67.0509 198.994 79.1061 199.115 91.1452C199.115 91.2152 199.222 91.2152 199.222 91.1452C199.266 79.5624 198.786 68.0927 198.021 56.5368C197.624 50.5379 197.287 44.5408 197.087 38.533C196.893 32.5287 197.387 26.4023 196.897 20.4286V20.4286ZM165.127 105.593C161.948 88.2786 162.995 71.0131 164.017 53.5625C164.468 45.8968 164.371 38.2312 165.227 30.5907C166.086 22.8963 167.6 13.4706 173.669 8.0249C176.778 5.2374 180.984 4.83867 184.929 5.59122C187.474 6.07616 190.11 7.1017 192.339 8.40565C195.792 10.4262 195.985 14.8033 195.778 18.3631C195.717 19.4048 197.357 19.4066 197.398 18.3631C197.601 13.5712 196.056 8.86545 191.256 6.93288C187.005 5.22122 182.665 3.82927 178.067 4.9087C170.096 6.7838 167.127 16.3209 165.655 23.2879C163.744 32.3455 163.638 41.7479 163.318 50.9653C162.684 69.287 161.016 87.5243 165.082 105.604C165.087 105.636 165.13 105.623 165.127 105.593ZM117.041 85.8737C110.118 89.8736 101.82 95.0445 93.433 93.4765C93.2247 93.4388 93.0828 93.595 93.1169 93.7944C93.248 94.6781 93.4995 95.4935 93.627 96.3771C93.6791 96.7058 94.1765 96.5657 94.1298 96.2388C93.7203 93.4801 94.3722 94.3009 96.899 94.2416C99.3449 94.1859 101.791 93.4944 104.106 92.7778C108.638 91.3715 113.566 89.1659 117.194 86.0731C117.309 85.9761 117.16 85.8037 117.041 85.8737ZM133.056 131.32C126.988 134.641 121.066 137.825 114.52 140.16C114.489 140.171 114.5 140.216 114.529 140.205C120.979 138.096 127.59 135.425 133.159 131.496C133.265 131.422 133.17 131.255 133.056 131.32ZM107.59 136.438C107.442 136.74 107.891 137.002 108.039 136.702C111.487 129.586 123.025 127.801 130.122 126.09C131.248 126.605 132.387 127.094 133.568 127.471C133.786 127.543 133.913 127.221 133.723 127.108C132.667 126.47 131.532 126.145 130.357 126.03C130.435 126.012 130.519 125.993 130.593 125.975C130.876 125.904 130.806 125.482 130.524 125.477C130.354 125.481 130.181 125.47 130.011 125.447C129.732 125.418 129.612 125.86 129.867 125.975C129.881 125.982 129.896 125.987 129.908 125.994C126.187 125.799 122.089 127.622 118.668 128.82C114.567 130.256 109.599 132.297 107.59 136.438ZM178.881 162.738C177.742 163.672 176.57 164.477 175.372 165.15C177.13 155.739 172.788 146.933 169.914 138.148C168.548 133.978 167.977 129.529 167.429 125.193C166.831 120.47 167.039 115.994 166.951 111.275C166.933 110.225 165.326 110.223 165.322 111.275C165.306 115.489 166.152 119.803 166.61 124.006C167.039 127.916 167.635 131.821 168.512 135.659C170.819 145.719 176.893 154.837 174.695 165.522C170.349 167.753 165.604 168.206 160.481 166.426C160.377 166.391 160.337 166.55 160.438 166.589C166.587 169.148 174.801 168.719 179.197 163.054C179.373 162.828 179.107 162.55 178.881 162.738V162.738ZM139.951 123.372C143.945 129.753 146.884 136.595 149.614 143.594C152.592 151.227 155.853 158.679 159.048 166.214C159.263 166.729 160.073 166.287 159.809 165.77C152.635 151.811 149.174 136.273 140.712 122.927C140.409 122.449 139.647 122.887 139.951 123.372V123.372ZM122.684 84.9793C124.555 90.8363 127.022 96.4076 129.582 101.997C132.636 108.659 136.443 115.3 138.694 122.284C138.976 123.16 140.29 122.593 139.841 121.799C136.67 116.177 134.242 110.013 131.514 104.161C128.544 97.7817 125.72 91.3266 122.872 84.8985C122.826 84.7925 122.648 84.8679 122.684 84.9793ZM90.134 92.7311C90.161 92.8838 90.4267 92.8496 90.4052 92.6934C89.4516 85.4337 86.8207 78.4111 85.1362 71.2986C83.2416 63.2954 81.5428 52.8099 88.0527 46.3836C91.9227 42.5633 98.0286 41.8 103.044 43.3338C109.409 45.2772 111.07 51.1611 112.415 56.8798C113.487 61.422 115.367 65.7236 117.363 69.921C119.487 74.3896 119.634 79.2857 121.658 83.7561C121.974 84.4494 122.923 84.0274 122.967 83.4023C123.138 81.1554 122.495 79.0612 121.547 77.0389C120.229 74.2298 118.494 71.7028 117.28 68.7859C114.795 62.8302 113.437 57.0809 111.945 50.854C109.576 40.9971 98.0214 39.14 90.3047 43.7487C82.8986 48.1724 82.2916 57.1671 83.3027 64.8543C84.558 74.3789 88.3759 83.3161 90.134 92.7311V92.7311ZM91.5222 94.1805C91.4217 93.9022 91.0248 94.0117 91.0769 94.3045C92.5243 102.026 94.8732 109.778 97.0947 117.312C99.2299 124.556 101.954 131.585 105.589 138.213C105.706 138.425 106.027 138.236 105.912 138.024C102.119 130.975 99.4365 123.509 97.2564 115.821C95.2289 108.682 94.049 101.158 91.5222 94.1805V94.1805ZM109.594 150.527C110.872 154.568 112.492 158.492 114.229 162.352C117.81 170.309 122.285 177.965 127.725 184.794C127.974 185.107 128.407 184.667 128.161 184.359C122.998 177.874 118.848 170.67 115.297 163.202C113.32 159.038 111.639 154.74 110.192 150.363C109.666 148.779 109.799 147.17 109.368 145.57C108.877 143.716 108.385 141.872 107.848 140.032C107.67 139.432 106.677 139.526 106.731 140.183C106.857 141.794 107.046 143.308 107.396 144.891C107.864 146.999 108.954 148.495 109.594 150.527V150.527ZM129.025 186.77C130.535 193.861 133.301 200.605 134.687 207.746C136.289 215.988 136.731 224.223 137.173 232.58C137.176 232.656 137.291 232.657 137.293 232.58C137.607 225.152 136.711 217.633 135.511 210.316C134.215 202.435 132.983 193.932 129.959 186.511C129.727 185.944 128.894 186.145 129.025 186.77ZM154.655 233.913C145.67 238.845 138.173 245.914 130.278 252.447C134.924 243.504 137.507 233.775 140.877 224.329C140.888 224.291 140.833 224.275 140.816 224.315C137.203 233.97 133.771 243.8 129.192 253.05C129.138 253.158 129.143 253.258 129.179 253.343C126.047 255.904 122.838 258.359 119.437 260.543C119.241 260.664 119.185 260.859 119.218 261.034C116.777 261.226 114.347 261.45 111.946 261.738C111.609 261.775 111.605 262.309 111.946 262.269C124.347 260.804 136.698 261.853 149.104 261.127C149.309 261.113 149.309 260.825 149.104 260.811C139.744 260.236 130.108 260.24 120.645 260.915C132.801 253.036 142.725 242.231 154.91 234.344C155.176 234.17 154.941 233.758 154.655 233.913V233.913ZM126.864 301.231C126.275 307.721 125.295 313.127 127.92 319.312C127.931 319.348 127.985 319.323 127.974 319.293C125.616 313.125 126.503 307.602 126.958 301.231C126.963 301.172 126.87 301.172 126.864 301.231V301.231ZM110.553 288.889C113.186 281.611 112.796 273.71 112.016 266.131C112.007 266.041 111.869 266.036 111.873 266.131C112.104 273.868 112.476 281.279 110.239 288.799C110.179 289.006 110.483 289.081 110.553 288.889V288.889ZM110.176 262.382C110.635 262.713 111.09 261.939 110.619 261.621C100.496 254.749 87.6253 252.339 75.8266 250.094C75.7799 250.087 75.7602 250.153 75.8069 250.166C87.6145 253.258 100.022 255.135 110.176 262.382V262.382ZM70.6779 267.176C72.2655 264.006 73.343 260.612 74.8982 257.423C74.9736 257.273 74.7437 257.136 74.6682 257.291C73.1202 260.495 72.1469 263.932 70.6348 267.151C70.6204 267.178 70.6654 267.207 70.6779 267.176ZM71.2489 252.427C71.0945 252.371 70.9293 252.484 70.888 252.632C68.6396 260.105 65.7304 267.636 64.8343 275.422C64.8163 275.585 65.0893 275.621 65.118 275.46C65.8741 271.316 66.8671 267.288 68.1062 263.261C68.6809 261.398 70.4732 252.797 72.6462 253.501C72.8796 253.58 73.0969 253.291 72.9658 253.082C72.3444 252.109 71.7787 251.11 71.1933 250.117C71.1807 250.094 71.1358 250.108 71.1466 250.135C71.4735 250.924 72.9945 253.02 71.2489 252.427V252.427ZM56.7888 283.45C43.4727 280.679 31.3974 274.371 18.9145 269.233C14.2597 267.314 9.47023 264.999 6.6346 260.601C3.03573 255.02 7.31344 247.549 11.5911 243.7C16.0161 239.72 22.5403 239.727 28.1003 240.138C33.3226 240.528 38.4964 241.201 43.7277 241.491C49.9072 241.828 56.0867 242.263 62.1009 243.809C64.7875 244.499 66.718 245.672 69.0113 247.08C69.8626 247.603 70.9005 248.581 71.8703 248.892C71.899 248.941 71.9152 248.969 71.9565 249.027C72.6102 249.936 74.1151 249.106 73.4794 248.136C73.4363 248.118 73.395 248.102 73.3465 248.086C73.2855 247.559 72.9855 247.242 72.4504 247.189C71.9906 247.143 70.3942 245.695 69.9668 245.449C69.0401 244.914 67.7597 244.871 66.7415 244.427C63.8986 243.188 60.8331 242.5 57.7981 241.945C51.3888 240.769 44.8214 240.718 38.342 240.28C28.5511 239.617 15.6623 236.127 8.6244 245.408C5.60919 249.388 3.3051 254.027 4.25151 259.114C5.10992 263.728 9.34633 265.332 12.8823 267.226C19.6149 270.822 27.0784 273.396 34.0894 276.426C41.3985 279.582 48.8297 282.349 56.656 283.916C56.9613 283.978 57.0905 283.513 56.7888 283.45V283.45ZM76.949 292.89C70.4049 290.487 64.4625 287.865 58.6404 284.077C57.843 283.554 57.1014 284.837 57.8969 285.349C68.5086 292.163 81.7241 294.909 93.1618 300.028C93.6269 300.238 94.0328 299.548 93.5677 299.337C88.1317 296.919 82.5287 294.936 76.949 292.89V292.89ZM173.878 354.393C156.449 353.066 141.053 339.319 129.416 327.388C124.972 322.831 121.473 316.624 115.184 314.555C111.226 313.254 107.916 312.074 104.707 309.281C101.529 306.512 99.0127 302.93 95.5611 300.491C95.351 300.342 95.0601 300.635 95.2055 300.849C97.5509 304.297 100.677 307.435 103.75 310.237C106.341 312.602 109.438 313.54 112.774 314.472C116.933 315.634 119.835 317.024 122.648 320.466C125.139 323.512 127.881 326.373 130.65 329.166C141.982 340.603 157.103 353.24 173.878 354.406C173.885 354.406 173.885 354.393 173.878 354.393Z" fill="#72352E"/>
<defs>
<linearGradient id="paint0_linear" x1="172.614" y1="473.124" x2="172.614" y2="4.85304" gradientUnits="userSpaceOnUse">
<stop stop-color="#FAB6A1"/>
<stop offset="1" stop-color="#FACBAA"/>
</linearGradient>
<linearGradient id="paint1_linear" x1="166.923" y1="382.775" x2="166.923" y2="5.90912" gradientUnits="userSpaceOnUse">
<stop stop-color="#CE6D64"/>
<stop offset="1" stop-color="#F6887D"/>
</linearGradient>
</defs>
</svg>
