<svg width="240" height="342" viewBox="0 0 240 342" fill="none" xmlns="http://www.w3.org/2000/svg">
<path d="M232.955 133.745C229.629 128.179 225.006 124.425 219.498 122.773C219.509 120.093 219.202 117.571 218.9 115.112C218.62 112.839 218.36 110.689 218.36 108.51V107.995C218.36 107.091 218.082 106.208 217.563 105.468C215.828 102.985 206.955 91.0002 197.129 90.0609C197.14 89.2652 197.164 88.4965 197.187 87.7404C197.363 81.7235 197.53 76.0426 190.747 69.2624L190.846 69.3612C182.887 60.8729 175.29 60.2534 166.494 59.5367C166.15 59.5098 165.8 59.481 165.447 59.4523C164.84 54.1988 163.302 49.7481 161.787 45.9656C161.713 45.7734 161.622 45.592 161.523 45.4142C158.469 40.0709 153.079 38.6772 149.091 37.6804C143.823 35.9615 138.869 35.0904 134.368 35.0904C113.728 35.0904 104.944 52.1476 96.448 68.6391C93.0989 75.1445 89.6462 81.8439 85.5093 87.3129C84.5245 86.5586 83.6792 85.7862 82.9237 84.9565C82.7118 84.3045 82.3506 83.7136 81.8785 83.2305C79.1826 77.7524 76.1871 72.3534 73.2788 67.1197C70.143 61.4746 66.9021 55.6392 64.1214 49.8272C64.0343 49.6422 63.9319 49.4607 63.8156 49.2901L62.6138 47.4851C62.8957 39.938 58.2147 29.8261 49.7841 19.9567C41.5708 10.3478 28.7229 0.0796402 17.2843 0.0796402C12.2847 0.0796402 3.40297 2.16845 0.117843 16.1365C-0.162055 17.3273 0.0631264 18.5756 0.740776 19.5922C2.01189 21.5014 3.28372 23.3459 4.53939 25.1635C9.2093 31.9329 13.6196 38.3233 16.7125 46.3553L17.0338 47.6359C17.0682 54.5939 17.7767 60.3809 19.2589 65.823C21.0548 72.2367 24.5427 78.6307 27.9154 84.8146C31.6237 91.6091 35.4567 98.6353 36.7228 105.214C36.7684 105.45 36.8331 105.687 36.9178 105.915C36.9178 105.915 37.0076 106.152 37.1606 106.549C37.1717 113.597 38.4604 118.263 40.5327 123.468C45.5716 138.086 48.017 145.84 48.5172 161.3C48.9844 176.22 53.2011 190.846 59.8401 200.674C62.315 213.153 62.7682 224.705 63.203 235.891C63.4871 243.179 63.7552 250.062 64.5458 257.176C66.7372 275.584 65.8926 292.068 64.6145 317.025C64.4181 320.886 64.2105 324.94 64.0022 329.225C63.9059 331.183 65.1154 332.968 66.9646 333.604C67.8813 333.922 89.6868 341.331 119.502 341.331C149.301 341.331 170.103 334.425 170.973 334.132C172.942 333.466 174.18 331.515 173.944 329.454C172.048 312.858 172.35 294.856 172.936 282.677C173.014 281.121 173.058 279.385 173.107 277.529C173.341 268.472 173.696 254.778 178.921 249.406C182.522 245.697 186.148 242.114 189.653 238.65C203.749 224.718 217.069 211.549 226.845 192.695C226.858 192.686 226.865 192.677 226.874 192.669L227.65 191.893C231.446 189.136 234.63 185.944 237.715 182.86C239.199 181.373 239.429 179.049 238.267 177.301C238.139 177.115 237.96 176.527 237.829 176.098C237.685 175.622 237.516 175.074 237.279 174.505C240.307 162.83 239.851 145.276 232.955 133.745" fill="#72352E"/>
<path d="M216.532 126.579L214.984 125.029C215.501 119.351 213.951 114.189 213.951 108.512V107.995C210.338 102.833 201.563 93.0245 194.339 94.5745L192.791 94.0571C192.274 84.2506 194.854 79.6042 187.629 72.3768C179.888 64.1185 173.179 64.6339 162.34 63.603L161.308 64.1185C161.308 57.9256 159.76 52.762 157.694 47.6001C155.631 43.9882 152.018 42.9554 147.889 41.9226C108.663 29.0179 105.566 70.8286 86.9867 92.509L85.839 92.861C82.8184 91.0165 80.5645 89.1287 78.7287 86.8316C78.7111 86.7956 78.6916 86.7615 78.6767 86.7256C78.6916 86.5873 78.714 86.4544 78.7293 86.3143L78.6228 86.6197C72.9623 74.8231 65.7915 63.533 60.1466 51.731L58.0843 48.6328C61.1814 29.0179 12.6649 -17.9529 4.4082 17.1459C10.6003 26.4388 16.7939 34.1798 20.923 45.0208L21.4385 47.0846C21.4385 53.281 21.9556 58.9566 23.5038 64.634C27.1157 77.5387 38.4703 90.9607 41.0511 104.381C41.0511 104.381 41.3598 105.207 41.8382 106.364L41.5674 106.446C41.5674 112.641 42.6007 116.77 44.6645 121.932C49.8268 136.901 52.4069 145.159 52.9218 161.162C53.3034 173.361 56.5135 188.362 63.9804 198.915C68.3394 220.118 66.8929 238.391 68.9217 256.655C71.5017 278.336 69.9543 297.435 68.4046 329.439C68.4046 329.439 90.0831 336.923 119.502 336.923C148.922 336.923 169.566 329.955 169.566 329.955C167.844 314.88 167.8 297.696 168.533 282.465C169.026 272.251 168.209 254.101 175.759 246.332C193.823 227.749 211.372 213.296 223.241 190.07C223.241 189.552 223.758 189.552 223.758 189.552L224.789 188.52C228.404 185.939 231.5 182.842 234.596 179.744C233.565 178.196 233.565 176.132 232.533 175.099C237.177 160.131 235.113 130.191 216.532 126.579" fill="url(#paint0_linear)"/>
<path d="M136.233 221.472C131.05 212.833 136.666 189.506 136.666 189.506C136.666 189.506 129.322 207.65 123.275 210.241C117.228 212.833 99.9498 211.105 77.4876 198.145C66.947 192.062 62.585 177.666 60.8025 166.417C59.7278 159.635 59.4991 152.69 59.1358 145.843C58.905 141.504 59.4725 135.69 57.6204 131.617C55.4606 126.864 53.3021 117.794 51.5737 103.539C49.8452 89.2814 43.7982 68.9769 43.7982 68.9769C41.2061 68.113 31.7043 54.7215 28.2487 43.9217C24.7932 33.122 14.8585 25.345 10.1058 18.4337C5.72631 12.0612 11.245 6.4377 12.1366 5.59355C8.63123 7.2585 5.87855 10.8956 4.4082 17.1459C10.6003 26.4388 16.7939 34.1798 20.923 45.0209L21.4385 47.0846C21.4385 53.281 21.9556 58.9566 23.5038 64.634C27.1157 77.5387 38.4703 90.9607 41.0511 104.381C41.0511 104.381 41.3598 105.207 41.8382 106.364L41.5674 106.446C41.5674 112.641 42.6007 116.77 44.6645 121.932C49.8268 136.901 52.4069 145.159 52.9218 161.162C53.3034 173.361 56.5135 188.362 63.9804 198.915C66.1227 209.331 66.86 219.038 67.3006 228.387C70.2195 223.665 73.0156 219.584 74.8979 218.017C80.0805 213.697 137.961 247.393 152.647 257.762C164.436 266.083 163.978 313.372 163.339 331.706C167.344 330.704 169.566 329.955 169.566 329.955C167.844 314.88 167.8 297.696 168.533 282.465C169.026 272.251 168.209 254.101 175.759 246.332C180.363 241.595 184.934 237.128 189.386 232.714C161.546 245.726 141.051 229.502 136.233 221.472V221.472ZM187.202 230.113C187.202 230.113 210.095 208.945 218.302 191.233L222.621 186.483L208.368 190.37C208.368 190.37 196.706 213.266 187.202 230.113V230.113ZM213.689 130.14C214.158 129.883 214.56 129.65 214.847 129.458C214.847 129.458 214.414 129.713 213.689 130.14ZM125.867 249.121C132.347 253.009 144.872 255.168 144.872 255.168C141.418 254.737 110.318 236.16 110.318 236.16C110.318 236.16 119.388 245.232 125.867 249.121ZM85.6959 104.834C90.4479 103.539 99.9504 109.153 104.702 113.473C109.453 117.792 117.66 137.233 123.707 142.416C129.756 147.602 131.051 155.377 133.642 159.265C136.234 163.152 137.962 176.112 137.962 176.112C137.962 176.112 139.689 167.904 141.85 168.768C144.01 169.634 157.831 182.16 157.831 182.16C157.831 182.16 166.038 186.914 180.724 188.209C195.411 189.506 202.754 183.457 202.754 183.457L223.487 180.432L207.937 178.273L216.577 167.04L209.664 169.201C197.569 182.593 185.907 183.889 185.907 183.889C180.293 184.322 168.63 180.865 168.63 180.865L162.582 170.929C162.582 170.929 189.795 143.713 197.571 139.394C203.722 135.976 210.936 131.757 213.689 130.14C209.921 132.202 200.931 136.082 196.706 137.233C191.954 138.528 185.907 144.577 185.907 144.577C179.861 148.466 161.287 164.018 161.287 164.018H153.512L148.76 160.129C144.008 157.969 138.826 150.626 138.826 150.626L140.121 147.169C153.944 137.233 169.062 122.114 175.108 114.338C181.155 106.561 188.931 97.4895 188.931 97.4895L184.18 99.6501C182.019 100.945 171.221 114.769 162.15 123.409C153.079 132.049 139.689 141.554 139.689 141.554H136.234C121.98 135.505 118.093 120.817 118.093 120.817C134.939 106.994 140.985 95.3288 143.577 87.5536C146.169 79.7784 156.967 66.3851 156.967 66.3851C152.216 69.4097 144.009 81.0734 140.121 87.9865C136.234 94.8977 127.164 106.561 127.164 106.561C122.412 109.586 116.796 110.45 116.796 110.45C109.454 110.45 104.702 104.834 100.383 102.242C96.0642 99.6502 97.3584 89.7143 97.3584 89.7143C105.566 62.4985 121.117 46.5134 121.117 46.5134L128.27 40.1536C106.807 44.9491 101.848 75.168 86.9867 92.509L85.839 92.861C84.4929 92.0402 83.3207 91.2032 82.2488 90.3322C82.361 90.5998 82.4964 90.8333 82.6724 91.0093C85.2645 93.6028 85.6959 104.834 85.6959 104.834" fill="url(#paint1_linear)"/>
<path d="M206.726 140.394C206.57 140.394 206.572 140.627 206.726 140.636C213.242 140.917 216.9 145.249 217.958 151.389C217.983 151.53 218.213 151.495 218.207 151.354C217.99 144.938 213.048 140.403 206.726 140.394ZM205.6 112.181C205.672 112.303 205.843 112.196 205.787 112.07C204.419 108.95 202.363 106.252 199.513 104.361C199.487 104.343 199.464 104.385 199.489 104.402C202.355 106.454 203.889 109.194 205.6 112.181V112.181ZM183.467 86.3251C183.481 86.3682 183.549 86.3502 183.537 86.3053C181.771 80.2041 175.737 76.4485 170.086 74.4261C170.064 74.4171 170.056 74.4513 170.076 74.4602C175.727 76.7053 181.463 80.2651 183.467 86.3251ZM87.4553 98.6892C83.3531 112.233 74.406 122.774 65.2704 133.249C65.2255 133.301 65.2991 133.378 65.3476 133.326C74.6705 123.249 83.9577 112.262 87.5501 98.7161C87.5656 98.655 87.4743 98.6299 87.4553 98.6892V98.6892ZM58.1053 51.7436C58.1186 51.7148 58.0759 51.6915 58.0624 51.7166C57.6605 52.5949 57.2403 53.4929 56.8075 54.3964C57.2501 53.5324 57.6851 52.6524 58.1053 51.7436ZM47.8164 66.7551C48.1194 66.4624 48.3993 66.1624 48.6876 65.8679C48.3692 66.1247 48.0626 66.4013 47.7223 66.6329C47.6305 66.6976 47.7363 66.8305 47.8164 66.7551V66.7551ZM56.8075 54.3964C54.6252 58.6584 52.0912 62.405 48.6876 65.8679C52.3075 62.9654 54.7801 58.6279 56.8075 54.3964ZM170.044 245.162C160.386 247.368 151.53 247.298 142.209 243.711C133.018 240.178 125.043 233.843 117.455 227.731C117.431 227.713 117.397 227.748 117.421 227.767C132.011 240.246 150.159 251.994 170.121 245.441C170.297 245.383 170.226 245.117 170.044 245.162ZM110.22 235.993C110.199 235.981 110.182 236.013 110.203 236.026C121.931 242.797 133.326 250.285 145.775 255.707C145.887 255.755 145.986 255.597 145.873 255.542C133.701 249.536 122.067 242.601 110.22 235.993V235.993ZM223.627 189.073C222.239 189.4 221.512 192.236 220.901 193.34C219.026 196.738 216.923 200.005 214.72 203.199C210.494 209.327 205.635 215.003 200.585 220.461C195.738 225.705 190.63 230.704 185.553 235.724C181.015 240.207 175.334 244.568 172.359 250.31C167.545 259.603 168.432 271.536 168.112 281.664C167.602 297.796 167.535 313.896 169.403 329.955C169.426 330.161 169.75 330.165 169.73 329.955C168.17 315.087 168.168 300.091 168.848 285.171C169.363 273.926 168.385 261.286 173.308 250.865C175.955 245.256 181.998 240.805 186.34 236.511C191.122 231.782 195.907 227.051 200.524 222.158C204.83 217.594 208.916 212.837 212.707 207.838C214.756 205.14 216.661 202.339 218.482 199.485C219.418 198.019 220.294 196.523 221.161 195.02C221.603 194.254 223.137 190.231 223.889 190.03C224.509 189.865 224.248 188.927 223.627 189.073V189.073ZM159.03 169.03C161.671 173.65 165.318 177.556 168.294 181.95C168.494 182.246 168.977 181.966 168.774 181.669C165.779 177.287 162.117 173.391 159.457 168.779C159.297 168.502 158.869 168.752 159.03 169.03ZM163.103 182.147C167.736 184.017 173.706 185.103 178.659 185.482C186.73 186.097 194.888 183.088 201.684 178.334C209.357 179.112 217.078 180.08 224.789 180.274C224.805 180.274 224.805 180.25 224.789 180.249C217.482 179.46 210.236 178.559 202.982 177.395C205.936 175.171 208.605 172.632 210.839 169.921C211.322 169.336 210.704 168.348 209.982 168.81C205.839 171.459 202.398 175.096 198.374 177.946C193.453 181.423 188.822 183.949 182.723 184.566C177.664 185.082 172.882 183.692 167.978 182.745C165.865 182.338 163.752 181.887 161.786 180.985C158.757 179.597 157.609 174.83 156.726 171.985C156.7 171.902 156.577 171.936 156.598 172.019C157.718 176.182 158.813 180.414 163.103 182.147V182.147ZM138.136 146.193C138.133 146.123 138.027 146.122 138.027 146.193C138.179 155.328 147.518 158.963 152.921 164.903C153.081 165.079 153.327 164.824 153.178 164.646C147.96 158.43 138.685 155.432 138.136 146.193V146.193ZM116.955 117.277C116.944 117.23 116.88 117.252 116.887 117.296C118.502 128.197 125.533 136.658 135.487 141.057C135.522 141.071 135.552 141.021 135.516 141.005C125.042 136.272 119.772 128.114 116.955 117.277V117.277ZM158.808 166.622C159.011 166.563 159.053 166.353 158.985 166.194C168.202 159.019 176.723 151.032 186.213 144.185C190.738 140.922 195.425 137.937 200.621 135.909C205.685 133.933 210.665 132.055 215.07 128.79C215.242 128.66 215.077 128.367 214.899 128.497C210.185 131.902 204.767 133.808 199.39 135.895C194.42 137.826 190.029 140.164 185.641 143.205C175.853 149.99 167.002 158.279 157.975 166.026C151.805 166.16 147.025 165.201 141.482 162.046C139.526 160.934 138.038 159.786 137.045 158.277C136.974 157.834 136.915 157.392 136.838 156.948C136.786 156.663 136.465 156.675 136.311 156.851C135.947 155.921 135.715 154.874 135.66 153.62C135.519 150.389 136.121 147.192 137.302 144.198C137.424 143.882 136.924 143.754 136.8 144.058C135.382 147.533 134.945 151.073 135.063 154.804C135.159 157.76 134.888 159.154 136.818 160.914C139.219 178.701 136.329 196.156 129.287 212.768C129.275 212.797 129.317 212.822 129.329 212.793C136.772 196.311 139.78 179.27 137.518 161.505C143.289 165.909 151.573 168.713 158.808 166.622V166.622ZM235.44 179.252C234.232 176.646 233.213 174.57 233.822 171.732C234.334 169.338 234.675 166.924 234.889 164.483C235.377 158.902 235.004 153.245 233.933 147.754C232.069 138.192 226.847 128.459 216.607 126.311C216.257 126.237 216.108 126.767 216.46 126.848C229.343 129.752 233.341 144.252 234.091 155.783C234.28 158.678 234.21 161.593 234.011 164.483C233.829 167.075 233.869 171.177 232.328 173.416C231.067 175.248 232.179 177.546 233.197 179.284C234.045 180.735 225.581 187.203 224.509 188.238C224.175 188.559 224.6 189.082 224.992 188.864C228.862 186.722 231.972 183.324 235.288 180.435C235.638 180.13 235.616 179.633 235.44 179.252V179.252ZM194.387 94.7486C201.202 93.7554 207.127 100.126 211.098 104.859C213.653 107.905 213.181 108.842 213.495 112.69C213.834 116.815 214.756 120.872 214.608 125.029C214.592 125.519 215.316 125.503 215.359 125.029C215.86 119.466 214.971 114.049 214.546 108.512C214.418 106.822 211.974 104.812 210.945 103.639C206.947 99.0754 200.908 93.328 194.29 94.3984C194.06 94.4362 194.161 94.7827 194.387 94.7486ZM162.34 63.9784C170.892 64.7615 178.901 64.9626 185.643 70.9632C188.998 73.9483 191.852 77.6932 192.406 82.2498C192.879 86.1311 192.313 90.1543 192.476 94.0571C192.493 94.463 193.123 94.463 193.105 94.0571C192.936 89.8669 193.601 85.5025 192.936 81.3482C192.248 77.0574 190.036 74.2662 187.057 71.2129C180.301 64.2909 171.374 64.0556 162.34 63.2276C161.858 63.1845 161.861 63.9335 162.34 63.9784ZM138.537 142.476C138.41 142.564 138.521 142.758 138.659 142.684C149.355 137.05 158.263 127.769 166.501 119.111C170.887 114.498 175.081 109.712 179.454 105.087C180.757 103.707 183.548 99.6573 185.564 99.6412C187.254 99.6268 189.738 96.577 191.052 95.6503C191.724 95.1761 191.104 94.0661 190.399 94.5313C189.1 95.3916 186.624 97.775 185.049 97.7625C184.629 97.7589 184.257 98.0516 184.142 98.4521C183.497 100.726 180.583 102.953 179.044 104.677C177.373 106.551 175.668 108.393 173.976 110.249C170.507 114.053 167.02 117.837 163.445 121.542C155.809 129.452 147.632 136.313 138.537 142.476V142.476ZM136.231 143.873C137.003 143.763 137.003 142.429 136.231 142.319C135.35 142.195 134.19 141.928 133.312 142.158C131.482 142.644 129.524 141.301 127.967 140.505C125.183 139.083 122.681 137.141 120.556 134.86C116.034 130.016 115.195 122.543 115.447 116.255C115.449 116.16 115.307 116.161 115.299 116.255C114.718 123.148 116.098 129.51 120.194 135.139C123.634 139.862 130.134 144.726 136.231 143.873ZM116.46 110.888C110.016 109.64 104.848 105.924 99.9069 101.784C99.8825 101.762 99.8502 101.796 99.8734 101.818C104.587 106.145 109.96 110.021 116.349 111.296C116.615 111.35 116.728 110.94 116.46 110.888V110.888ZM157.606 65.0003C148.764 70.4335 143.363 81.6104 138.14 90.165C135.102 95.142 132.262 100.049 128.301 104.381C124.58 108.453 120.008 111.75 115.312 114.601C115.179 114.683 115.298 114.888 115.435 114.809C124.14 109.845 130.89 103.407 136.088 94.8151C139.166 89.725 142.184 84.5937 145.437 79.6114C149.014 74.1334 153.325 69.9215 157.819 65.2751C157.954 65.1332 157.779 64.8926 157.606 65.0003V65.0003ZM113.381 113.92C107.675 111.542 98.036 107.671 97.6558 100.482C97.484 97.2577 97.2636 94.1846 97.7198 90.9481C98.1553 87.8499 99.4454 84.7696 100.521 81.8438C105.242 68.993 112.355 57.1174 121.11 46.6284C121.178 46.5457 121.068 46.429 120.991 46.5098C110.715 57.1407 103.517 71.2669 98.7572 85.1487C97.6341 88.4211 95.9793 91.8444 95.3367 95.221C94.6674 98.7251 95.8559 101.13 97.4671 104.076C100.354 109.349 108 112.363 113.234 114.457C113.569 114.59 113.706 114.055 113.381 113.92V113.92ZM87.162 92.685C92.5573 86.3556 96.4149 78.9719 100.212 71.6206C102.18 67.8076 104.14 63.9891 106.278 60.2677C107.122 58.7967 108.344 57.9544 109.22 56.6001C110.524 54.5831 111.942 52.6236 113.426 50.7341C118.831 43.8516 125.913 39.9523 134.773 39.9541C140.32 39.9559 145.756 41.6568 151.008 43.2661C155.429 44.6239 156.803 47.3108 158.22 51.4113C159.69 55.6608 161.071 59.5349 161.085 64.1185C161.085 64.4076 161.541 64.4076 161.531 64.1185C161.3 57.5987 161.055 50.6569 156.761 45.5327C155.158 43.6199 152.5 42.7471 150.206 42.0556C147.197 41.1503 144.152 40.2828 141.065 39.6883C132.422 38.0198 123.863 39.7153 116.954 45.2436C109.773 50.991 106.473 58.3279 102.303 66.2594C97.6054 75.1966 93.329 84.5272 86.8106 92.3347C86.6086 92.5754 86.9525 92.9275 87.162 92.685V92.685ZM75.8323 81.7504C76.7982 83.6112 77.2977 85.7018 78.3744 87.4602C77.5832 91.2948 76.855 94.7684 74.5723 98.1719C74.5513 98.2043 74.6039 98.2348 74.6249 98.2025C76.7589 95.1922 78.2586 91.6972 78.7083 88.0224C78.721 88.0404 78.73 88.0601 78.7428 88.0798C80.8507 90.9302 83.5928 92.5089 86.7939 93.8722C87.1538 94.023 87.6279 93.5633 87.2561 93.2723C84.777 91.3325 82.2432 89.3191 80.0054 87.1045C76.8347 83.9686 75.05 78.8318 72.9181 74.9362C68.6868 67.1933 64.1733 59.578 60.1993 51.7004C60.1643 51.6304 60.0632 51.6915 60.0948 51.7615C64.0266 60.2426 68.625 68.332 73.0816 76.5454C74.0181 78.2715 74.93 80.0083 75.8323 81.7504V81.7504ZM21.1726 44.949C18.4571 38.0359 14.6747 31.7443 10.5428 25.591C9.34468 23.8075 4.48749 18.6761 5.12376 16.4993C5.76633 14.3027 6.56253 12.2139 7.78805 10.2687C12.5218 2.76477 21.882 4.77457 28.5048 8.25535C36.7368 12.5857 43.6957 19.5364 49.2369 26.9129C53.6845 32.8327 58.7226 40.8756 57.7462 48.6328C57.6984 49.0136 58.3549 49.0998 58.4112 48.7226C59.5756 40.7876 54.329 32.6101 49.864 26.5447C43.9476 18.5073 36.1589 11.0895 27.1404 6.66222C20.7833 3.53886 13.076 2.28337 7.90731 8.15652C6.75754 9.46585 5.87927 11.068 5.2395 12.6773C3.98871 15.8186 3.69619 16.74 5.60147 19.5185C11.2429 27.7553 16.9945 35.728 20.6725 45.0892C20.7939 45.3981 21.2969 45.2633 21.1726 44.949V44.949ZM41.1984 104.381C40.0219 95.3754 34.3812 86.8693 30.1238 79.0635C27.5963 74.4297 25.1845 69.6701 23.8427 64.5423C22.3604 58.8829 22.1709 52.8733 21.5844 47.0846C21.5641 46.8996 21.3109 46.8978 21.294 47.0846C19.3972 68.6104 35.143 84.8128 40.9121 104.42C40.957 104.571 41.2194 104.548 41.1984 104.381ZM64.2119 198.816C64.1122 198.468 64.0365 198.109 63.9305 197.764C63.8752 197.583 63.5622 197.608 63.5853 197.811C63.5882 197.839 63.5923 197.868 63.5974 197.895C56.6713 187.586 53.9314 174.015 53.3589 162.139C52.931 153.281 52.0451 144.764 49.6985 136.184C47.0097 126.35 43.0068 116.63 41.8634 106.446C41.8221 106.069 41.3051 106.06 41.2708 106.446C40.8617 111.217 41.2285 115.348 42.8407 119.872C44.6904 125.073 47.0153 129.991 48.5816 135.311C51.4803 145.159 51.9995 154.973 52.7437 165.133C53.582 176.603 56.6187 189.655 63.7699 199.21C64.503 205.049 65.5945 210.829 66.1101 216.711C66.6278 222.602 66.8733 228.516 67.1027 234.425C67.5236 245.281 68.6615 256.019 69.3846 266.846C70.7822 287.733 68.5507 308.576 67.8625 329.439C67.8386 330.143 68.9048 330.132 68.9504 329.439C70.284 308.713 71.621 287.605 70.3248 266.846C69.6513 256.018 68.4447 245.281 68.0203 234.425C67.5854 223.274 67.4611 211.258 64.6124 200.318C67.102 203.407 70.0491 206.094 73.546 208.172C73.5937 208.199 73.6336 208.127 73.5887 208.099C69.8561 205.591 66.7667 202.418 64.2119 198.816" fill="#72352E"/>
<defs>
<linearGradient id="paint0_linear" x1="119.525" y1="336.923" x2="119.525" y2="4.48901" gradientUnits="userSpaceOnUse">
<stop stop-color="#FAB6A1"/>
<stop offset="1" stop-color="#FACBAA"/>
</linearGradient>
<linearGradient id="paint1_linear" x1="113.947" y1="331.706" x2="113.947" y2="5.59354" gradientUnits="userSpaceOnUse">
<stop stop-color="#CE6D64"/>
<stop offset="1" stop-color="#F6887D"/>
</linearGradient>
</defs>
</svg>
